zcool-kuaile.glyphspackage
{
color = 0;
glyphname = brokenbar;
layers = (
{
background = {
paths = (
{
closed = 1;
nodes = (
"78 770 LINE",
"78 406 LINE",
"121 406 LINE",
"121 770 LINE"
);
},
{
closed = 1;
nodes = (
"78 223 LINE",
"78 -141 LINE",
"121 -141 LINE",
"121 223 LINE"
);
}
);
};
layerId = "A8B8C001-3175-4DE2-BFCE-CA439A51AAC8";
paths = (
{
closed = 1;
nodes = (
"78 255 LINE",
"65 -61 LINE",
"159 -66 LINE",
"173 256 LINE"
);
},
{
closed = 1;
nodes = (
"179 409 LINE",
"194 781 LINE",
"99 786 LINE",
"84 414 LINE"
);
}
);
width = 239;
}
);
leftMetricsKey = "=bar";
note = brokenbar;
rightMetricsKey = "=bar";
unicode = 00A6;
}
{
glyphname = cent;
layers = (
{
background = {
paths = (
{
closed = 1;
nodes = (
"516 187 LINE",
"483 224 LINE",
"121 284 LINE",
"195 406 LINE",
"511 378 LINE",
"518 458 LINE",
"178 488 LINE",
"139 469 LINE",
"20 276 LINE",
"49 216 LINE",
"438 149 LINE",
"441 73 LINE",
"35 6 LINE",
"48 -74 LINE",
"491 -1 LINE",
"525 42 LINE"
);
}
);
};
layerId = "A8B8C001-3175-4DE2-BFCE-CA439A51AAC8";
paths = (
{
closed = 1;
nodes = (
"434 60 LINE",
"423 154 LINE",
"149 114 LINE",
"185 325 LINE",
"396 281 LINE",
"411 374 LINE",
"150 426 LINE",
"96 385 LINE",
"50 65 LINE",
"101 14 LINE"
);
},
{
closed = 1;
nodes = (
"209 -106 LINE",
"289 -111 LINE",
"331 533 LINE",
"250 538 LINE"
);
}
);
width = 464;
}
);
leftMetricsKey = "=c";
rightMetricsKey = "=c";
unicode = 00A2;
}
{
color = 0;
glyphname = copyright;
layers = (
{
background = {
paths = (
{
closed = 1;
nodes = (
"208 656 OFFCURVE",
"86 590 OFFCURVE",
"20 469 OFFCURVE",
"20 344 OFFCURVE",
"86 223 OFFCURVE",
"204 156 OFFCURVE",
"332 156 OFFCURVE",
"454 223 OFFCURVE",
"516 344 OFFCURVE",
"516 469 OFFCURVE",
"450 590 OFFCURVE",
"332 656 OFFCURVE",
"270 656 QCURVE SMOOTH"
);
},
{
closed = 1;
nodes = (
"325 633 OFFCURVE",
"434 574 OFFCURVE",
"493 465 OFFCURVE",
"493 348 OFFCURVE",
"434 242 OFFCURVE",
"325 180 OFFCURVE",
"211 180 OFFCURVE",
"102 242 OFFCURVE",
"43 348 OFFCURVE",
"43 465 OFFCURVE",
"102 574 OFFCURVE",
"211 633 OFFCURVE",
"266 633 QCURVE SMOOTH"
);
},
{
closed = 1;
nodes = (
"379 566 LINE",
"379 547 OFFCURVE",
"372 531 OFFCURVE",
"336 562 OFFCURVE",
"278 574 OFFCURVE",
"188 559 OFFCURVE",
"110 469 OFFCURVE",
"110 340 OFFCURVE",
"200 250 OFFCURVE",
"270 250 QCURVE SMOOTH",
"356 250 OFFCURVE",
"403 320 QCURVE",
"391 328 LINE",
"352 273 OFFCURVE",
"282 273 QCURVE SMOOTH",
"231 273 OFFCURVE",
"165 340 OFFCURVE",
"153 422 OFFCURVE",
"176 492 OFFCURVE",
"243 543 OFFCURVE",
"317 551 OFFCURVE",
"371 512 OFFCURVE",
"387 465 QCURVE",
"399 465 LINE",
"391 566 LINE"
);
}
);
};
layerId = "A8B8C001-3175-4DE2-BFCE-CA439A51AAC8";
paths = (
{
closed = 1;
nodes = (
"611 743 LINE",
"318 793 LINE",
"286 786 LINE",
"55 611 LINE",
"40 573 LINE",
"76 232 LINE",
"110 197 LINE",
"431 141 LINE",
"454 143 LINE",
"663 227 LINE",
"708 362 LINE",
"645 711 LINE"
);
},
{
closed = 1;
nodes = (
"154 271 LINE",
"123 559 LINE",
"321 711 LINE",
"570 668 LINE",
"623 375 LINE",
"607 292 LINE",
"434 222 LINE"
);
},
{
closed = 1;
nodes = (
"534 330 LINE",
"523 414 LINE",
"309 374 LINE",
"335 535 LINE",
"496 491 LINE",
"511 574 LINE",
"300 626 LINE",
"246 585 LINE",
"220 335 LINE",
"271 284 LINE"
);
}
);
width = 738;
}
);
leftMetricsKey = "=at-10";
note = copyright;
rightMetricsKey = "=at-10";
unicode = 00A9;
}
{
color = 0;
glyphname = currency;
layers = (
{
background = {
paths = (
{
closed = 1;
nodes = (
"444 8 LINE",
"563 -139 LINE",
"627 -87 LINE",
"522 41 LINE"
);
},
{
closed = 1;
nodes = (
"74 61 LINE",
"-40 -56 LINE",
"18 -113 LINE",
"138 11 LINE"
);
},
{
closed = 1;
nodes = (
"580 465 LINE",
"683 570 LINE",
"626 626 LINE",
"516 514 LINE"
);
},
{
closed = 1;
nodes = (
"174 469 LINE",
"69 599 LINE",
"6 547 LINE",
"102 428 LINE"
);
}
);
};
layerId = "A8B8C001-3175-4DE2-BFCE-CA439A51AAC8";
paths = (
{
closed = 1;
nodes = (
"498 453 LINE",
"275 493 LINE",
"243 486 LINE",
"92 341 LINE",
"77 303 LINE",
"113 82 LINE",
"147 47 LINE",
"338 -19 LINE",
"361 -17 LINE",
"490 47 LINE",
"595 229 LINE",
"532 421 LINE"
);
},
{
closed = 1;
nodes = (
"191 121 LINE",
"160 289 LINE",
"278 411 LINE",
"457 378 LINE",
"510 242 LINE",
"422 107 LINE",
"341 62 LINE"
);
},
{
closed = 1;
nodes = (
"454 48 LINE",
"573 -99 LINE",
"637 -47 LINE",
"483 140 LINE"
);
},
{
closed = 1;
nodes = (
"133 121 LINE",
"-20 -36 LINE",
"38 -93 LINE",
"197 71 LINE"
);
},
{
closed = 1;
nodes = (
"502 386 LINE",
"663 550 LINE",
"606 606 LINE",
"438 435 LINE"
);
},
{
closed = 1;
nodes = (
"219 418 LINE",
"89 579 LINE",
"26 527 LINE",
"147 377 LINE"
);
}
);
width = 643;
}
);
leftMetricsKey = "=o-80";
note = currency;
rightMetricsKey = "=o-80";
unicode = 00A4;
}
{
color = 0;
glyphname = degree;
layers = (
{
layerId = "A8B8C001-3175-4DE2-BFCE-CA439A51AAC8";
paths = (
{
closed = 1;
nodes = (
"231 898 LINE",
"128 913 LINE",
"96 906 LINE",
"15 831 LINE",
"0 793 LINE",
"6 682 LINE",
"40 647 LINE",
"151 601 LINE",
"174 603 LINE",
"283 657 LINE",
"318 779 LINE",
"255 876 LINE"
);
},
{
closed = 1;
nodes = (
"74 711 LINE",
"73 789 LINE",
"131 841 LINE",
"200 833 LINE",
"243 772 LINE",
"225 707 LINE",
"154 672 LINE"
);
}
);
width = 298;
}
);
leftMetricsKey = "=n-50";
note = degree;
rightMetricsKey = "=n-70";
unicode = 00B0;
}
{
color = 0;
glyphname = dieresis;
layers = (
{
background = {
paths = (
{
closed = 1;
nodes = (
"319 708 OFFCURVE",
"264 684 OFFCURVE",
"264 621 OFFCURVE",
"315 598 OFFCURVE",
"362 621 OFFCURVE",
"369 672 OFFCURVE",
"342 688 QCURVE"
);
},
{
closed = 1;
nodes = (
"101 621 OFFCURVE",
"108 676 OFFCURVE",
"61 707 OFFCURVE",
"6 684 OFFCURVE",
"6 617 OFFCURVE",
"61 597 OFFCURVE",
"81 609 QCURVE SMOOTH"
);
}
);
};
layerId = "A8B8C001-3175-4DE2-BFCE-CA439A51AAC8";
paths = (
{
closed = 1;
nodes = (
"129 685 LINE",
"20 723 LINE",
"-20 615 LINE",
"89 576 LINE"
);
},
{
closed = 1;
nodes = (
"387 685 LINE",
"278 723 LINE",
"238 615 LINE",
"347 576 LINE"
);
}
);
width = 347;
}
);
leftMetricsKey = "=caron";
note = dieresis;
rightMetricsKey = "=caron";
unicode = 00A8;
}
{
color = 0;
glyphname = divide;
layers = (
{
background = {
paths = (
{
closed = 1;
nodes = (
"665 379 LINE",
"665 332 LINE",
"-49 332 LINE",
"-49 379 LINE"
);
},
{
closed = 1;
nodes = (
"369 67 OFFCURVE",
"372 148 OFFCURVE",
"306 191 OFFCURVE",
"232 156 OFFCURVE",
"228 74 OFFCURVE",
"291 27 OFFCURVE",
"330 47 QCURVE SMOOTH"
);
},
{
closed = 1;
nodes = (
"369 559 OFFCURVE",
"372 641 OFFCURVE",
"306 684 OFFCURVE",
"232 648 OFFCURVE",
"228 566 OFFCURVE",
"291 519 OFFCURVE",
"330 539 QCURVE SMOOTH"
);
}
);
};
components = (
{
name = period;
transform = "{0.86384, 0, 0, 0.86384, 205, 6}";
},
{
name = period;
transform = "{0.86384, 0, 0, 0.86384, 205, 406}";
}
);
layerId = "A8B8C001-3175-4DE2-BFCE-CA439A51AAC8";
paths = (
{
closed = 1;
nodes = (
"590 227 LINE",
"585 307 LINE",
"30 274 LINE",
"35 193 LINE"
);
}
);
width = 620;
}
);
leftMetricsKey = "=minus";
note = divide;
rightMetricsKey = "=minus";
unicode = 00F7;
}
{
glyphname = logicalnot;
layers = (
{
layerId = "A8B8C001-3175-4DE2-BFCE-CA439A51AAC8";
paths = (
{
closed = 1;
nodes = (
"580 323 LINE",
"30 304 LINE",
"35 223 LINE",
"494 237 LINE",
"491 76 LINE",
"573 72 LINE"
);
}
);
width = 610;
}
);
leftMetricsKey = "=minus";
rightMetricsKey = "=minus";
unicode = 00AC;
}
{
glyphname = macron;
layers = (
{
layerId = "A8B8C001-3175-4DE2-BFCE-CA439A51AAC8";
paths = (
{
closed = 1;
nodes = (
"320 678 LINE",
"-6 688 LINE",
"-20 617 LINE",
"309 608 LINE"
);
}
);
width = 280;
}
);
leftMetricsKey = "=caron";
rightMetricsKey = "=caron";
unicode = 00AF;
}
{
color = 0;
glyphname = multiply;
layers = (
{
layerId = "A8B8C001-3175-4DE2-BFCE-CA439A51AAC8";
paths = (
{
closed = 1;
nodes = (
"435 15 LINE",
"495 70 LINE",
"330 247 LINE",
"515 383 LINE",
"467 448 LINE",
"275 306 LINE",
"138 453 LINE",
"77 399 LINE",
"209 257 LINE",
"20 117 LINE",
"68 53 LINE",
"264 198 LINE"
);
}
);
width = 535;
}
);
leftMetricsKey = "=plus-10";
note = multiply;
rightMetricsKey = "=plus-10";
unicode = 00D7;
}
{
glyphname = periodcentered;
layers = (
{
layerId = "A8B8C001-3175-4DE2-BFCE-CA439A51AAC8";
paths = (
{
closed = 1;
nodes = (
"400 477 LINE",
"343 320 LINE",
"501 265 LINE",
"558 423 LINE"
);
}
);
width = 920;
}
);
note = periodcentered;
unicode = 00B7;
}
{
color = 0;
glyphname = plusminus;
layers = (
{
background = {
paths = (
{
closed = 1;
nodes = (
"176 27 LINE",
"176 -20 LINE",
"860 -20 LINE",
"860 27 LINE"
);
},
{
closed = 1;
nodes = (
"489 734 LINE",
"489 426 LINE",
"176 426 LINE",
"176 379 LINE",
"489 379 LINE",
"489 109 LINE",
"536 109 LINE",
"536 379 LINE",
"860 379 LINE",
"860 426 LINE",
"536 426 LINE",
"536 734 LINE"
);
}
);
};
components = (
{
name = plus;
transform = "{1, 0, 0, 1, 20, 100}";
},
{
name = minus;
transform = "{-1, 0, 0, 1, 620, -180}";
}
);
layerId = "A8B8C001-3175-4DE2-BFCE-CA439A51AAC8";
width = 640;
}
);
leftMetricsKey = "=plus";
note = plusminus;
rightMetricsKey = "=plus";
unicode = 00B1;
}
{
glyphname = registered;
layers = (
{
background = {
paths = (
{
closed = 1;
nodes = (
"307 552 LINE",
"444 559 LINE",
"458 465 LINE",
"351 473 LINE",
"346 397 LINE",
"389 397 LINE",
"470 272 LINE",
"539 314 LINE",
"473 391 LINE",
"511 387 LINE",
"536 442 LINE",
"516 615 LINE",
"493 635 LINE",
"255 628 LINE",
"233 606 LINE",
"218 297 LINE",
"293 295 LINE"
);
}
);
};
layerId = "A8B8C001-3175-4DE2-BFCE-CA439A51AAC8";
paths = (
{
closed = 1;
nodes = (
"611 743 LINE",
"318 793 LINE",
"286 786 LINE",
"55 611 LINE",
"40 573 LINE",
"76 232 LINE",
"110 197 LINE",
"431 141 LINE",
"454 143 LINE",
"663 227 LINE",
"708 362 LINE",
"645 711 LINE"
);
},
{
closed = 1;
nodes = (
"154 271 LINE",
"123 559 LINE",
"321 711 LINE",
"570 668 LINE",
"623 375 LINE",
"607 292 LINE",
"434 222 LINE"
);
},
{
closed = 1;
nodes = (
"307 552 LINE",
"444 559 LINE",
"458 475 LINE",
"351 483 LINE",
"346 407 LINE",
"379 407 LINE",
"470 282 LINE",
"539 324 LINE",
"463 401 LINE",
"511 397 LINE",
"536 452 LINE",
"516 615 LINE",
"493 635 LINE",
"255 628 LINE",
"233 606 LINE",
"218 297 LINE",
"293 295 LINE"
);
}
);
width = 738;
}
);
leftMetricsKey = copyright;
rightMetricsKey = copyright;
unicode = 00AE;
}
{
color = 0;
glyphname = sterling;
layers = (
{
background = {
paths = (
{
closed = 1;
nodes = (
"367 344 LINE",
"367 391 LINE",
"234 391 LINE",
"234 402 OFFCURVE",
"222 492 OFFCURVE",
"222 605 OFFCURVE",
"281 664 OFFCURVE",
"347 664 OFFCURVE",
"378 637 OFFCURVE",
"378 578 OFFCURVE",
"402 551 OFFCURVE",
"429 551 OFFCURVE",
"456 578 OFFCURVE",
"456 629 OFFCURVE",
"394 688 OFFCURVE",
"285 688 OFFCURVE",
"199 641 OFFCURVE",
"160 543 OFFCURVE",
"159 457 OFFCURVE",
"167 391 QCURVE",
"62 391 LINE",
"62 344 LINE",
"167 344 LINE",
"175 226 OFFCURVE",
"167 152 QCURVE",
"110 152 LINE SMOOTH",
"89 152 OFFCURVE",
"46 113 OFFCURVE",
"46 47 OFFCURVE",
"77 16 OFFCURVE",
"128 16 OFFCURVE",
"175 51 OFFCURVE",
"195 90 QCURVE",
"265 35 OFFCURVE",
"320 16 OFFCURVE",
"402 16 OFFCURVE",
"484 94 OFFCURVE",
"492 172 QCURVE",
"476 176 LINE",
"464 137 OFFCURVE",
"413 90 OFFCURVE",
"347 90 OFFCURVE",
"296 106 OFFCURVE",
"214 137 QCURVE",
"230 184 OFFCURVE",
"234 266 OFFCURVE",
"234 344 QCURVE"
);
},
{
closed = 1;
nodes = (
"155 74 OFFCURVE",
"120 43 OFFCURVE",
"93 43 OFFCURVE",
"74 62 OFFCURVE",
"74 98 OFFCURVE",
"97 121 OFFCURVE",
"124 125 OFFCURVE",
"151 121 OFFCURVE",
"163 113 QCURVE"
);
}
);
};
layerId = "A8B8C001-3175-4DE2-BFCE-CA439A51AAC8";
paths = (
{
closed = 1;
nodes = (
"428 48 LINE",
"30 6 LINE",
"43 -74 LINE",
"443 -31 LINE"
);
},
{
closed = 1;
nodes = (
"193 -11 LINE",
"166 264 LINE",
"240 406 LINE",
"446 378 LINE",
"453 458 LINE",
"223 488 LINE",
"184 469 LINE",
"85 276 LINE",
"113 -51 LINE"
);
},
{
closed = 1;
nodes = (
"20 241 LINE",
"23 161 LINE",
"391 178 LINE",
"387 260 LINE"
);
}
);
width = 463;
}
);
leftMetricsKey = "=euro+0";
note = sterling;
rightMetricsKey = "=euro-10";
unicode = 00A3;
}
{
color = 0;
glyphname = yen;
layers = (
{
background = {
paths = (
{
closed = 1;
nodes = (
"281 230 LINE",
"281 320 LINE",
"469 320 LINE",
"469 355 LINE",
"297 355 LINE",
"391 594 LINE",
"414 637 OFFCURVE",
"438 664 OFFCURVE",
"469 664 QCURVE",
"469 688 LINE",
"320 688 LINE",
"320 664 LINE",
"351 664 OFFCURVE",
"367 645 OFFCURVE",
"367 625 OFFCURVE",
"359 602 QCURVE SMOOTH",
"266 355 LINE",
"172 613 LINE",
"164 629 OFFCURVE",
"164 645 OFFCURVE",
"188 660 OFFCURVE",
"219 664 QCURVE",
"219 688 LINE",
"31 688 LINE",
"31 664 LINE",
"58 664 OFFCURVE",
"93 645 OFFCURVE",
"113 598 QCURVE",
"203 355 LINE",
"23 355 LINE",
"23 320 LINE",
"215 320 LINE",
"219 301 LINE",
"219 230 LINE",
"23 230 LINE",
"23 195 LINE",
"219 195 LINE",
"219 148 LINE SMOOTH",
"219 86 OFFCURVE",
"215 59 OFFCURVE",
"195 43 OFFCURVE",
"148 43 QCURVE SMOOTH",
"137 43 LINE",
"137 20 LINE",
"359 20 LINE",
"359 43 LINE",
"348 43 LINE SMOOTH",
"305 43 OFFCURVE",
"285 59 OFFCURVE",
"281 86 OFFCURVE",
"281 148 QCURVE SMOOTH",
"281 195 LINE",
"469 195 LINE",
"469 230 LINE"
);
}
);
};
layerId = "A8B8C001-3175-4DE2-BFCE-CA439A51AAC8";
paths = (
{
closed = 1;
nodes = (
"316 180 LINE",
"535 424 LINE",
"472 495 LINE",
"237 236 LINE",
"221 203 LINE",
"215 -21 LINE",
"309 -22 LINE"
);
},
{
closed = 1;
nodes = (
"247 335 LINE",
"79 516 LINE",
"10 453 LINE",
"179 271 LINE"
);
},
{
closed = 1;
nodes = (
"81 141 LINE",
"84 61 LINE",
"452 88 LINE",
"448 170 LINE"
);
}
);
width = 545;
}
);
leftMetricsKey = "=v-10";
note = yen;
rightMetricsKey = "=v+20";
unicode = 00A5;
}
{
color = 0;
glyphname = asterisk;
layers = (
{
layerId = "A8B8C001-3175-4DE2-BFCE-CA439A51AAC8";
paths = (
{
closed = 1;
nodes = (
"393 362 LINE",
"296 441 LINE",
"413 497 LINE",
"378 569 LINE",
"259 511 LINE",
"256 634 LINE",
"176 633 LINE",
"179 513 LINE",
"54 571 LINE",
"20 497 LINE",
"145 439 LINE",
"50 362 LINE",
"101 299 LINE",
"221 396 LINE",
"343 299 LINE"
);
}
);
width = 413;
}
);
leftMetricsKey = "=n-30";
note = asterisk;
rightMetricsKey = "=n-50";
unicode = 002A;
}
{
color = 0;
glyphname = caron;
layers = (
{
background = {
paths = (
{
closed = 1;
nodes = (
"154 545 LINE",
"228 550 LINE",
"365 750 LINE",
"280 788 LINE",
"183 632 LINE",
"31 798 LINE",
"-50 749 LINE"
);
}
);
};
layerId = "A8B8C001-3175-4DE2-BFCE-CA439A51AAC8";
paths = (
{
closed = 1;
nodes = (
"134 565 LINE",
"208 570 LINE",
"335 750 LINE",
"260 778 LINE",
"163 632 LINE",
"41 798 LINE",
"-20 749 LINE"
);
}
);
width = 295;
}
);
leftMetricsKey = "=n-70";
note = caron;
rightMetricsKey = "=n-90";
unicode = 02C7;
}
{
color = 0;
glyphname = comma;
layers = (
{
components = (
{
name = period;
transform = "{1, 0, 0, 1, -10, 30}";
}
);
layerId = "A8B8C001-3175-4DE2-BFCE-CA439A51AAC8";
paths = (
{
closed = 1;
nodes = (
"208 56 LINE",
"188 113 LINE",
"79 147 LINE",
"49 82 LINE",
"126 54 LINE",
"43 -96 LINE",
"113 -133 LINE"
);
}
);
width = 228;
}
);
leftMetricsKey = "=period-10";
note = comma;
rightMetricsKey = "=period-10";
unicode = 002C;
}
{
color = 0;
glyphname = hyphen;
layers = (
{
layerId = "A8B8C001-3175-4DE2-BFCE-CA439A51AAC8";
paths = (
{
closed = 1;
nodes = (
"618 239 LINE",
"611 321 LINE",
"60 279 LINE",
"66 198 LINE"
);
}
);
width = 653;
}
);
leftMetricsKey = "=n+10";
note = hyphen;
rightMetricsKey = "=n-15";
unicode = 002D;
}
{
color = 0;
glyphname = period;
layers = (
{
layerId = "A8B8C001-3175-4DE2-BFCE-CA439A51AAC8";
paths = (
{
closed = 1;
nodes = (
"193 85 LINE",
"73 126 LINE",
"30 7 LINE",
"150 -35 LINE"
);
}
);
width = 223;
}
);
leftMetricsKey = "=n-20";
note = period;
rightMetricsKey = "=n-20";
unicode = 002E;
}
{
color = 0;
glyphname = plus;
layers = (
{
layerId = "A8B8C001-3175-4DE2-BFCE-CA439A51AAC8";
paths = (
{
closed = 1;
nodes = (
"590 227 LINE",
"585 307 LINE",
"350 293 LINE",
"360 486 LINE",
"279 489 LINE",
"268 288 LINE",
"30 274 LINE",
"35 193 LINE",
"264 207 LINE",
"251 -34 LINE",
"333 -38 LINE",
"346 212 LINE"
);
}
);
width = 620;
}
);
leftMetricsKey = "=o-30";
note = plus;
rightMetricsKey = "=o-30";
unicode = 002B;
}
{
glyphname = ring;
layers = (
{
layerId = "A8B8C001-3175-4DE2-BFCE-CA439A51AAC8";
paths = (
{
closed = 1;
nodes = (
"211 898 LINE",
"108 913 LINE",
"76 906 LINE",
"-5 831 LINE",
"-20 793 LINE",
"-14 682 LINE",
"20 647 LINE",
"131 601 LINE",
"154 603 LINE",
"263 657 LINE",
"298 779 LINE",
"235 876 LINE"
);
},
{
closed = 1;
nodes = (
"54 711 LINE",
"53 789 LINE",
"111 841 LINE",
"180 833 LINE",
"223 772 LINE",
"205 707 LINE",
"134 672 LINE"
);
}
);
width = 258;
}
);
leftMetricsKey = "=caron";
rightMetricsKey = "=caron";
unicode = 02DA;
}
{
color = 0;
glyphname = slash;
layers = (
{
layerId = "A8B8C001-3175-4DE2-BFCE-CA439A51AAC8";
paths = (
{
closed = 1;
nodes = (
"326 521 LINE",
"252 552 LINE",
"10 -38 LINE",
"85 -68 LINE"
);
}
);
width = 316;
}
);
leftMetricsKey = "=n-40";
note = slash;
rightMetricsKey = "=n-60";
unicode = 002F;
}
{
color = 0;
glyphname = tilde;
layers = (
{
background = {
paths = (
{
closed = 1;
nodes = (
"-5 652 OFFCURVE",
"-1 660 QCURVE",
"10 680 OFFCURVE",
"30 680 QCURVE SMOOTH",
"42 680 OFFCURVE",
"66 668 OFFCURVE",
"93 648 QCURVE",
"151 613 OFFCURVE",
"190 613 QCURVE SMOOTH",
"214 613 OFFCURVE",
"257 645 OFFCURVE",
"284 691 OFFCURVE",
"284 734 QCURVE",
"269 734 LINE",
"261 695 OFFCURVE",
"238 668 OFFCURVE",
"222 668 QCURVE SMOOTH",
"202 668 OFFCURVE",
"121 719 OFFCURVE",
"101 727 QCURVE SMOOTH",
"82 734 OFFCURVE",
"62 734 QCURVE SMOOTH",
"26 734 OFFCURVE",
"-28 679 OFFCURVE",
"-28 613 QCURVE",
"-13 613 LINE"
);
}
);
};
layerId = "A8B8C001-3175-4DE2-BFCE-CA439A51AAC8";
paths = (
{
closed = 1;
nodes = (
"308 599 LINE",
"416 669 LINE",
"378 741 LINE",
"283 678 LINE",
"126 759 LINE",
"89 751 LINE",
"-20 663 LINE",
"33 603 LINE",
"126 677 LINE",
"278 596 LINE"
);
}
);
width = 376;
}
);
leftMetricsKey = "=caron";
note = tilde;
rightMetricsKey = "=caron";
unicode = 02DC;
}
{
color = 0;
glyphname = equal;
layers = (
{
background = {
paths = (
{
closed = 1;
nodes = (
"611 93 LINE",
"610 173 LINE",
"30 163 LINE",
"33 82 LINE"
);
},
{
closed = 1;
nodes = (
"564 364 LINE",
"74 364 LINE",
"74 283 LINE",
"564 283 LINE"
);
}
);
};
components = (
{
name = minus;
transform = "{1, 0, 0, 1, 10, -120}";
}
);
layerId = "A8B8C001-3175-4DE2-BFCE-CA439A51AAC8";
paths = (
{
closed = 1;
nodes = (
"570 297 LINE",
"565 377 LINE",
"50 364 LINE",
"55 283 LINE"
);
}
);
width = 630;
}
);
leftMetricsKey = "=minus+10";
note = equal;
rightMetricsKey = "=minus";
unicode = 003D;
}
{
color = 0;
glyphname = greater;
layers = (
{
layerId = "A8B8C001-3175-4DE2-BFCE-CA439A51AAC8";
paths = (
{
closed = 1;
nodes = (
"443 257 LINE",
"438 331 LINE",
"68 468 LINE",
"40 393 LINE",
"326 286 LINE",
"30 124 LINE",
"69 53 LINE"
);
}
);
width = 468;
}
);
leftMetricsKey = "=o-30";
note = greater;
rightMetricsKey = "=o-35";
unicode = 003E;
}
{
color = 0;
glyphname = less;
layers = (
{
layerId = "A8B8C001-3175-4DE2-BFCE-CA439A51AAC8";
paths = (
{
closed = 1;
nodes = (
"409 169 LINE",
"139 284 LINE",
"430 439 LINE",
"393 510 LINE",
"25 315 LINE",
"29 243 LINE",
"376 95 LINE"
);
}
);
width = 460;
}
);
leftMetricsKey = "=|greater";
note = less;
rightMetricsKey = "=|greater";
unicode = 003C;
}
{
color = 0;
glyphname = question;
layers = (
{
components = (
{
name = period;
transform = "{1, 0, 0, 1, 127, -10}";
}
);
layerId = "A8B8C001-3175-4DE2-BFCE-CA439A51AAC8";
paths = (
{
closed = 1;
nodes = (
"297 202 LINE",
"281 365 LINE",
"480 503 LINE",
"487 576 LINE",
"311 757 LINE",
"253 767 LINE",
"-30 615 LINE",
"16 530 LINE",
"267 665 LINE",
"378 551 LINE",
"202 428 LINE",
"180 381 LINE",
"202 187 LINE"
);
}
);
width = 457;
}
);
leftMetricsKey = "=period-60";
note = question;
rightMetricsKey = "=period-60";
unicode = 003F;
}
{
color = 0;
glyphname = semicolon;
layers = (
{
background = {
paths = (
{
closed = 1;
nodes = (
"211 103 LINE",
"191 159 LINE",
"83 203 LINE",
"53 128 LINE",
"119 102 LINE",
"33 -58 LINE",
"104 -96 LINE"
);
},
{
closed = 1;
nodes = (
"190 331 LINE",
"69 396 LINE",
"30 324 LINE",
"151 259 LINE"
);
}
);
};
components = (
{
name = comma;
transform = "{1, 0, 0, 1, 10, -10}";
},
{
name = period;
transform = "{1, 0, 0, 1, 10, 310}";
}
);
layerId = "A8B8C001-3175-4DE2-BFCE-CA439A51AAC8";
width = 232;
}
);
leftMetricsKey = "=period";
note = semicolon;
rightMetricsKey = "=period-16";
unicode = 003B;
}
{
color = 0;
glyphname = J;
layers = (
{
layerId = "A8B8C001-3175-4DE2-BFCE-CA439A51AAC8";
paths = (
{
closed = 1;
nodes = (
"331 76 LINE",
"365 123 LINE",
"350 609 LINE",
"494 599 LINE",
"500 694 LINE",
"108 721 LINE",
"100 628 LINE",
"255 616 LINE",
"269 156 LINE",
"35 88 LINE",
"63 -2 LINE"
);
}
);
width = 475;
}
);
leftMetricsKey = "=H-30";
note = J;
rightMetricsKey = "=H-90";
unicode = 004A;
}
{
color = 0;
glyphname = K;
layers = (
{
layerId = "A8B8C001-3175-4DE2-BFCE-CA439A51AAC8";
paths = (
{
closed = 1;
nodes = (
"606 65 LINE",
"365 319 LINE",
"619 520 LINE",
"560 594 LINE",
"266 362 LINE",
"261 292 LINE",
"539 0 LINE"
);
},
{
closed = 1;
nodes = (
"255 722 LINE",
"161 733 LINE",
"65 -1 LINE",
"159 -13 LINE"
);
}
);
width = 629;
}
);
leftMetricsKey = "=I";
note = K;
rightMetricsKey = "=x+10";
unicode = 004B;
}
{
color = 0;
glyphname = L;
layers = (
{
layerId = "A8B8C001-3175-4DE2-BFCE-CA439A51AAC8";
paths = (
{
closed = 1;
nodes = (
"584 96 LINE",
"165 109 LINE",
"230 705 LINE",
"136 716 LINE",
"65 69 LINE",
"110 16 LINE",
"580 3 LINE"
);
}
);
width = 604;
}
);
leftMetricsKey = "=I";
note = L;
rightMetricsKey = "=K+10";
unicode = 004C;
}
{
color = 0;
glyphname = M;
layers = (
{
layerId = "A8B8C001-3175-4DE2-BFCE-CA439A51AAC8";
paths = (
{
closed = 1;
nodes = (
"809 46 LINE",
"695 675 LINE",
"608 690 LINE",
"408 337 LINE",
"246 686 LINE",
"158 675 LINE",
"45 46 LINE",
"138 29 LINE",
"224 510 LINE",
"360 214 LINE",
"444 210 LINE",
"625 530 LINE",
"716 29 LINE"
);
}
);
width = 854;
}
);
leftMetricsKey = "=H-20";
note = M;
rightMetricsKey = "=H-20";
unicode = 004D;
}
{
color = 0;
glyphname = N;
layers = (
{
layerId = "A8B8C001-3175-4DE2-BFCE-CA439A51AAC8";
paths = (
{
closed = 1;
nodes = (
"199 550 LINE",
"616 23 LINE",
"700 52 LINE",
"700 694 LINE",
"606 694 LINE",
"606 187 LINE",
"203 698 LINE",
"119 674 LINE",
"40 33 LINE",
"133 22 LINE"
);
}
);
width = 765;
}
);
leftMetricsKey = "=H-25";
note = N;
rightMetricsKey = "=H";
unicode = 004E;
}
{
color = 0;
glyphname = O;
layers = (
{
layerId = "A8B8C001-3175-4DE2-BFCE-CA439A51AAC8";
paths = (
{
closed = 1;
nodes = (
"195 578 LINE",
"550 615 LINE",
"569 100 LINE",
"159 105 LINE"
);
},
{
closed = 1;
nodes = (
"664 53 LINE",
"643 667 LINE",
"590 713 LINE",
"148 668 LINE",
"105 626 LINE",
"60 62 LINE",
"106 11 LINE",
"616 5 LINE"
);
}
);
width = 724;
}
);
leftMetricsKey = "=n+10";
note = O;
rightMetricsKey = "=n+10";
unicode = 004F;
}
{
glyphname = uni4E00;
layers = (
{
layerId = "A8B8C001-3175-4DE2-BFCE-CA439A51AAC8";
paths = (
{
closed = 1;
nodes = (
"84 286 LINE",
"844 339 LINE",
"837 433 LINE",
"76 379 LINE"
);
}
);
width = 920;
}
);
note = uni4E00;
unicode = 4E00;
}
{
glyphname = uni4E01;
layers = (
{
layerId = "A8B8C001-3175-4DE2-BFCE-CA439A51AAC8";
paths = (
{
closed = 1;
nodes = (
"82 637 LINE",
"461 643 LINE",
"437 87 LINE",
"267 157 LINE",
"230 70 LINE",
"464 -26 LINE",
"529 15 LINE",
"556 645 LINE",
"842 650 LINE",
"840 745 LINE",
"79 732 LINE"
);
}
);
width = 920;
}
);
note = uni4E01;
unicode = 4E01;
}
{
glyphname = uni4E03;
layers = (
{
layerId = "A8B8C001-3175-4DE2-BFCE-CA439A51AAC8";
paths = (
{
closed = 1;
nodes = (
"860 419 LINE",
"853 514 LINE",
"396 476 LINE",
"432 741 LINE",
"337 753 LINE",
"298 468 LINE",
"59 449 LINE",
"68 354 LINE",
"285 372 LINE",
"247 87 LINE",
"287 34 LINE",
"693 -34 LINE",
"708 59 LINE",
"348 121 LINE",
"383 380 LINE"
);
}
);
width = 920;
}
);
note = uni4E03;
unicode = 4E03;
}
{
glyphname = uni4E07;
layers = (
{
layerId = "A8B8C001-3175-4DE2-BFCE-CA439A51AAC8";
paths = (
{
closed = 1;
nodes = (
"860 671 LINE",
"854 765 LINE",
"70 717 LINE",
"76 623 LINE",
"281 635 LINE",
"60 -9 LINE",
"149 -39 LINE",
"286 358 LINE",
"683 388 LINE",
"690 58 LINE",
"490 101 LINE",
"470 8 LINE",
"729 -45 LINE",
"786 1 LINE",
"775 441 LINE",
"725 486 LINE",
"319 455 LINE",
"384 642 LINE"
);
}
);
width = 920;
}
);
note = uni4E07;
unicode = 4E07;
}
{
glyphname = uni4E08;
layers = (
{
layerId = "A8B8C001-3175-4DE2-BFCE-CA439A51AAC8";
paths = (
{
closed = 1;
nodes = (
"90 539 LINE",
"453 560 LINE",
"383 352 LINE",
"234 460 LINE",
"179 382 LINE",
"352 257 LINE",
"323 171 LINE",
"75 37 LINE",
"120 -45 LINE",
"383 97 LINE",
"405 124 LINE",
"431 200 LINE",
"773 -46 LINE",
"828 31 LINE",
"462 295 LINE",
"554 566 LINE",
"845 584 LINE",
"839 677 LINE",
"586 662 LINE",
"611 736 LINE",
"521 766 LINE",
"484 656 LINE",
"84 632 LINE"
);
}
);
width = 920;
}
);
note = uni4E08;
unicode = 4E08;
}
{
glyphname = uni4E09;
layers = (
{
layerId = "A8B8C001-3175-4DE2-BFCE-CA439A51AAC8";
paths = (
{
closed = 1;
nodes = (
"66 24 LINE",
"860 69 LINE",
"855 162 LINE",
"61 117 LINE"
);
},
{
closed = 1;
nodes = (
"200 324 LINE",
"706 355 LINE",
"700 450 LINE",
"195 417 LINE"
);
},
{
closed = 1;
nodes = (
"767 567 LINE",
"772 661 LINE",
"145 696 LINE",
"140 602 LINE"
);
}
);
width = 920;
}
);
note = uni4E09;
unicode = 4E09;
}
{
glyphname = uni4E0A;
layers = (
{
layerId = "A8B8C001-3175-4DE2-BFCE-CA439A51AAC8";
paths = (
{
closed = 1;
nodes = (
"55 -21 LINE",
"868 2 LINE",
"866 96 LINE",
"498 85 LINE",
"483 402 LINE",
"773 449 LINE",
"758 542 LINE",
"478 498 LINE",
"467 740 LINE",
"372 736 LINE",
"404 82 LINE",
"52 72 LINE"
);
}
);
width = 920;
}
);
note = uni4E0A;
unicode = 4E0A;
}
{
glyphname = uni4E0B;
layers = (
{
layerId = "A8B8C001-3175-4DE2-BFCE-CA439A51AAC8";
paths = (
{
closed = 1;
nodes = (
"458 -25 LINE",
"497 639 LINE",
"870 650 LINE",
"866 743 LINE",
"50 720 LINE",
"53 626 LINE",
"401 636 LINE",
"363 -20 LINE"
);
},
{
closed = 1;
nodes = (
"756 212 LINE",
"823 278 LINE",
"601 500 LINE",
"535 432 LINE"
);
}
);
width = 920;
}
);
note = uni4E0B;
unicode = 4E0B;
}
{
glyphname = uni4E0C;
layers = (
{
layerId = "A8B8C001-3175-4DE2-BFCE-CA439A51AAC8";
paths = (
{
closed = 1;
nodes = (
"690 23 LINE",
"724 610 LINE",
"820 615 LINE",
"817 708 LINE",
"99 677 LINE",
"103 583 LINE",
"270 590 LINE",
"287 245 LINE",
"123 76 LINE",
"190 10 LINE",
"368 193 LINE",
"382 228 LINE",
"365 594 LINE",
"630 606 LINE",
"597 28 LINE"
);
}
);
width = 920;
}
);
note = uni4E0C;
unicode = 4E0C;
}
{
glyphname = uni4E0D;
layers = (
{
layerId = "A8B8C001-3175-4DE2-BFCE-CA439A51AAC8";
paths = (
{
closed = 1;
nodes = (
"77 645 LINE",
"460 654 LINE",
"42 220 LINE",
"110 155 LINE",
"435 492 LINE",
"401 -31 LINE",
"495 -37 LINE",
"517 314 LINE",
"845 194 LINE",
"877 281 LINE",
"523 413 LINE",
"528 489 LINE",
"437 495 LINE",
"595 658 LINE",
"852 664 LINE",
"850 758 LINE",
"75 739 LINE"
);
}
);
width = 920;
}
);
note = uni4E0D;
unicode = 4E0D;
}
{
glyphname = uni4E0E;
layers = (
{
layerId = "A8B8C001-3175-4DE2-BFCE-CA439A51AAC8";
paths = (
{
closed = 1;
nodes = (
"823 595 LINE",
"815 690 LINE",
"253 642 LINE",
"273 771 LINE",
"179 786 LINE",
"118 386 LINE",
"168 331 LINE",
"753 377 LINE",
"729 89 LINE",
"518 24 LINE",
"547 -66 LINE",
"787 7 LINE",
"820 49 LINE",
"852 425 LINE",
"800 475 LINE",
"220 430 LINE",
"238 546 LINE"
);
},
{
closed = 1;
nodes = (
"667 174 LINE",
"645 265 LINE",
"69 127 LINE",
"92 36 LINE"
);
}
);
width = 920;
}
);
note = uni4E0E;
unicode = 4E0E;
}
{
glyphname = uni4E10;
layers = (
{
layerId = "A8B8C001-3175-4DE2-BFCE-CA439A51AAC8";
paths = (
{
closed = 1;
nodes = (
"726 -39 LINE",
"777 -3 LINE",
"837 283 LINE",
"790 341 LINE",
"201 318 LINE",
"220 506 LINE",
"126 516 LINE",
"102 273 LINE",
"151 222 LINE",
"733 244 LINE",
"693 58 LINE",
"411 89 LINE",
"400 -4 LINE"
);
},
{
closed = 1;
nodes = (
"487 377 LINE",
"492 462 LINE",
"783 479 LINE",
"777 573 LINE",
"497 555 LINE",
"502 647 LINE",
"835 664 LINE",
"830 758 LINE",
"82 722 LINE",
"87 627 LINE",
"407 643 LINE",
"392 382 LINE"
);
}
);
width = 920;
}
);
note = uni4E10;
unicode = 4E10;
}
{
glyphname = uni4E11;
layers = (
{
layerId = "A8B8C001-3175-4DE2-BFCE-CA439A51AAC8";
paths = (
{
closed = 1;
nodes = (
"834 648 LINE",
"791 708 LINE",
"152 753 LINE",
"146 659 LINE",
"334 645 LINE",
"308 370 LINE",
"157 348 LINE",
"171 255 LINE",
"298 274 LINE",
"279 75 LINE",
"56 62 LINE",
"62 -33 LINE",
"865 15 LINE",
"859 109 LINE",
"671 98 LINE"
);
},
{
closed = 1;
nodes = (
"726 618 LINE",
"668 424 LINE",
"404 385 LINE",
"429 639 LINE"
);
},
{
closed = 1;
nodes = (
"395 288 LINE",
"639 325 LINE",
"570 92 LINE",
"374 80 LINE"
);
}
);
width = 920;
}
);
note = uni4E11;
unicode = 4E11;
}
{
glyphname = uni4E13;
layers = (
{
layerId = "A8B8C001-3175-4DE2-BFCE-CA439A51AAC8";
paths = (
{
closed = 1;
nodes = (
"759 201 LINE",
"729 285 LINE",
"295 300 LINE",
"339 385 LINE",
"864 376 LINE",
"865 471 LINE",
"387 480 LINE",
"444 591 LINE",
"754 560 LINE",
"763 654 LINE",
"491 681 LINE",
"530 758 LINE",
"446 801 LINE",
"390 691 LINE",
"153 715 LINE",
"143 621 LINE",
"344 601 LINE",
"283 482 LINE",
"56 486 LINE",
"55 391 LINE",
"235 387 LINE",
"178 276 LINE",
"218 208 LINE",
"605 195 LINE",
"465 74 LINE",
"293 151 LINE",
"254 65 LINE",
"583 -82 LINE",
"621 4 LINE",
"560 31 LINE"
);
}
);
width = 920;
}
);
note = uni4E13;
unicode = 4E13;
}
{
glyphname = uni4E14;
layers = (
{
layerId = "A8B8C001-3175-4DE2-BFCE-CA439A51AAC8";
paths = (
{
closed = 1;
nodes = (
"140 199 LINE",
"199 203 LINE",
"211 70 LINE",
"56 62 LINE",
"60 -33 LINE",
"865 8 LINE",
"860 103 LINE",
"731 96 LINE",
"747 704 LINE",
"700 753 LINE",
"202 753 LINE",
"156 702 LINE",
"191 297 LINE",
"134 294 LINE"
);
},
{
closed = 1;
nodes = (
"582 228 LINE",
"577 322 LINE",
"285 303 LINE",
"272 450 LINE",
"646 436 LINE",
"636 91 LINE",
"305 75 LINE",
"293 209 LINE"
);
},
{
closed = 1;
nodes = (
"652 659 LINE",
"648 530 LINE",
"264 545 LINE",
"255 659 LINE"
);
}
);
width = 920;
}
);
note = uni4E14;
unicode = 4E14;
}
{
glyphname = uni4E15;
layers = (
{
layerId = "A8B8C001-3175-4DE2-BFCE-CA439A51AAC8";
paths = (
{
closed = 1;
nodes = (
"821 -37 LINE",
"824 56 LINE",
"514 64 LINE",
"499 559 LINE",
"421 593 LINE",
"69 289 LINE",
"130 218 LINE",
"407 458 LINE",
"419 67 LINE",
"100 76 LINE",
"97 -17 LINE"
);
},
{
closed = 1;
nodes = (
"54 595 LINE",
"875 663 LINE",
"867 756 LINE",
"46 689 LINE"
);
},
{
closed = 1;
nodes = (
"777 278 LINE",
"824 360 LINE",
"572 501 LINE",
"526 419 LINE"
);
}
);
width = 920;
}
);
note = uni4E15;
unicode = 4E15;
}
{
glyphname = uni4E16;
layers = (
{
layerId = "A8B8C001-3175-4DE2-BFCE-CA439A51AAC8";
paths = (
{
closed = 1;
nodes = (
"449 171 LINE",
"708 182 LINE",
"753 235 LINE",
"726 507 LINE",
"872 524 LINE",
"860 617 LINE",
"717 600 LINE",
"704 730 LINE",
"610 721 LINE",
"623 589 LINE",
"482 572 LINE",
"477 725 LINE",
"383 722 LINE",
"388 561 LINE",
"240 544 LINE",
"247 737 LINE",
"152 741 LINE",
"144 533 LINE",
"49 522 LINE",
"60 430 LINE",
"141 439 LINE",
"127 51 LINE",
"172 1 LINE",
"829 -21 LINE",
"832 72 LINE",
"223 94 LINE",
"236 450 LINE",
"391 468 LINE",
"399 216 LINE"
);
},
{
closed = 1;
nodes = (
"654 275 LINE",
"492 267 LINE",
"485 479 LINE",
"632 496 LINE"
);
}
);
width = 920;
}
);
note = uni4E16;
unicode = 4E16;
}
{
glyphname = uni4E18;
layers = (
{
layerId = "A8B8C001-3175-4DE2-BFCE-CA439A51AAC8";
paths = (
{
closed = 1;
nodes = (
"69 -41 LINE",
"855 -5 LINE",
"852 89 LINE",
"640 79 LINE",
"671 377 LINE",
"775 379 LINE",
"774 472 LINE",
"248 465 LINE",
"238 557 LINE",
"770 667 LINE",
"752 760 LINE",
"177 641 LINE",
"139 589 LINE",
"202 58 LINE",
"64 52 LINE"
);
},
{
closed = 1;
nodes = (
"259 370 LINE",
"576 375 LINE",
"544 74 LINE",
"295 63 LINE"
);
}
);
width = 920;
}
);
note = uni4E18;
unicode = 4E18;
}
{
glyphname = uni4E19;
layers = (
{
layerId = "A8B8C001-3175-4DE2-BFCE-CA439A51AAC8";
paths = (
{
closed = 1;
nodes = (
"79 640 LINE",
"416 654 LINE",
"382 539 LINE",
"138 545 LINE",
"89 497 LINE",
"89 1 LINE",
"184 1 LINE",
"184 450 LINE",
"354 446 LINE",
"254 106 LINE",
"345 80 LINE",
"414 312 LINE",
"554 190 LINE",
"616 261 LINE",
"443 412 LINE",
"452 443 LINE",
"746 437 LINE",
"708 55 LINE",
"575 76 LINE",
"561 -18 LINE",
"741 -46 LINE",
"796 -4 LINE",
"845 479 LINE",
"799 531 LINE",
"480 537 LINE",
"516 658 LINE",
"816 671 LINE",
"813 765 LINE",
"75 735 LINE"
);
}
);
width = 920;
}
);
note = uni4E19;
unicode = 4E19;
}
{
glyphname = uni4E1A;
layers = (
{
layerId = "A8B8C001-3175-4DE2-BFCE-CA439A51AAC8";
paths = (
{
closed = 1;
nodes = (
"649 764 LINE",
"555 768 LINE",
"525 63 LINE",
"380 58 LINE",
"334 756 LINE",
"239 750 LINE",
"285 55 LINE",
"41 48 LINE",
"44 -47 LINE",
"875 -21 LINE",
"872 74 LINE",
"620 66 LINE"
);
},
{
closed = 1;
nodes = (
"879 544 LINE",
"790 575 LINE",
"649 171 LINE",
"739 140 LINE"
);
},
{
closed = 1;
nodes = (
"264 221 LINE",
"129 533 LINE",
"42 495 LINE",
"177 184 LINE"
);
}
);
width = 920;
}
);
note = uni4E1A;
unicode = 4E1A;
}
{
glyphname = uni4E1B;
layers = (
{
layerId = "A8B8C001-3175-4DE2-BFCE-CA439A51AAC8";
paths = (
{
closed = 1;
nodes = (
"744 716 LINE",
"660 758 LINE",
"347 147 LINE",
"432 103 LINE",
"599 431 LINE",
"787 172 LINE",
"864 227 LINE",
"647 525 LINE"
);
},
{
closed = 1;
nodes = (
"875 -8 LINE",
"871 84 LINE",
"104 54 LINE",
"107 -39 LINE"
);
},
{
closed = 1;
nodes = (
"345 703 LINE",
"256 736 LINE",
"46 169 LINE",
"135 137 LINE",
"227 386 LINE",
"340 328 LINE",
"384 412 LINE",
"261 476 LINE"
);
}
);
width = 920;
}
);
note = uni4E1B;
unicode = 4E1B;
}
{
glyphname = uni4E1C;
layers = (
{
layerId = "A8B8C001-3175-4DE2-BFCE-CA439A51AAC8";
paths = (
{
closed = 1;
nodes = (
"840 310 LINE",
"835 405 LINE",
"524 386 LINE",
"510 526 LINE",
"416 516 LINE",
"430 380 LINE",
"237 368 LINE",
"366 592 LINE",
"840 613 LINE",
"835 708 LINE",
"421 688 LINE",
"451 740 LINE",
"369 788 LINE",
"309 683 LINE",
"47 671 LINE",
"51 578 LINE",
"254 587 LINE",
"112 339 LINE",
"156 269 LINE",
"440 286 LINE",
"462 76 LINE",
"317 19 LINE",
"352 -67 LINE",
"530 1 LINE",
"560 50 LINE",
"534 291 LINE"
);
},
{
closed = 1;
nodes = (
"336 183 LINE",
"269 248 LINE",
"36 8 LINE",
"104 -57 LINE"
);
},
{
closed = 1;
nodes = (
"884 34 LINE",
"697 243 LINE",
"627 180 LINE",
"812 -29 LINE"
);
}
);
width = 920;
}
);
note = uni4E1C;
unicode = 4E1C;
}
{
glyphname = uni4E1D;
layers = (
{
layerId = "A8B8C001-3175-4DE2-BFCE-CA439A51AAC8";
paths = (
{
closed = 1;
nodes = (
"872 173 LINE",
"856 266 LINE",
"621 223 LINE",
"841 561 LINE",
"762 612 LINE",
"674 477 LINE",
"586 492 LINE",
"736 709 LINE",
"658 763 LINE",
"467 484 LINE",
"497 412 LINE",
"618 391 LINE",
"482 182 LINE",
"529 111 LINE"
);
},
{
closed = 1;
nodes = (
"451 182 LINE",
"428 274 LINE",
"232 227 LINE",
"454 561 LINE",
"377 613 LINE",
"284 474 LINE",
"167 511 LINE",
"324 702 LINE",
"251 762 LINE",
"49 516 LINE",
"72 441 LINE",
"229 392 LINE",
"86 178 LINE",
"137 107 LINE"
);
},
{
closed = 1;
nodes = (
"882 49 LINE",
"39 56 LINE",
"38 -39 LINE",
"882 -44 LINE"
);
}
);
width = 920;
}
);
note = uni4E1D;
unicode = 4E1D;
}
{
glyphname = uni4E1E;
layers = (
{
layerId = "A8B8C001-3175-4DE2-BFCE-CA439A51AAC8";
paths = (
{
closed = 1;
nodes = (
"349 82 LINE",
"524 129 LINE",
"558 180 LINE",
"525 452 LINE",
"528 456 LINE",
"780 145 LINE",
"854 204 LINE",
"708 383 LINE",
"866 479 LINE",
"819 560 LINE",
"648 457 LINE",
"591 527 LINE",
"718 671 LINE",
"685 749 LINE",
"216 780 LINE",
"210 686 LINE",
"584 661 LINE",
"440 500 LINE",
"429 462 LINE",
"460 210 LINE",
"325 174 LINE"
);
},
{
closed = 1;
nodes = (
"96 -61 LINE",
"870 -18 LINE",
"864 77 LINE",
"91 31 LINE"
);
},
{
closed = 1;
nodes = (
"179 122 LINE",
"361 410 LINE",
"338 480 LINE",
"83 572 LINE",
"50 484 LINE",
"250 411 LINE",
"99 172 LINE"
);
}
);
width = 920;
}
);
note = uni4E1E;
unicode = 4E1E;
}
{
glyphname = uni4E22;
layers = (
{
layerId = "A8B8C001-3175-4DE2-BFCE-CA439A51AAC8";
paths = (
{
closed = 1;
nodes = (
"882 279 LINE",
"875 373 LINE",
"514 344 LINE",
"510 431 LINE",
"793 442 LINE",
"790 537 LINE",
"507 526 LINE",
"503 635 LINE",
"800 669 LINE",
"790 763 LINE",
"86 682 LINE",
"97 588 LINE",
"408 624 LINE",
"412 523 LINE",
"143 513 LINE",
"147 418 LINE",
"416 428 LINE",
"420 336 LINE",
"37 306 LINE",
"45 212 LINE",
"323 234 LINE",
"92 46 LINE",
"126 -38 LINE",
"719 17 LINE",
"740 -44 LINE",
"828 -16 LINE",
"746 229 LINE",
"657 199 LINE",
"688 109 LINE",
"271 71 LINE",
"487 247 LINE"
);
}
);
width = 920;
}
);
note = uni4E22;
unicode = 4E22;
}
{
glyphname = uni4E24;
layers = (
{
layerId = "A8B8C001-3175-4DE2-BFCE-CA439A51AAC8";
paths = (
{
closed = 1;
nodes = (
"772 239 LINE",
"595 398 LINE",
"604 454 LINE",
"780 444 LINE",
"780 89 LINE",
"618 38 LINE",
"645 -52 LINE",
"842 10 LINE",
"875 55 LINE",
"875 489 LINE",
"830 535 LINE",
"621 546 LINE",
"644 679 LINE",
"798 679 LINE",
"798 773 LINE",
"124 773 LINE",
"124 679 LINE",
"282 679 LINE",
"263 566 LINE",
"93 576 LINE",
"44 529 LINE",
"59 -36 LINE",
"153 -34 LINE",
"139 480 LINE",
"248 474 LINE",
"193 150 LINE",
"287 134 LINE",
"307 256 LINE",
"397 146 LINE",
"465 202 LINE",
"448 105 LINE",
"540 89 LINE",
"575 288 LINE",
"709 169 LINE"
);
},
{
closed = 1;
nodes = (
"342 468 LINE",
"510 459 LINE",
"466 210 LINE",
"328 381 LINE"
);
},
{
closed = 1;
nodes = (
"377 679 LINE",
"549 679 LINE",
"527 552 LINE",
"358 561 LINE"
);
}
);
width = 920;
}
);
note = uni4E24;
unicode = 4E24;
}
{
glyphname = uni4E25;
layers = (
{
layerId = "A8B8C001-3175-4DE2-BFCE-CA439A51AAC8";
paths = (
{
closed = 1;
nodes = (
"650 688 LINE",
"648 688 LINE",
"858 699 LINE",
"853 793 LINE",
"122 756 LINE",
"127 661 LINE",
"305 670 LINE",
"324 397 LINE",
"185 399 LINE",
"137 350 LINE",
"144 103 LINE",
"44 -10 LINE",
"115 -72 LINE",
"227 54 LINE",
"239 86 LINE",
"233 304 LINE",
"864 296 LINE",
"865 390 LINE",
"782 391 LINE",
"877 603 LINE",
"792 641 LINE",
"679 392 LINE",
"614 393 LINE"
);
},
{
closed = 1;
nodes = (
"399 675 LINE",
"555 683 LINE",
"519 394 LINE",
"417 396 LINE"
);
},
{
closed = 1;
nodes = (
"302 503 LINE",
"210 623 LINE",
"135 565 LINE",
"228 445 LINE"
);
}
);
width = 920;
}
);
note = uni4E25;
unicode = 4E25;
}
{
glyphname = uni4E27;
layers = (
{
layerId = "A8B8C001-3175-4DE2-BFCE-CA439A51AAC8";
paths = (
{
closed = 1;
nodes = (
"885 342 LINE",
"876 436 LINE",
"712 421 LINE",
"758 546 LINE",
"670 578 LINE",
"609 411 LINE",
"524 403 LINE",
"517 602 LINE",
"792 612 LINE",
"790 707 LINE",
"513 697 LINE",
"510 788 LINE",
"415 785 LINE",
"418 694 LINE",
"112 683 LINE",
"116 588 LINE",
"422 599 LINE",
"429 394 LINE",
"345 386 LINE",
"255 538 LINE",
"173 491 LINE",
"240 377 LINE",
"27 357 LINE",
"36 263 LINE",
"202 278 LINE",
"153 -15 LINE",
"212 -68 LINE",
"471 2 LINE",
"446 92 LINE",
"258 41 LINE",
"299 287 LINE",
"486 305 LINE",
"773 -70 LINE",
"848 -14 LINE",
"751 114 LINE",
"892 230 LINE",
"833 303 LINE",
"693 189 LINE",
"597 315 LINE"
);
}
);
width = 920;
}
);
note = uni4E27;
unicode = 4E27;
}
{
glyphname = uni4E28;
layers = (
{
layerId = "A8B8C001-3175-4DE2-BFCE-CA439A51AAC8";
paths = (
{
closed = 1;
nodes = (
"499 48 LINE",
"515 669 LINE",
"422 671 LINE",
"404 50 LINE"
);
}
);
width = 920;
}
);
note = uni4E28;
unicode = 4E28;
}
{
glyphname = uni4E2A;
layers = (
{
layerId = "A8B8C001-3175-4DE2-BFCE-CA439A51AAC8";
paths = (
{
closed = 1;
nodes = (
"562 717 LINE",
"498 786 LINE",
"33 355 LINE",
"97 286 LINE",
"407 573 LINE",
"842 334 LINE",
"887 416 LINE",
"479 641 LINE"
);
},
{
closed = 1;
nodes = (
"514 430 LINE",
"419 437 LINE",
"379 -59 LINE",
"473 -66 LINE"
);
}
);
width = 920;
}
);
note = uni4E2A;
unicode = 4E2A;
}
{
glyphname = uni4E2B;
layers = (
{
layerId = "A8B8C001-3175-4DE2-BFCE-CA439A51AAC8";
paths = (
{
closed = 1;
nodes = (
"540 439 LINE",
"822 693 LINE",
"758 763 LINE",
"477 510 LINE"
);
},
{
closed = 1;
nodes = (
"397 -42 LINE",
"491 -40 LINE",
"480 434 LINE",
"386 431 LINE"
);
},
{
closed = 1;
nodes = (
"330 460 LINE",
"392 531 LINE",
"158 734 LINE",
"97 663 LINE"
);
}
);
width = 920;
}
);
note = uni4E2B;
unicode = 4E2B;
}
{
glyphname = uni4E2C;
layers = (
{
layerId = "A8B8C001-3175-4DE2-BFCE-CA439A51AAC8";
paths = (
{
closed = 1;
nodes = (
"668 -46 LINE",
"665 765 LINE",
"570 764 LINE",
"572 363 LINE",
"570 366 LINE",
"252 110 LINE",
"308 35 LINE",
"536 217 LINE",
"573 246 LINE",
"575 -46 LINE"
);
},
{
closed = 1;
nodes = (
"551 546 LINE",
"378 671 LINE",
"322 595 LINE",
"495 470 LINE"
);
}
);
width = 920;
}
);
note = uni4E2C;
unicode = 4E2C;
}
{
glyphname = uni4E2D;
layers = (
{
layerId = "A8B8C001-3175-4DE2-BFCE-CA439A51AAC8";
paths = (
{
closed = 1;
nodes = (
"201 142 LINE",
"423 170 LINE",
"420 -44 LINE",
"513 -45 LINE",
"517 182 LINE",
"742 210 LINE",
"782 245 LINE",
"858 533 LINE",
"812 592 LINE",
"524 587 LINE",
"527 762 LINE",
"432 763 LINE",
"429 586 LINE",
"107 581 LINE",
"62 522 LINE",
"150 177 LINE"
);
},
{
closed = 1;
nodes = (
"168 487 LINE",
"428 491 LINE",
"424 264 LINE",
"231 241 LINE"
);
},
{
closed = 1;
nodes = (
"751 497 LINE",
"700 298 LINE",
"518 276 LINE",
"522 493 LINE"
);
}
);
width = 920;
}
);
note = uni4E2D;
unicode = 4E2D;
}
{
glyphname = uni4E30;
layers = (
{
layerId = "A8B8C001-3175-4DE2-BFCE-CA439A51AAC8";
paths = (
{
closed = 1;
nodes = (
"880 155 LINE",
"504 157 LINE",
"514 332 LINE",
"756 347 LINE",
"751 441 LINE",
"520 428 LINE",
"529 588 LINE",
"800 591 LINE",
"799 685 LINE",
"535 683 LINE",
"541 781 LINE",
"447 786 LINE",
"441 682 LINE",
"100 679 LINE",
"101 584 LINE",
"435 587 LINE",
"425 422 LINE",
"155 407 LINE",
"161 312 LINE",
"420 327 LINE",
"410 158 LINE",
"42 160 LINE",
"41 65 LINE",
"404 63 LINE",
"397 -60 LINE",
"491 -66 LINE",
"498 62 LINE",
"880 60 LINE"
);
}
);
width = 920;
}
);
note = uni4E30;
unicode = 4E30;
}
{
glyphname = uni4E32;
layers = (
{
layerId = "A8B8C001-3175-4DE2-BFCE-CA439A51AAC8";
paths = (
{
closed = 1;
nodes = (
"213 400 LINE",
"428 403 LINE",
"426 325 LINE",
"128 322 LINE",
"82 270 LINE",
"101 38 LINE",
"150 -5 LINE",
"414 2 LINE",
"412 -55 LINE",
"506 -58 LINE",
"508 4 LINE",
"787 12 LINE",
"833 58 LINE",
"838 283 LINE",
"791 330 LINE",
"520 326 LINE",
"523 404 LINE",
"731 407 LINE",
"777 455 LINE",
"775 634 LINE",
"728 680 LINE",
"533 681 LINE",
"537 774 LINE",
"442 778 LINE",
"438 682 LINE",
"208 684 LINE",
"161 635 LINE",
"165 445 LINE"
);
},
{
closed = 1;
nodes = (
"181 228 LINE",
"422 231 LINE",
"417 96 LINE",
"191 90 LINE"
);
},
{
closed = 1;
nodes = (
"742 235 LINE",
"740 104 LINE",
"512 98 LINE",
"517 232 LINE"
);
},
{
closed = 1;
nodes = (
"256 589 LINE",
"435 588 LINE",
"432 497 LINE",
"258 495 LINE"
);
},
{
closed = 1;
nodes = (
"681 587 LINE",
"682 500 LINE",
"527 498 LINE",
"530 587 LINE"
);
}
);
width = 920;
}
);
note = uni4E32;
unicode = 4E32;
}
{
glyphname = uni4E34;
layers = (
{
layerId = "A8B8C001-3175-4DE2-BFCE-CA439A51AAC8";
paths = (
{
closed = 1;
nodes = (
"834 -21 LINE",
"885 306 LINE",
"837 361 LINE",
"378 341 LINE",
"333 287 LINE",
"377 -14 LINE",
"423 -56 LINE",
"787 -59 LINE"
);
},
{
closed = 1;
nodes = (
"839 573 LINE",
"837 668 LINE",
"496 658 LINE",
"529 744 LINE",
"440 778 LINE",
"304 417 LINE",
"393 383 LINE",
"460 562 LINE",
"508 563 LINE",
"688 387 LINE",
"754 453 LINE",
"638 567 LINE"
);
},
{
closed = 1;
nodes = (
"299 -46 LINE",
"279 766 LINE",
"185 763 LINE",
"204 -48 LINE"
);
},
{
closed = 1;
nodes = (
"139 603 LINE",
"45 606 LINE",
"34 99 LINE",
"128 97 LINE"
);
},
{
closed = 1;
nodes = (
"434 248 LINE",
"579 254 LINE",
"559 36 LINE",
"464 38 LINE"
);
},
{
closed = 1;
nodes = (
"783 263 LINE",
"747 34 LINE",
"653 35 LINE",
"674 258 LINE"
);
}
);
width = 920;
}
);
note = uni4E34;
unicode = 4E34;
}
{
glyphname = uni4E36;
layers = (
{
layerId = "A8B8C001-3175-4DE2-BFCE-CA439A51AAC8";
paths = (
{
closed = 1;
nodes = (
"494 209 LINE",
"575 256 LINE",
"425 511 LINE",
"344 464 LINE"
);
}
);
width = 920;
}
);
note = uni4E36;
unicode = 4E36;
}
{
glyphname = uni4E38;
layers = (
{
layerId = "A8B8C001-3175-4DE2-BFCE-CA439A51AAC8";
paths = (
{
closed = 1;
nodes = (
"806 -31 LINE",
"863 44 LINE",
"711 162 LINE",
"805 527 LINE",
"763 586 LINE",
"405 618 LINE",
"432 745 LINE",
"341 765 LINE",
"311 627 LINE",
"128 644 LINE",
"120 550 LINE",
"292 534 LINE",
"261 387 LINE",
"158 440 LINE",
"116 355 LINE",
"240 291 LINE",
"213 161 LINE",
"57 24 LINE",
"120 -46 LINE",
"287 101 LINE",
"302 127 LINE",
"327 247 LINE",
"466 177 LINE",
"508 262 LINE",
"347 343 LINE",
"386 526 LINE",
"700 497 LINE",
"611 155 LINE",
"628 106 LINE"
);
}
);
width = 920;
}
);
note = uni4E38;
unicode = 4E38;
}
{
glyphname = uni4E39;
layers = (
{
layerId = "A8B8C001-3175-4DE2-BFCE-CA439A51AAC8";
paths = (
{
closed = 1;
nodes = (
"25 312 LINE",
"147 316 LINE",
"115 -60 LINE",
"210 -68 LINE",
"244 319 LINE",
"677 333 LINE",
"688 54 LINE",
"551 99 LINE",
"521 9 LINE",
"723 -57 LINE",
"786 -10 LINE",
"772 336 LINE",
"898 340 LINE",
"896 435 LINE",
"768 431 LINE",
"755 743 LINE",
"705 788 LINE",
"228 768 LINE",
"183 724 LINE",
"156 411 LINE",
"22 407 LINE"
);
},
{
closed = 1;
nodes = (
"275 675 LINE",
"662 692 LINE",
"673 428 LINE",
"252 414 LINE"
);
},
{
closed = 1;
nodes = (
"461 433 LINE",
"542 482 LINE",
"455 629 LINE",
"373 580 LINE"
);
}
);
width = 920;
}
);
note = uni4E39;
unicode = 4E39;
}
{
glyphname = uni4E3A;
layers = (
{
layerId = "A8B8C001-3175-4DE2-BFCE-CA439A51AAC8";
paths = (
{
closed = 1;
nodes = (
"580 736 LINE",
"498 780 LINE",
"371 541 LINE",
"76 526 LINE",
"81 431 LINE",
"319 443 LINE",
"75 -15 LINE",
"158 -58 LINE",
"427 449 LINE",
"744 466 LINE",
"688 35 LINE",
"524 52 LINE",
"515 -40 LINE",
"724 -61 LINE",
"775 -23 LINE",
"845 511 LINE",
"795 564 LINE",
"479 547 LINE"
);
},
{
closed = 1;
nodes = (
"650 176 LINE",
"516 365 LINE",
"439 311 LINE",
"573 122 LINE"
);
},
{
closed = 1;
nodes = (
"310 595 LINE",
"230 755 LINE",
"145 712 LINE",
"226 552 LINE"
);
}
);
width = 920;
}
);
note = uni4E3A;
unicode = 4E3A;
}
{
glyphname = uni4E3B;
layers = (
{
layerId = "A8B8C001-3175-4DE2-BFCE-CA439A51AAC8";
paths = (
{
closed = 1;
nodes = (
"47 -60 LINE",
"880 -10 LINE",
"874 85 LINE",
"488 61 LINE",
"500 277 LINE",
"759 272 LINE",
"760 367 LINE",
"505 371 LINE",
"515 563 LINE",
"832 556 LINE",
"835 650 LINE",
"505 658 LINE",
"447 780 LINE",
"362 738 LINE",
"399 660 LINE",
"76 668 LINE",
"74 573 LINE",
"421 565 LINE",
"410 372 LINE",
"149 377 LINE",
"147 283 LINE",
"405 278 LINE",
"393 55 LINE",
"41 33 LINE"
);
}
);
width = 920;
}
);
note = uni4E3B;
unicode = 4E3B;
}
{
glyphname = uni4E3D;
layers = (
{
layerId = "A8B8C001-3175-4DE2-BFCE-CA439A51AAC8";
paths = (
{
closed = 1;
nodes = (
"427 51 LINE",
"442 88 LINE",
"429 528 LINE",
"380 574 LINE",
"184 568 LINE",
"187 606 LINE",
"94 613 LINE",
"46 -9 LINE",
"140 -16 LINE",
"160 255 LINE",
"287 211 LINE",
"317 301 LINE",
"168 352 LINE",
"177 474 LINE",
"336 478 LINE",
"347 106 LINE",
"254 21 LINE",
"316 -47 LINE"
);
},
{
closed = 1;
nodes = (
"836 25 LINE",
"859 68 LINE",
"835 574 LINE",
"780 618 LINE",
"531 575 LINE",
"492 530 LINE",
"475 -9 LINE",
"569 -12 LINE",
"577 245 LINE",
"710 216 LINE",
"730 309 LINE",
"580 341 LINE",
"585 489 LINE",
"744 516 LINE",
"764 91 LINE",
"687 48 LINE",
"736 -32 LINE"
);
},
{
closed = 1;
nodes = (
"874 749 LINE",
"70 766 LINE",
"69 673 LINE",
"871 655 LINE"
);
}
);
width = 920;
}
);
note = uni4E3D;
unicode = 4E3D;
}
{
glyphname = uni4E3E;
layers = (
{
layerId = "A8B8C001-3175-4DE2-BFCE-CA439A51AAC8";
paths = (
{
closed = 1;
nodes = (
"860 499 LINE",
"857 593 LINE",
"686 586 LINE",
"832 730 LINE",
"765 796 LINE",
"600 633 LINE",
"646 585 LINE",
"333 573 LINE",
"237 734 LINE",
"155 685 LINE",
"225 569 LINE",
"62 563 LINE",
"65 469 LINE",
"244 476 LINE",
"29 246 LINE",
"98 181 LINE",
"379 481 LINE",
"545 487 LINE",
"829 244 LINE",
"890 315 LINE",
"683 492 LINE"
);
},
{
closed = 1;
nodes = (
"835 120 LINE",
"511 133 LINE",
"507 237 LINE",
"709 236 LINE",
"710 331 LINE",
"503 332 LINE",
"500 399 LINE",
"407 395 LINE",
"409 333 LINE",
"253 335 LINE",
"252 240 LINE",
"413 238 LINE",
"418 137 LINE",
"138 148 LINE",
"134 54 LINE",
"422 42 LINE",
"427 -77 LINE",
"520 -74 LINE",
"515 38 LINE",
"832 25 LINE"
);
},
{
closed = 1;
nodes = (
"505 625 LINE",
"450 751 LINE",
"364 713 LINE",
"419 588 LINE"
);
}
);
width = 920;
}
);
note = uni4E3E;
unicode = 4E3E;
}
{
glyphname = uni4E3F;
layers = (
{
layerId = "A8B8C001-3175-4DE2-BFCE-CA439A51AAC8";
paths = (
{
closed = 1;
nodes = (
"400 -12 LINE",
"591 268 LINE",
"598 301 LINE",
"533 731 LINE",
"440 718 LINE",
"503 305 LINE",
"322 41 LINE"
);
}
);
width = 920;
}
);
note = uni4E3F;
unicode = 4E3F;
}
{
glyphname = uni4E43;
layers = (
{
layerId = "A8B8C001-3175-4DE2-BFCE-CA439A51AAC8";
paths = (
{
closed = 1;
nodes = (
"158 -36 LINE",
"396 660 LINE",
"638 660 LINE",
"544 420 LINE",
"580 356 LINE",
"750 327 LINE",
"710 72 LINE",
"518 134 LINE",
"489 44 LINE",
"733 -34 LINE",
"794 4 LINE",
"852 359 LINE",
"813 412 LINE",
"653 440 LINE",
"750 691 LINE",
"707 755 LINE",
"137 755 LINE",
"137 661 LINE",
"295 660 LINE",
"69 -5 LINE"
);
}
);
width = 920;
}
);
note = uni4E43;
unicode = 4E43;
}
{
glyphname = uni4E45;
layers = (
{
layerId = "A8B8C001-3175-4DE2-BFCE-CA439A51AAC8";
paths = (
{
closed = 1;
nodes = (
"195 401 LINE",
"278 572 LINE",
"696 546 LINE",
"696 478 LINE",
"67 28 LINE",
"122 -47 LINE",
"429 172 LINE",
"811 -21 LINE",
"853 64 LINE",
"516 234 LINE",
"770 415 LINE",
"790 453 LINE",
"791 590 LINE",
"747 638 LINE",
"322 664 LINE",
"352 726 LINE",
"267 768 LINE",
"110 443 LINE"
);
}
);
width = 920;
}
);
note = uni4E45;
unicode = 4E45;
}
{
glyphname = uni4E47;
layers = (
{
layerId = "A8B8C001-3175-4DE2-BFCE-CA439A51AAC8";
paths = (
{
closed = 1;
nodes = (
"185 628 LINE",
"381 648 LINE",
"348 377 LINE",
"31 353 LINE",
"39 259 LINE",
"336 282 LINE",
"307 45 LINE",
"349 -7 LINE",
"811 -62 LINE",
"822 30 LINE",
"406 80 LINE",
"432 289 LINE",
"889 325 LINE",
"881 419 LINE",
"444 385 LINE",
"477 658 LINE",
"764 689 LINE",
"754 783 LINE",
"175 721 LINE"
);
}
);
width = 920;
}
);
note = uni4E47;
unicode = 4E47;
}
{
glyphname = uni4E48;
layers = (
{
layerId = "A8B8C001-3175-4DE2-BFCE-CA439A51AAC8";
paths = (
{
closed = 1;
nodes = (
"865 -27 LINE",
"727 292 LINE",
"640 255 LINE",
"684 153 LINE",
"225 90 LINE",
"698 542 LINE",
"633 610 LINE",
"54 57 LINE",
"94 -24 LINE",
"723 63 LINE",
"779 -65 LINE"
);
},
{
closed = 1;
nodes = (
"503 720 LINE",
"433 783 LINE",
"60 375 LINE",
"130 311 LINE"
);
}
);
width = 920;
}
);
note = uni4E48;
unicode = 4E48;
}
{
glyphname = uni4E49;
layers = (
{
layerId = "A8B8C001-3175-4DE2-BFCE-CA439A51AAC8";
paths = (
{
closed = 1;
nodes = (
"826 17 LINE",
"502 335 LINE",
"855 703 LINE",
"787 768 LINE",
"435 400 LINE",
"147 683 LINE",
"82 616 LINE",
"370 333 LINE",
"66 16 LINE",
"134 -49 LINE",
"437 267 LINE",
"760 -50 LINE"
);
},
{
closed = 1;
nodes = (
"512 578 LINE",
"395 761 LINE",
"316 711 LINE",
"434 527 LINE"
);
}
);
width = 920;
}
);
note = uni4E49;
unicode = 4E49;
}
{
glyphname = uni4E4B;
layers = (
{
layerId = "A8B8C001-3175-4DE2-BFCE-CA439A51AAC8";
paths = (
{
closed = 1;
nodes = (
"124 -58 LINE",
"216 32 LINE",
"411 -55 LINE",
"443 -57 LINE",
"862 65 LINE",
"836 157 LINE",
"433 38 LINE",
"289 103 LINE",
"707 512 LINE",
"678 592 LINE",
"495 608 LINE",
"496 609 LINE",
"382 778 LINE",
"304 724 LINE",
"375 619 LINE",
"121 642 LINE",
"112 548 LINE",
"568 507 LINE",
"58 9 LINE"
);
}
);
width = 920;
}
);
note = uni4E4B;
unicode = 4E4B;
}
{
glyphname = uni4E4C;
layers = (
{
layerId = "A8B8C001-3175-4DE2-BFCE-CA439A51AAC8";
paths = (
{
closed = 1;
nodes = (
"639 114 LINE",
"619 205 LINE",
"81 95 LINE",
"100 2 LINE"
);
},
{
closed = 1;
nodes = (
"744 -58 LINE",
"840 286 LINE",
"792 346 LINE",
"249 330 LINE",
"305 530 LINE",
"215 556 LINE",
"140 294 LINE",
"186 234 LINE",
"731 250 LINE",
"664 6 LINE",
"370 41 LINE",
"359 -53 LINE",
"692 -91 LINE"
);
},
{
closed = 1;
nodes = (
"719 419 LINE",
"770 641 LINE",
"722 699 LINE",
"272 684 LINE",
"317 762 LINE",
"236 810 LINE",
"149 656 LINE",
"191 586 LINE",
"664 602 LINE",
"636 479 LINE",
"434 492 LINE",
"427 399 LINE",
"670 381 LINE"
);
}
);
width = 920;
}
);
note = uni4E4C;
unicode = 4E4C;
}
{
glyphname = uni4E4D;
layers = (
{
layerId = "A8B8C001-3175-4DE2-BFCE-CA439A51AAC8";
paths = (
{
closed = 1;
nodes = (
"149 336 LINE",
"210 515 LINE",
"313 526 LINE",
"293 -43 LINE",
"388 -46 LINE",
"394 135 LINE",
"825 135 LINE",
"825 229 LINE",
"397 229 LINE",
"400 335 LINE",
"842 371 LINE",
"834 465 LINE",
"404 430 LINE",
"407 536 LINE",
"862 584 LINE",
"852 677 LINE",
"243 614 LINE",
"284 735 LINE",
"194 766 LINE",
"59 366 LINE"
);
}
);
width = 920;
}
);
note = uni4E4D;
unicode = 4E4D;
}
{
glyphname = uni4E4E;
layers = (
{
layerId = "A8B8C001-3175-4DE2-BFCE-CA439A51AAC8";
paths = (
{
closed = 1;
nodes = (
"321 -52 LINE",
"512 21 LINE",
"542 69 LINE",
"535 161 LINE",
"826 150 LINE",
"830 245 LINE",
"528 257 LINE",
"504 574 LINE",
"690 588 LINE",
"720 601 LINE",
"822 704 LINE",
"756 771 LINE",
"665 681 LINE",
"159 644 LINE",
"166 549 LINE",
"409 567 LINE",
"433 260 LINE",
"321 265 LINE",
"376 304 LINE",
"225 521 LINE",
"147 466 LINE",
"287 266 LINE",
"95 274 LINE",
"91 179 LINE",
"440 165 LINE",
"446 96 LINE",
"286 34 LINE"
);
},
{
closed = 1;
nodes = (
"639 308 LINE",
"781 510 LINE",
"704 565 LINE",
"561 361 LINE"
);
}
);
width = 920;
}
);
note = uni4E4E;
unicode = 4E4E;
}
{
glyphname = uni4E4F;
layers = (
{
layerId = "A8B8C001-3175-4DE2-BFCE-CA439A51AAC8";
paths = (
{
closed = 1;
nodes = (
"859 -63 LINE",
"865 30 LINE",
"268 69 LINE",
"804 394 LINE",
"770 482 LINE",
"528 440 LINE",
"571 472 LINE",
"475 602 LINE",
"399 545 LINE",
"481 432 LINE",
"121 369 LINE",
"138 275 LINE",
"540 345 LINE",
"89 72 LINE",
"111 -16 LINE"
);
},
{
closed = 1;
nodes = (
"74 539 LINE",
"830 690 LINE",
"811 783 LINE",
"55 632 LINE"
);
}
);
width = 920;
}
);
note = uni4E4F;
unicode = 4E4F;
}
{
glyphname = uni4E50;
layers = (
{
layerId = "A8B8C001-3175-4DE2-BFCE-CA439A51AAC8";
paths = (
{
closed = 1;
nodes = (
"814 349 LINE",
"812 444 LINE",
"526 435 LINE",
"512 606 LINE",
"418 597 LINE",
"432 432 LINE",
"205 425 LINE",
"220 640 LINE",
"815 680 LINE",
"809 775 LINE",
"173 731 LINE",
"129 687 LINE",
"108 380 LINE",
"155 330 LINE",
"440 338 LINE",
"457 152 LINE",
"314 11 LINE",
"380 -56 LINE",
"538 101 LINE",
"552 137 LINE",
"534 341 LINE"
);
},
{
closed = 1;
nodes = (
"305 229 LINE",
"228 281 LINE",
"54 27 LINE",
"132 -26 LINE"
);
},
{
closed = 1;
nodes = (
"867 76 LINE",
"708 297 LINE",
"632 242 LINE",
"790 21 LINE"
);
}
);
width = 920;
}
);
note = uni4E50;
unicode = 4E50;
}
{
glyphname = uni4E52;
layers = (
{
layerId = "A8B8C001-3175-4DE2-BFCE-CA439A51AAC8";
paths = (
{
closed = 1;
nodes = (
"780 448 LINE",
"782 543 LINE",
"244 554 LINE",
"241 620 LINE",
"832 664 LINE",
"826 758 LINE",
"189 710 LINE",
"145 661 LINE",
"163 290 LINE",
"66 284 LINE",
"71 190 LINE",
"855 239 LINE",
"849 334 LINE",
"702 324 LINE",
"719 449 LINE"
);
},
{
closed = 1;
nodes = (
"249 460 LINE",
"624 451 LINE",
"606 318 LINE",
"257 296 LINE"
);
},
{
closed = 1;
nodes = (
"172 -37 LINE",
"311 120 LINE",
"240 183 LINE",
"102 25 LINE"
);
}
);
width = 920;
}
);
note = uni4E52;
unicode = 4E52;
}
{
glyphname = uni4E53;
layers = (
{
layerId = "A8B8C001-3175-4DE2-BFCE-CA439A51AAC8";
paths = (
{
closed = 1;
nodes = (
"72 135 LINE",
"853 176 LINE",
"848 271 LINE",
"674 262 LINE",
"683 446 LINE",
"790 452 LINE",
"785 546 LINE",
"255 519 LINE",
"247 594 LINE",
"757 687 LINE",
"740 780 LINE",
"186 677 LINE",
"148 626 LINE",
"192 236 LINE",
"67 230 LINE"
);
},
{
closed = 1;
nodes = (
"266 425 LINE",
"589 441 LINE",
"579 257 LINE",
"286 241 LINE"
);
},
{
closed = 1;
nodes = (
"742 -61 LINE",
"803 10 LINE",
"640 150 LINE",
"578 77 LINE"
);
}
);
width = 920;
}
);
note = uni4E53;
unicode = 4E53;
}
{
glyphname = uni4E54;
layers = (
{
layerId = "A8B8C001-3175-4DE2-BFCE-CA439A51AAC8";
paths = (
{
closed = 1;
nodes = (
"840 473 LINE",
"836 567 LINE",
"410 547 LINE",
"513 674 LINE",
"743 701 LINE",
"732 795 LINE",
"112 722 LINE",
"122 628 LINE",
"379 658 LINE",
"284 541 LINE",
"52 530 LINE",
"56 435 LINE",
"203 442 LINE",
"55 260 LINE",
"128 201 LINE",
"329 448 LINE",
"570 460 LINE",
"802 232 LINE",
"867 298 LINE",
"697 466 LINE"
);
},
{
closed = 1;
nodes = (
"338 67 LINE",
"355 107 LINE",
"337 338 LINE",
"243 331 LINE",
"260 125 LINE",
"101 -4 LINE",
"160 -75 LINE"
);
},
{
closed = 1;
nodes = (
"671 333 LINE",
"577 336 LINE",
"567 -49 LINE",
"661 -52 LINE"
);
}
);
width = 920;
}
);
note = uni4E54;
unicode = 4E54;
}
{
glyphname = uni4E56;
layers = (
{
layerId = "A8B8C001-3175-4DE2-BFCE-CA439A51AAC8";
paths = (
{
closed = 1;
nodes = (
"494 -44 LINE",
"502 479 LINE",
"810 494 LINE",
"805 589 LINE",
"503 574 LINE",
"504 643 LINE",
"755 668 LINE",
"745 763 LINE",
"169 704 LINE",
"179 611 LINE",
"409 634 LINE",
"408 570 LINE",
"75 554 LINE",
"80 459 LINE",
"407 474 LINE",
"399 -42 LINE"
);
},
{
closed = 1;
nodes = (
"813 53 LINE",
"843 143 LINE",
"640 213 LINE",
"646 279 LINE",
"862 323 LINE",
"842 417 LINE",
"656 379 LINE",
"662 442 LINE",
"568 451 LINE",
"542 184 LINE",
"574 136 LINE"
);
},
{
closed = 1;
nodes = (
"119 93 LINE",
"236 128 LINE",
"234 64 LINE",
"329 61 LINE",
"342 426 LINE",
"248 429 LINE",
"247 398 LINE",
"59 383 LINE",
"67 288 LINE",
"243 302 LINE",
"240 228 LINE",
"92 184 LINE"
);
}
);
width = 920;
}
);
note = uni4E56;
unicode = 4E56;
}
{
glyphname = uni4E58;
layers = (
{
layerId = "A8B8C001-3175-4DE2-BFCE-CA439A51AAC8";
paths = (
{
closed = 1;
nodes = (
"184 618 LINE",
"448 650 LINE",
"447 605 LINE",
"45 591 LINE",
"49 497 LINE",
"443 511 LINE",
"434 233 LINE",
"74 15 LINE",
"123 -65 LINE",
"430 121 LINE",
"424 -60 LINE",
"519 -63 LINE",
"523 58 LINE",
"844 -55 LINE",
"875 33 LINE",
"526 158 LINE",
"538 514 LINE",
"868 526 LINE",
"864 621 LINE",
"541 609 LINE",
"543 662 LINE",
"774 691 LINE",
"763 785 LINE",
"171 712 LINE"
);
},
{
closed = 1;
nodes = (
"115 328 LINE",
"267 337 LINE",
"268 282 LINE",
"88 246 LINE",
"106 153 LINE",
"325 197 LINE",
"363 243 LINE",
"359 476 LINE",
"265 475 LINE",
"265 432 LINE",
"109 423 LINE"
);
},
{
closed = 1;
nodes = (
"655 195 LINE",
"860 242 LINE",
"839 333 LINE",
"685 298 LINE",
"678 343 LINE",
"815 387 LINE",
"786 476 LINE",
"665 437 LINE",
"656 497 LINE",
"564 485 LINE",
"599 233 LINE"
);
}
);
width = 920;
}
);
note = uni4E58;
unicode = 4E58;
}
{
glyphname = uni4E59;
layers = (
{
layerId = "A8B8C001-3175-4DE2-BFCE-CA439A51AAC8";
paths = (
{
closed = 1;
nodes = (
"130 -14 LINE",
"783 14 LINE",
"828 71 LINE",
"790 268 LINE",
"697 249 LINE",
"725 107 LINE",
"236 84 LINE",
"738 654 LINE",
"701 733 LINE",
"92 712 LINE",
"96 617 LINE",
"595 634 LINE",
"92 63 LINE"
);
}
);
width = 920;
}
);
note = uni4E59;
unicode = 4E59;
}
{
glyphname = uni4E5C;
layers = (
{
layerId = "A8B8C001-3175-4DE2-BFCE-CA439A51AAC8";
paths = (
{
closed = 1;
nodes = (
"662 219 LINE",
"717 598 LINE",
"660 650 LINE",
"273 577 LINE",
"273 768 LINE",
"178 768 LINE",
"178 559 LINE",
"34 532 LINE",
"52 439 LINE",
"178 463 LINE",
"178 -2 LINE",
"230 -48 LINE",
"885 25 LINE",
"875 119 LINE",
"273 52 LINE",
"273 481 LINE",
"614 545 LINE",
"568 233 LINE"
);
}
);
width = 920;
}
);
note = uni4E5C;
unicode = 4E5C;
}
{
glyphname = uni4E5D;
layers = (
{
layerId = "A8B8C001-3175-4DE2-BFCE-CA439A51AAC8";
paths = (
{
closed = 1;
nodes = (
"133 -32 LINE",
"396 517 LINE",
"614 500 LINE",
"601 19 LINE",
"653 -29 LINE",
"872 -5 LINE",
"862 89 LINE",
"697 71 LINE",
"711 543 LINE",
"667 591 LINE",
"440 608 LINE",
"489 711 LINE",
"404 751 LINE",
"339 616 LINE",
"144 631 LINE",
"137 538 LINE",
"295 525 LINE",
"48 9 LINE"
);
}
);
width = 920;
}
);
note = uni4E5D;
unicode = 4E5D;
}
{
glyphname = uni4E5E;
layers = (
{
layerId = "A8B8C001-3175-4DE2-BFCE-CA439A51AAC8";
paths = (
{
closed = 1;
nodes = (
"840 -19 LINE",
"867 116 LINE",
"775 136 LINE",
"755 39 LINE",
"388 44 LINE",
"777 392 LINE",
"745 475 LINE",
"225 466 LINE",
"226 371 LINE",
"618 379 LINE",
"235 34 LINE",
"266 -50 LINE",
"792 -56 LINE"
);
},
{
closed = 1;
nodes = (
"312 735 LINE",
"227 776 LINE",
"52 420 LINE",
"137 379 LINE",
"220 549 LINE",
"830 592 LINE",
"822 686 LINE",
"269 648 LINE"
);
}
);
width = 920;
}
);
note = uni4E5E;
unicode = 4E5E;
}
{
glyphname = uni4E5F;
layers = (
{
layerId = "A8B8C001-3175-4DE2-BFCE-CA439A51AAC8";
paths = (
{
closed = 1;
nodes = (
"461 195 LINE",
"555 200 LINE",
"536 526 LINE",
"747 557 LINE",
"727 359 LINE",
"644 335 LINE",
"669 245 LINE",
"784 277 LINE",
"817 318 LINE",
"847 607 LINE",
"794 658 LINE",
"531 619 LINE",
"524 758 LINE",
"430 752 LINE",
"438 605 LINE",
"282 582 LINE",
"294 733 LINE",
"200 740 LINE",
"187 568 LINE",
"56 549 LINE",
"70 457 LINE",
"179 473 LINE",
"146 43 LINE",
"190 -8 LINE",
"777 -38 LINE",
"825 -3 LINE",
"864 140 LINE",
"772 164 LINE",
"744 58 LINE",
"244 83 LINE",
"275 487 LINE",
"443 512 LINE"
);
}
);
width = 920;
}
);
note = uni4E5F;
unicode = 4E5F;
}
{
glyphname = uni4E60;
layers = (
{
layerId = "A8B8C001-3175-4DE2-BFCE-CA439A51AAC8";
paths = (
{
closed = 1;
nodes = (
"598 278 LINE",
"550 359 LINE",
"98 93 LINE",
"145 12 LINE"
);
},
{
closed = 1;
nodes = (
"484 472 LINE",
"240 593 LINE",
"198 509 LINE",
"442 387 LINE"
);
},
{
closed = 1;
nodes = (
"793 9 LINE",
"827 689 LINE",
"782 738 LINE",
"95 753 LINE",
"94 658 LINE",
"730 646 LINE",
"700 63 LINE",
"503 84 LINE",
"493 -9 LINE",
"740 -34 LINE"
);
}
);
width = 920;
}
);
note = uni4E60;
unicode = 4E60;
}
{
glyphname = uni4E61;
layers = (
{
layerId = "A8B8C001-3175-4DE2-BFCE-CA439A51AAC8";
paths = (
{
closed = 1;
nodes = (
"456 558 LINE",
"272 581 LINE",
"503 729 LINE",
"452 808 LINE",
"111 591 LINE",
"131 504 LINE",
"352 476 LINE",
"127 301 LINE",
"153 218 LINE",
"431 205 LINE",
"67 -6 LINE",
"115 -87 LINE",
"852 341 LINE",
"805 423 LINE",
"583 294 LINE",
"286 306 LINE",
"678 609 LINE",
"621 684 LINE",
"456 556 LINE"
);
}
);
width = 920;
}
);
note = uni4E61;
unicode = 4E61;
}
{
glyphname = uni4E66;
layers = (
{
layerId = "A8B8C001-3175-4DE2-BFCE-CA439A51AAC8";
paths = (
{
closed = 1;
nodes = (
"808 8 LINE",
"875 286 LINE",
"828 345 LINE",
"744 341 LINE",
"755 546 LINE",
"711 596 LINE",
"446 610 LINE",
"458 731 LINE",
"364 741 LINE",
"351 615 LINE",
"110 629 LINE",
"105 535 LINE",
"342 521 LINE",
"323 323 LINE",
"45 311 LINE",
"49 216 LINE",
"313 227 LINE",
"285 -59 LINE",
"379 -67 LINE",
"408 232 LINE",
"769 248 LINE",
"728 79 LINE",
"626 109 LINE",
"600 19 LINE",
"748 -26 LINE"
);
},
{
closed = 1;
nodes = (
"659 504 LINE",
"650 337 LINE",
"418 327 LINE",
"436 516 LINE"
);
},
{
closed = 1;
nodes = (
"846 633 LINE",
"700 786 LINE",
"631 721 LINE",
"779 568 LINE"
);
}
);
width = 920;
}
);
note = uni4E66;
unicode = 4E66;
}
{
glyphname = uni4E69;
layers = (
{
layerId = "A8B8C001-3175-4DE2-BFCE-CA439A51AAC8";
paths = (
{
closed = 1;
nodes = (
"414 -40 LINE",
"461 -2 LINE",
"524 337 LINE",
"475 393 LINE",
"304 382 LINE",
"301 490 LINE",
"525 535 LINE",
"506 627 LINE",
"298 586 LINE",
"294 753 LINE",
"200 751 LINE",
"209 376 LINE",
"85 368 LINE",
"41 315 LINE",
"85 6 LINE",
"131 -34 LINE"
);
},
{
closed = 1;
nodes = (
"634 -40 LINE",
"880 -18 LINE",
"872 76 LINE",
"681 58 LINE",
"740 751 LINE",
"646 758 LINE",
"582 11 LINE"
);
},
{
closed = 1;
nodes = (
"172 58 LINE",
"141 277 LINE",
"420 295 LINE",
"375 55 LINE"
);
}
);
width = 920;
}
);
note = uni4E69;
unicode = 4E69;
}
{
glyphname = uni4E70;
layers = (
{
layerId = "A8B8C001-3175-4DE2-BFCE-CA439A51AAC8";
paths = (
{
closed = 1;
nodes = (
"862 312 LINE",
"479 320 LINE",
"651 581 LINE",
"572 632 LINE",
"368 323 LINE",
"60 330 LINE",
"57 236 LINE",
"307 230 LINE",
"150 -8 LINE",
"228 -60 LINE",
"418 228 LINE",
"860 218 LINE"
);
},
{
closed = 1;
nodes = (
"845 721 LINE",
"796 780 LINE",
"87 741 LINE",
"92 647 LINE",
"736 682 LINE",
"673 445 LINE",
"765 421 LINE"
);
},
{
closed = 1;
nodes = (
"841 56 LINE",
"507 215 LINE",
"466 128 LINE",
"801 -29 LINE"
);
},
{
closed = 1;
nodes = (
"340 427 LINE",
"161 491 LINE",
"130 402 LINE",
"308 338 LINE"
);
},
{
closed = 1;
nodes = (
"408 540 LINE",
"252 641 LINE",
"201 562 LINE",
"357 461 LINE"
);
}
);
width = 920;
}
);
note = uni4E70;
unicode = 4E70;
}
{
glyphname = uni4E71;
layers = (
{
layerId = "A8B8C001-3175-4DE2-BFCE-CA439A51AAC8";
paths = (
{
closed = 1;
nodes = (
"499 456 LINE",
"486 550 LINE",
"319 528 LINE",
"310 630 LINE",
"466 650 LINE",
"454 744 LINE",
"66 694 LINE",
"77 601 LINE",
"216 618 LINE",
"226 516 LINE",
"26 490 LINE",
"39 396 LINE",
"235 421 LINE",
"243 329 LINE",
"124 322 LINE",
"80 272 LINE",
"94 -6 LINE",
"140 -51 LINE",
"427 -56 LINE",
"475 -10 LINE",
"487 292 LINE",
"437 341 LINE",
"338 335 LINE",
"328 433 LINE"
);
},
{
closed = 1;
nodes = (
"829 -24 LINE",
"895 116 LINE",
"810 156 LINE",
"757 46 LINE",
"626 60 LINE",
"666 769 LINE",
"571 775 LINE",
"530 20 LINE",
"571 -30 LINE",
"781 -50 LINE"
);
},
{
closed = 1;
nodes = (
"176 231 LINE",
"391 245 LINE",
"384 39 LINE",
"186 42 LINE"
);
}
);
width = 920;
}
);
note = uni4E71;
unicode = 4E71;
}
{
glyphname = uni4E73;
layers = (
{
layerId = "A8B8C001-3175-4DE2-BFCE-CA439A51AAC8";
paths = (
{
closed = 1;
nodes = (
"77 61 LINE",
"298 101 LINE",
"314 61 LINE",
"228 11 LINE",
"274 -69 LINE",
"397 -2 LINE",
"417 57 LINE",
"392 118 LINE",
"542 146 LINE",
"524 238 LINE",
"378 211 LINE",
"504 328 LINE",
"468 409 LINE",
"104 376 LINE",
"113 282 LINE",
"338 302 LINE",
"273 243 LINE",
"262 191 LINE",
"262 190 LINE",
"59 153 LINE"
);
},
{
closed = 1;
nodes = (
"844 -13 LINE",
"862 79 LINE",
"659 116 LINE",
"694 691 LINE",
"599 697 LINE",
"563 79 LINE",
"602 31 LINE"
);
},
{
closed = 1;
nodes = (
"72 608 LINE",
"373 632 LINE",
"393 638 LINE",
"510 707 LINE",
"463 788 LINE",
"355 724 LINE",
"64 702 LINE"
);
},
{
closed = 1;
nodes = (
"498 433 LINE",
"552 603 LINE",
"463 632 LINE",
"408 462 LINE"
);
},
{
closed = 1;
nodes = (
"164 412 LINE",
"242 467 LINE",
"143 607 LINE",
"65 553 LINE"
);
},
{
closed = 1;
nodes = (
"295 427 LINE",
"384 461 LINE",
"330 604 LINE",
"243 571 LINE"
);
}
);
width = 920;
}
);
note = uni4E73;
unicode = 4E73;
}
{
glyphname = uni4E7E;
layers = (
{
layerId = "A8B8C001-3175-4DE2-BFCE-CA439A51AAC8";
paths = (
{
closed = 1;
nodes = (
"514 48 LINE",
"507 143 LINE",
"349 130 LINE",
"355 183 LINE",
"419 189 LINE",
"463 235 LINE",
"463 535 LINE",
"417 583 LINE",
"301 585 LINE",
"316 621 LINE",
"464 614 LINE",
"468 708 LINE",
"355 713 LINE",
"375 759 LINE",
"288 796 LINE",
"255 718 LINE",
"59 728 LINE",
"54 633 LINE",
"215 625 LINE",
"199 588 LINE",
"143 589 LINE",
"94 541 LINE",
"94 441 LINE",
"63 441 LINE",
"64 346 LINE",
"94 346 LINE",
"94 211 LINE",
"147 164 LINE",
"258 174 LINE",
"252 123 LINE",
"59 108 LINE",
"67 13 LINE",
"241 26 LINE",
"230 -66 LINE",
"324 -77 LINE",
"337 34 LINE"
);
},
{
closed = 1;
nodes = (
"839 29 LINE",
"680 46 LINE",
"865 370 LINE",
"828 441 LINE",
"514 466 LINE",
"507 371 LINE",
"745 353 LINE",
"562 31 LINE",
"598 -40 LINE",
"828 -65 LINE"
);
},
{
closed = 1;
nodes = (
"648 749 LINE",
"558 776 LINE",
"490 555 LINE",
"582 529 LINE",
"604 603 LINE",
"834 605 LINE",
"833 700 LINE",
"633 698 LINE"
);
},
{
closed = 1;
nodes = (
"340 351 LINE",
"339 446 LINE",
"189 443 LINE",
"189 493 LINE",
"368 489 LINE",
"368 279 LINE",
"189 264 LINE",
"189 348 LINE"
);
}
);
width = 920;
}
);
note = uni4E7E;
unicode = 4E7E;
}
{
glyphname = uni4E86;
layers = (
{
layerId = "A8B8C001-3175-4DE2-BFCE-CA439A51AAC8";
paths = (
{
closed = 1;
nodes = (
"276 -40 LINE",
"562 -15 LINE",
"603 40 LINE",
"550 388 LINE",
"802 675 LINE",
"767 752 LINE",
"118 760 LINE",
"117 666 LINE",
"663 660 LINE",
"465 435 LINE",
"453 396 LINE",
"503 75 LINE",
"267 52 LINE"
);
}
);
width = 920;
}
);
note = uni4E86;
unicode = 4E86;
}
{
glyphname = uni4E88;
layers = (
{
layerId = "A8B8C001-3175-4DE2-BFCE-CA439A51AAC8";
paths = (
{
closed = 1;
nodes = (
"786 216 LINE",
"869 436 LINE",
"820 500 LINE",
"645 482 LINE",
"775 671 LINE",
"739 745 LINE",
"110 773 LINE",
"105 678 LINE",
"650 655 LINE",
"522 469 LINE",
"406 457 LINE",
"260 634 LINE",
"187 574 LINE",
"293 446 LINE",
"51 421 LINE",
"61 328 LINE",
"427 365 LINE",
"451 48 LINE",
"220 73 LINE",
"209 -21 LINE",
"497 -52 LINE",
"549 -2 LINE",
"519 375 LINE",
"754 399 LINE",
"697 249 LINE"
);
}
);
width = 920;
}
);
note = uni4E88;
unicode = 4E88;
}
{
glyphname = uni4E89;
layers = (
{
layerId = "A8B8C001-3175-4DE2-BFCE-CA439A51AAC8";
paths = (
{
closed = 1;
nodes = (
"730 97 LINE",
"777 141 LINE",
"787 269 LINE",
"874 272 LINE",
"871 367 LINE",
"795 364 LINE",
"805 479 LINE",
"756 529 LINE",
"581 522 LINE",
"689 620 LINE",
"654 701 LINE",
"360 687 LINE",
"410 725 LINE",
"352 800 LINE",
"84 594 LINE",
"141 519 LINE",
"229 586 LINE",
"527 601 LINE",
"435 517 LINE",
"96 505 LINE",
"100 410 LINE",
"407 421 LINE",
"413 350 LINE",
"46 337 LINE",
"49 244 LINE",
"420 256 LINE",
"426 191 LINE",
"115 191 LINE",
"115 96 LINE",
"433 96 LINE",
"440 17 LINE",
"135 42 LINE",
"127 -51 LINE",
"487 -81 LINE",
"537 -30 LINE",
"527 96 LINE"
);
},
{
closed = 1;
nodes = (
"706 432 LINE",
"700 361 LINE",
"507 354 LINE",
"501 424 LINE"
);
},
{
closed = 1;
nodes = (
"520 191 LINE",
"514 259 LINE",
"692 265 LINE",
"686 192 LINE"
);
}
);
width = 920;
}
);
note = uni4E89;
unicode = 4E89;
}
{
glyphname = uni4E8B;
layers = (
{
layerId = "A8B8C001-3175-4DE2-BFCE-CA439A51AAC8";
paths = (
{
closed = 1;
nodes = (
"733 34 LINE",
"782 82 LINE",
"782 175 LINE",
"857 175 LINE",
"857 269 LINE",
"782 269 LINE",
"782 357 LINE",
"733 404 LINE",
"506 394 LINE",
"506 407 LINE",
"715 413 LINE",
"760 450 LINE",
"782 569 LINE",
"733 625 LINE",
"500 616 LINE",
"500 634 LINE",
"810 644 LINE",
"807 739 LINE",
"497 728 LINE",
"496 788 LINE",
"402 785 LINE",
"403 725 LINE",
"62 714 LINE",
"65 620 LINE",
"406 631 LINE",
"406 612 LINE",
"178 604 LINE",
"133 549 LINE",
"152 437 LINE",
"200 398 LINE",
"412 404 LINE",
"412 390 LINE",
"127 378 LINE",
"132 284 LINE",
"415 296 LINE",
"416 269 LINE",
"62 269 LINE",
"62 175 LINE",
"419 175 LINE",
"420 138 LINE",
"112 148 LINE",
"110 54 LINE",
"381 45 LINE",
"320 17 LINE",
"358 -68 LINE",
"490 -8 LINE",
"517 35 LINE",
"517 41 LINE"
);
},
{
closed = 1;
nodes = (
"514 135 LINE",
"513 175 LINE",
"688 175 LINE",
"688 130 LINE"
);
},
{
closed = 1;
nodes = (
"688 308 LINE",
"688 269 LINE",
"510 269 LINE",
"509 300 LINE"
);
},
{
closed = 1;
nodes = (
"678 529 LINE",
"675 505 LINE",
"503 500 LINE",
"503 523 LINE"
);
},
{
closed = 1;
nodes = (
"235 513 LINE",
"409 519 LINE",
"409 497 LINE",
"238 493 LINE"
);
}
);
width = 920;
}
);
note = uni4E8B;
unicode = 4E8B;
}
{
glyphname = uni4E8C;
layers = (
{
layerId = "A8B8C001-3175-4DE2-BFCE-CA439A51AAC8";
paths = (
{
closed = 1;
nodes = (
"69 49 LINE",
"860 125 LINE",
"852 219 LINE",
"59 144 LINE"
);
},
{
closed = 1;
nodes = (
"213 475 LINE",
"660 577 LINE",
"639 670 LINE",
"192 567 LINE"
);
}
);
width = 920;
}
);
note = uni4E8C;
unicode = 4E8C;
}
{
glyphname = uni4E8D;
layers = (
{
layerId = "A8B8C001-3175-4DE2-BFCE-CA439A51AAC8";
paths = (
{
closed = 1;
nodes = (
"72 376 LINE",
"436 395 LINE",
"462 139 LINE",
"307 46 LINE",
"356 -34 LINE",
"536 74 LINE",
"558 119 LINE",
"530 400 LINE",
"852 418 LINE",
"846 513 LINE",
"67 471 LINE"
);
},
{
closed = 1;
nodes = (
"245 638 LINE",
"710 659 LINE",
"706 753 LINE",
"240 733 LINE"
);
}
);
width = 920;
}
);
note = uni4E8D;
unicode = 4E8D;
}
{
glyphname = uni4E8E;
layers = (
{
layerId = "A8B8C001-3175-4DE2-BFCE-CA439A51AAC8";
paths = (
{
closed = 1;
nodes = (
"796 658 LINE",
"798 752 LINE",
"152 763 LINE",
"150 670 LINE",
"409 665 LINE",
"438 416 LINE",
"47 380 LINE",
"56 286 LINE",
"449 322 LINE",
"475 103 LINE",
"268 46 LINE",
"293 -45 LINE",
"538 23 LINE",
"573 75 LINE",
"543 330 LINE",
"872 361 LINE",
"863 455 LINE",
"532 424 LINE",
"505 663 LINE"
);
}
);
width = 920;
}
);
note = uni4E8E;
unicode = 4E8E;
}
{
glyphname = uni4E8F;
layers = (
{
layerId = "A8B8C001-3175-4DE2-BFCE-CA439A51AAC8";
paths = (
{
closed = 1;
nodes = (
"860 482 LINE",
"853 576 LINE",
"59 516 LINE",
"65 422 LINE",
"215 433 LINE",
"204 282 LINE",
"254 231 LINE",
"644 259 LINE",
"618 121 LINE",
"398 35 LINE",
"432 -51 LINE",
"677 42 LINE",
"705 77 LINE",
"749 301 LINE",
"699 357 LINE",
"302 330 LINE",
"310 440 LINE"
);
},
{
closed = 1;
nodes = (
"679 676 LINE",
"675 770 LINE",
"195 754 LINE",
"199 660 LINE"
);
}
);
width = 920;
}
);
note = uni4E8F;
unicode = 4E8F;
}
{
glyphname = uni4E91;
layers = (
{
layerId = "A8B8C001-3175-4DE2-BFCE-CA439A51AAC8";
paths = (
{
closed = 1;
nodes = (
"878 418 LINE",
"872 512 LINE",
"42 465 LINE",
"47 370 LINE",
"266 382 LINE",
"75 22 LINE",
"125 -45 LINE",
"716 56 LINE",
"776 -55 LINE",
"858 -10 LINE",
"710 266 LINE",
"626 222 LINE",
"669 143 LINE",
"203 62 LINE",
"377 389 LINE"
);
},
{
closed = 1;
nodes = (
"740 681 LINE",
"738 775 LINE",
"145 766 LINE",
"146 672 LINE"
);
}
);
width = 920;
}
);
note = uni4E91;
unicode = 4E91;
}
{
glyphname = uni4E92;
layers = (
{
layerId = "A8B8C001-3175-4DE2-BFCE-CA439A51AAC8";
paths = (
{
closed = 1;
nodes = (
"97 -10 LINE",
"828 28 LINE",
"823 122 LINE",
"616 111 LINE",
"781 390 LINE",
"746 461 LINE",
"413 507 LINE",
"400 413 LINE",
"663 377 LINE",
"502 105 LINE",
"92 83 LINE"
);
},
{
closed = 1;
nodes = (
"138 617 LINE",
"330 621 LINE",
"158 278 LINE",
"201 210 LINE",
"505 211 LINE",
"503 306 LINE",
"278 305 LINE",
"437 624 LINE",
"811 633 LINE",
"808 728 LINE",
"136 712 LINE"
);
}
);
width = 920;
}
);
note = uni4E92;
unicode = 4E92;
}
{
glyphname = uni4E93;
layers = (
{
layerId = "A8B8C001-3175-4DE2-BFCE-CA439A51AAC8";
paths = (
{
closed = 1;
nodes = (
"61 398 LINE",
"263 405 LINE",
"122 -27 LINE",
"212 -55 LINE",
"363 409 LINE",
"619 419 LINE",
"639 -18 LINE",
"733 -13 LINE",
"713 422 LINE",
"862 428 LINE",
"859 523 LINE",
"58 492 LINE"
);
},
{
closed = 1;
nodes = (
"778 633 LINE",
"786 728 LINE",
"227 773 LINE",
"219 680 LINE"
);
}
);
width = 920;
}
);
note = uni4E93;
unicode = 4E93;
}
{
glyphname = uni4E94;
layers = (
{
layerId = "A8B8C001-3175-4DE2-BFCE-CA439A51AAC8";
paths = (
{
closed = 1;
nodes = (
"796 629 LINE",
"801 724 LINE",
"135 753 LINE",
"131 658 LINE",
"354 648 LINE",
"336 462 LINE",
"171 451 LINE",
"177 358 LINE",
"327 368 LINE",
"300 72 LINE",
"77 61 LINE",
"82 -32 LINE",
"842 5 LINE",
"837 100 LINE",
"709 93 LINE",
"751 434 LINE",
"701 486 LINE",
"432 468 LINE",
"448 644 LINE"
);
},
{
closed = 1;
nodes = (
"650 389 LINE",
"614 88 LINE",
"395 77 LINE",
"423 374 LINE"
);
}
);
width = 920;
}
);
note = uni4E94;
unicode = 4E94;
}
{
glyphname = uni4E95;
layers = (
{
layerId = "A8B8C001-3175-4DE2-BFCE-CA439A51AAC8";
paths = (
{
closed = 1;
nodes = (
"66 221 LINE",
"211 227 LINE",
"184 52 LINE",
"277 37 LINE",
"308 231 LINE",
"561 242 LINE",
"562 -54 LINE",
"657 -54 LINE",
"656 247 LINE",
"859 256 LINE",
"855 349 LINE",
"655 340 LINE",
"655 549 LINE",
"784 544 LINE",
"787 638 LINE",
"654 643 LINE",
"654 764 LINE",
"559 764 LINE",
"559 647 LINE",
"374 654 LINE",
"391 758 LINE",
"297 773 LINE",
"279 658 LINE",
"135 664 LINE",
"131 571 LINE",
"264 565 LINE",
"226 321 LINE",
"61 314 LINE"
);
},
{
closed = 1;
nodes = (
"360 561 LINE",
"560 553 LINE",
"560 336 LINE",
"323 325 LINE"
);
}
);
width = 920;
}
);
note = uni4E95;
unicode = 4E95;
}
{
glyphname = uni4E98;
layers = (
{
layerId = "A8B8C001-3175-4DE2-BFCE-CA439A51AAC8";
paths = (
{
closed = 1;
nodes = (
"638 144 LINE",
"679 178 LINE",
"769 503 LINE",
"728 563 LINE",
"192 608 LINE",
"140 555 LINE",
"162 389 LINE",
"99 381 LINE",
"110 288 LINE",
"175 296 LINE",
"195 149 LINE",
"247 109 LINE"
);
},
{
closed = 1;
nodes = (
"850 741 LINE",
"73 773 LINE",
"69 679 LINE",
"847 646 LINE"
);
},
{
closed = 1;
nodes = (
"829 -24 LINE",
"825 70 LINE",
"69 41 LINE",
"72 -52 LINE"
);
},
{
closed = 1;
nodes = (
"664 474 LINE",
"598 235 LINE",
"283 206 LINE",
"269 307 LINE",
"578 346 LINE",
"567 440 LINE",
"256 401 LINE",
"242 509 LINE"
);
}
);
width = 920;
}
);
note = uni4E98;
unicode = 4E98;
}
{
glyphname = uni4E9A;
layers = (
{
layerId = "A8B8C001-3175-4DE2-BFCE-CA439A51AAC8";
paths = (
{
closed = 1;
nodes = (
"838 678 LINE",
"834 773 LINE",
"62 744 LINE",
"65 651 LINE",
"251 657 LINE",
"280 44 LINE",
"49 47 LINE",
"49 -47 LINE",
"852 -54 LINE",
"853 39 LINE",
"601 41 LINE",
"646 671 LINE"
);
},
{
closed = 1;
nodes = (
"345 661 LINE",
"552 668 LINE",
"506 42 LINE",
"373 43 LINE"
);
},
{
closed = 1;
nodes = (
"872 487 LINE",
"784 522 LINE",
"627 133 LINE",
"714 97 LINE"
);
},
{
closed = 1;
nodes = (
"264 187 LINE",
"180 431 LINE",
"92 401 LINE",
"174 157 LINE"
);
}
);
width = 920;
}
);
note = uni4E9A;
unicode = 4E9A;
}
{
glyphname = uni4E9B;
layers = (
{
layerId = "A8B8C001-3175-4DE2-BFCE-CA439A51AAC8";
paths = (
{
closed = 1;
nodes = (
"136 256 LINE",
"460 316 LINE",
"442 408 LINE",
"333 388 LINE",
"333 532 LINE",
"425 538 LINE",
"418 632 LINE",
"333 626 LINE",
"333 768 LINE",
"240 768 LINE",
"240 370 LINE",
"168 357 LINE",
"141 586 LINE",
"47 574 LINE",
"81 296 LINE"
);
},
{
closed = 1;
nodes = (
"858 254 LINE",
"872 348 LINE",
"600 387 LINE",
"612 483 LINE",
"846 592 LINE",
"806 677 LINE",
"627 593 LINE",
"646 742 LINE",
"552 754 LINE",
"501 353 LINE",
"541 301 LINE"
);
},
{
closed = 1;
nodes = (
"120 -49 LINE",
"836 9 LINE",
"828 103 LINE",
"112 46 LINE"
);
},
{
closed = 1;
nodes = (
"252 124 LINE",
"722 151 LINE",
"716 246 LINE",
"247 218 LINE"
);
}
);
width = 920;
}
);
note = uni4E9B;
unicode = 4E9B;
}
{
glyphname = uni4E9F;
layers = (
{
layerId = "A8B8C001-3175-4DE2-BFCE-CA439A51AAC8";
paths = (
{
closed = 1;
nodes = (
"375 93 LINE",
"492 167 LINE",
"514 211 LINE",
"489 482 LINE",
"712 658 LINE",
"685 742 LINE",
"156 758 LINE",
"154 665 LINE",
"552 652 LINE",
"410 541 LINE",
"392 500 LINE",
"417 232 LINE",
"325 173 LINE"
);
},
{
closed = 1;
nodes = (
"147 173 LINE",
"292 185 LINE",
"336 227 LINE",
"362 500 LINE",
"310 551 LINE",
"105 531 LINE",
"62 478 LINE",
"97 213 LINE"
);
},
{
closed = 1;
nodes = (
"56 -40 LINE",
"866 -4 LINE",
"862 90 LINE",
"51 55 LINE"
);
},
{
closed = 1;
nodes = (
"622 126 LINE",
"712 236 LINE",
"790 172 LINE",
"849 245 LINE",
"771 308 LINE",
"870 428 LINE",
"849 503 LINE",
"636 571 LINE",
"607 481 LINE",
"754 435 LINE",
"698 367 LINE",
"627 426 LINE",
"569 353 LINE",
"639 295 LINE",
"550 186 LINE"
);
},
{
closed = 1;
nodes = (
"162 442 LINE",
"262 452 LINE",
"246 276 LINE",
"185 271 LINE"
);
}
);
width = 920;
}
);
note = uni4E9F;
unicode = 4E9F;
}
{
glyphname = uni4EA0;
layers = (
{
layerId = "A8B8C001-3175-4DE2-BFCE-CA439A51AAC8";
paths = (
{
closed = 1;
nodes = (
"120 246 LINE",
"809 309 LINE",
"800 403 LINE",
"498 375 LINE",
"516 402 LINE",
"411 473 LINE",
"359 396 LINE",
"402 366 LINE",
"111 339 LINE"
);
}
);
width = 920;
}
);
note = uni4EA0;
unicode = 4EA0;
}
{
glyphname = uni4EA1;
layers = (
{
layerId = "A8B8C001-3175-4DE2-BFCE-CA439A51AAC8";
paths = (
{
closed = 1;
nodes = (
"849 500 LINE",
"850 595 LINE",
"525 601 LINE",
"491 723 LINE",
"401 698 LINE",
"426 603 LINE",
"73 610 LINE",
"70 517 LINE",
"221 513 LINE",
"180 48 LINE",
"235 -3 LINE",
"794 98 LINE",
"778 190 LINE",
"280 100 LINE",
"316 511 LINE"
);
}
);
width = 920;
}
);
note = uni4EA1;
unicode = 4EA1;
}
{
glyphname = uni4EA2;
layers = (
{
layerId = "A8B8C001-3175-4DE2-BFCE-CA439A51AAC8";
paths = (
{
closed = 1;
nodes = (
"126 -66 LINE",
"278 96 LINE",
"291 122 LINE",
"322 370 LINE",
"578 382 LINE",
"626 -10 LINE",
"698 -44 LINE",
"863 64 LINE",
"811 142 LINE",
"710 76 LINE",
"666 437 LINE",
"617 479 LINE",
"277 461 LINE",
"233 420 LINE",
"200 149 LINE",
"57 -3 LINE"
);
},
{
closed = 1;
nodes = (
"68 535 LINE",
"861 590 LINE",
"855 684 LINE",
"533 662 LINE",
"468 786 LINE",
"385 742 LINE",
"430 655 LINE",
"62 630 LINE"
);
}
);
width = 920;
}
);
note = uni4EA2;
unicode = 4EA2;
}
{
glyphname = uni4EA4;
layers = (
{
layerId = "A8B8C001-3175-4DE2-BFCE-CA439A51AAC8";
paths = (
{
closed = 1;
nodes = (
"785 273 LINE",
"848 343 LINE",
"642 534 LINE",
"578 464 LINE",
"639 407 LINE",
"454 276 LINE",
"278 384 LINE",
"387 499 LINE",
"318 564 LINE",
"85 316 LINE",
"153 251 LINE",
"212 314 LINE",
"371 216 LINE",
"72 4 LINE",
"127 -72 LINE",
"457 163 LINE",
"750 -17 LINE",
"800 63 LINE",
"541 222 LINE",
"710 342 LINE"
);
},
{
closed = 1;
nodes = (
"846 565 LINE",
"848 659 LINE",
"531 666 LINE",
"433 791 LINE",
"360 733 LINE",
"409 668 LINE",
"103 675 LINE",
"101 581 LINE"
);
}
);
width = 920;
}
);
note = uni4EA4;
unicode = 4EA4;
}
{
glyphname = uni4EA5;
layers = (
{
layerId = "A8B8C001-3175-4DE2-BFCE-CA439A51AAC8";
paths = (
{
closed = 1;
nodes = (
"110 547 LINE",
"277 557 LINE",
"122 350 LINE",
"160 273 LINE",
"284 273 LINE",
"77 110 LINE",
"136 36 LINE",
"711 488 LINE",
"652 562 LINE",
"407 370 LINE",
"255 368 LINE",
"402 565 LINE",
"843 593 LINE",
"837 688 LINE",
"510 667 LINE",
"411 768 LINE",
"343 702 LINE",
"384 659 LINE",
"103 642 LINE"
);
},
{
closed = 1;
nodes = (
"295 -50 LINE",
"538 155 LINE",
"761 -35 LINE",
"823 36 LINE",
"612 218 LINE",
"816 390 LINE",
"753 462 LINE",
"233 22 LINE"
);
}
);
width = 920;
}
);
note = uni4EA5;
unicode = 4EA5;
}
{
glyphname = uni4EA6;
layers = (
{
layerId = "A8B8C001-3175-4DE2-BFCE-CA439A51AAC8";
paths = (
{
closed = 1;
nodes = (
"64 549 LINE",
"286 561 LINE",
"189 -38 LINE",
"283 -53 LINE",
"383 566 LINE",
"542 575 LINE",
"598 65 LINE",
"478 39 LINE",
"498 -51 LINE",
"659 -18 LINE",
"697 33 LINE",
"637 580 LINE",
"895 594 LINE",
"890 689 LINE",
"523 669 LINE",
"489 773 LINE",
"399 743 LINE",
"426 663 LINE",
"59 643 LINE"
);
},
{
closed = 1;
nodes = (
"112 148 LINE",
"218 429 LINE",
"129 462 LINE",
"24 182 LINE"
);
},
{
closed = 1;
nodes = (
"823 237 LINE",
"895 298 LINE",
"754 465 LINE",
"682 404 LINE"
);
}
);
width = 920;
}
);
note = uni4EA6;
unicode = 4EA6;
}
{
glyphname = uni4EA7;
layers = (
{
layerId = "A8B8C001-3175-4DE2-BFCE-CA439A51AAC8";
paths = (
{
closed = 1;
nodes = (
"844 412 LINE",
"615 419 LINE",
"727 507 LINE",
"669 580 LINE",
"489 439 LINE",
"310 559 LINE",
"257 480 LINE",
"336 427 LINE",
"124 434 LINE",
"120 340 LINE",
"158 339 LINE",
"76 -48 LINE",
"167 -68 LINE",
"252 336 LINE",
"841 318 LINE"
);
},
{
closed = 1;
nodes = (
"822 619 LINE",
"815 713 LINE",
"502 686 LINE",
"390 788 LINE",
"326 718 LINE",
"373 675 LINE",
"116 653 LINE",
"124 559 LINE"
);
}
);
width = 920;
}
);
note = uni4EA7;
unicode = 4EA7;
}
{
glyphname = uni4EA8;
layers = (
{
layerId = "A8B8C001-3175-4DE2-BFCE-CA439A51AAC8";
paths = (
{
closed = 1;
nodes = (
"283 -59 LINE",
"560 -42 LINE",
"598 32 LINE",
"550 103 LINE",
"815 241 LINE",
"789 331 LINE",
"167 281 LINE",
"175 186 LINE",
"564 217 LINE",
"460 163 LINE",
"443 94 LINE",
"473 48 LINE",
"278 36 LINE"
);
},
{
closed = 1;
nodes = (
"288 329 LINE",
"689 358 LINE",
"733 406 LINE",
"733 552 LINE",
"680 599 LINE",
"252 548 LINE",
"212 491 LINE",
"239 367 LINE"
);
},
{
closed = 1;
nodes = (
"97 544 LINE",
"837 636 LINE",
"825 731 LINE",
"530 694 LINE",
"483 778 LINE",
"400 732 LINE",
"428 682 LINE",
"84 639 LINE"
);
},
{
closed = 1;
nodes = (
"315 459 LINE",
"638 498 LINE",
"638 451 LINE",
"323 427 LINE"
);
}
);
width = 920;
}
);
note = uni4EA8;
unicode = 4EA8;
}
{
glyphname = uni4EA9;
layers = (
{
layerId = "A8B8C001-3175-4DE2-BFCE-CA439A51AAC8";
paths = (
{
closed = 1;
nodes = (
"738 -42 LINE",
"783 -1 LINE",
"819 468 LINE",
"768 519 LINE",
"171 466 LINE",
"168 491 LINE",
"74 481 LINE",
"126 -26 LINE",
"174 -67 LINE"
);
},
{
closed = 1;
nodes = (
"887 620 LINE",
"881 714 LINE",
"486 688 LINE",
"454 788 LINE",
"366 759 LINE",
"390 682 LINE",
"33 659 LINE",
"38 565 LINE"
);
},
{
closed = 1;
nodes = (
"721 420 LINE",
"692 49 LINE",
"523 41 LINE",
"531 181 LINE",
"649 174 LINE",
"654 268 LINE",
"537 275 LINE",
"545 404 LINE"
);
},
{
closed = 1;
nodes = (
"197 201 LINE",
"437 187 LINE",
"428 37 LINE",
"216 28 LINE"
);
},
{
closed = 1;
nodes = (
"179 373 LINE",
"450 396 LINE",
"443 281 LINE",
"187 296 LINE"
);
}
);
width = 920;
}
);
note = uni4EA9;
unicode = 4EA9;
}
{
glyphname = uni4EAB;
layers = (
{
layerId = "A8B8C001-3175-4DE2-BFCE-CA439A51AAC8";
paths = (
{
closed = 1;
nodes = (
"97 47 LINE",
"447 72 LINE",
"450 44 LINE",
"306 26 LINE",
"318 -66 LINE",
"508 -43 LINE",
"548 9 LINE",
"541 79 LINE",
"848 102 LINE",
"842 196 LINE",
"618 180 LINE",
"727 246 LINE",
"702 334 LINE",
"180 335 LINE",
"180 240 LINE",
"535 240 LINE",
"461 195 LINE",
"447 167 LINE",
"91 142 LINE"
);
},
{
closed = 1;
nodes = (
"668 359 LINE",
"717 405 LINE",
"718 559 LINE",
"668 606 LINE",
"255 579 LINE",
"211 527 LINE",
"222 416 LINE",
"267 374 LINE"
);
},
{
closed = 1;
nodes = (
"78 596 LINE",
"841 639 LINE",
"836 732 LINE",
"485 713 LINE",
"430 785 LINE",
"355 727 LINE",
"371 706 LINE",
"72 690 LINE"
);
},
{
closed = 1;
nodes = (
"312 466 LINE",
"310 487 LINE",
"625 509 LINE",
"623 455 LINE"
);
}
);
width = 920;
}
);
note = uni4EAB;
unicode = 4EAB;
}
{
glyphname = uni4EAC;
layers = (
{
layerId = "A8B8C001-3175-4DE2-BFCE-CA439A51AAC8";
paths = (
{
closed = 1;
nodes = (
"288 252 LINE",
"439 260 LINE",
"454 64 LINE",
"322 11 LINE",
"357 -76 LINE",
"522 -11 LINE",
"551 37 LINE",
"532 265 LINE",
"718 275 LINE",
"762 320 LINE",
"768 527 LINE",
"718 576 LINE",
"243 539 LINE",
"201 482 LINE",
"239 290 LINE"
);
},
{
closed = 1;
nodes = (
"74 572 LINE",
"867 616 LINE",
"862 710 LINE",
"495 690 LINE",
"429 796 LINE",
"349 746 LINE",
"387 684 LINE",
"69 667 LINE"
);
},
{
closed = 1;
nodes = (
"303 449 LINE",
"673 477 LINE",
"669 366 LINE",
"323 349 LINE"
);
},
{
closed = 1;
nodes = (
"106 -34 LINE",
"337 120 LINE",
"284 199 LINE",
"53 44 LINE"
);
},
{
closed = 1;
nodes = (
"801 -30 LINE",
"862 41 LINE",
"656 221 LINE",
"593 150 LINE"
);
}
);
width = 920;
}
);
note = uni4EAC;
unicode = 4EAC;
}
{
glyphname = uni4EAD;
layers = (
{
layerId = "A8B8C001-3175-4DE2-BFCE-CA439A51AAC8";
paths = (
{
closed = 1;
nodes = (
"210 387 LINE",
"696 406 LINE",
"741 450 LINE",
"750 583 LINE",
"700 633 LINE",
"185 600 LINE",
"141 545 LINE",
"162 426 LINE"
);
},
{
closed = 1;
nodes = (
"135 102 LINE",
"454 113 LINE",
"450 43 LINE",
"282 61 LINE",
"272 -33 LINE",
"488 -55 LINE",
"540 -12 LINE",
"548 116 LINE",
"837 126 LINE",
"833 220 LINE",
"131 196 LINE"
);
},
{
closed = 1;
nodes = (
"848 237 LINE",
"863 343 LINE",
"813 396 LINE",
"156 345 LINE",
"150 376 LINE",
"57 358 LINE",
"87 211 LINE",
"180 230 LINE",
"175 252 LINE",
"762 298 LINE",
"755 250 LINE"
);
},
{
closed = 1;
nodes = (
"90 631 LINE",
"850 660 LINE",
"846 753 LINE",
"515 741 LINE",
"515 773 LINE",
"421 773 LINE",
"421 738 LINE",
"86 726 LINE"
);
},
{
closed = 1;
nodes = (
"242 508 LINE",
"652 536 LINE",
"650 498 LINE",
"247 483 LINE"
);
}
);
width = 920;
}
);
note = uni4EAD;
unicode = 4EAD;
}
{
glyphname = uni4EAE;
layers = (
{
layerId = "A8B8C001-3175-4DE2-BFCE-CA439A51AAC8";
paths = (
{
closed = 1;
nodes = (
"833 -82 LINE",
"846 10 LINE",
"687 33 LINE",
"713 163 LINE",
"667 219 LINE",
"277 215 LINE",
"231 174 LINE",
"216 44 LINE",
"86 16 LINE",
"106 -75 LINE",
"268 -40 LINE",
"306 0 LINE",
"320 121 LINE",
"610 125 LINE",
"585 3 LINE",
"625 -52 LINE"
);
},
{
closed = 1;
nodes = (
"92 119 LINE",
"183 146 LINE",
"155 241 LINE",
"768 254 LINE",
"747 155 LINE",
"838 135 LINE",
"873 293 LINE",
"827 350 LINE",
"92 334 LINE",
"47 274 LINE"
);
},
{
closed = 1;
nodes = (
"268 485 LINE",
"666 509 LINE",
"653 463 LINE",
"278 453 LINE"
);
},
{
closed = 1;
nodes = (
"245 358 LINE",
"690 369 LINE",
"733 403 LINE",
"776 546 LINE",
"727 606 LINE",
"205 576 LINE",
"162 516 LINE",
"198 391 LINE"
);
},
{
closed = 1;
nodes = (
"95 608 LINE",
"828 639 LINE",
"823 733 LINE",
"523 720 LINE",
"500 801 LINE",
"408 774 LINE",
"426 715 LINE",
"91 701 LINE"
);
}
);
width = 920;
}
);
note = uni4EAE;
unicode = 4EAE;
}
{
glyphname = uni4EB2;
layers = (
{
layerId = "A8B8C001-3175-4DE2-BFCE-CA439A51AAC8";
paths = (
{
closed = 1;
nodes = (
"801 224 LINE",
"799 319 LINE",
"562 314 LINE",
"555 393 LINE",
"865 420 LINE",
"856 515 LINE",
"681 499 LINE",
"726 548 LINE",
"661 608 LINE",
"838 615 LINE",
"834 710 LINE",
"508 698 LINE",
"456 798 LINE",
"373 754 LINE",
"404 694 LINE",
"80 683 LINE",
"84 588 LINE",
"654 608 LINE",
"542 487 LINE",
"359 471 LINE",
"294 570 LINE",
"216 519 LINE",
"253 462 LINE",
"55 445 LINE",
"64 352 LINE",
"460 385 LINE",
"467 312 LINE",
"126 305 LINE",
"129 212 LINE",
"475 218 LINE",
"488 64 LINE",
"363 7 LINE",
"401 -78 LINE",
"556 -8 LINE",
"584 39 LINE",
"569 219 LINE"
);
},
{
closed = 1;
nodes = (
"373 114 LINE",
"315 188 LINE",
"89 12 LINE",
"146 -61 LINE"
);
},
{
closed = 1;
nodes = (
"863 43 LINE",
"674 179 LINE",
"619 103 LINE",
"808 -33 LINE"
);
}
);
width = 920;
}
);
note = uni4EB2;
unicode = 4EB2;
}
{
glyphname = uni4EB3;
layers = (
{
layerId = "A8B8C001-3175-4DE2-BFCE-CA439A51AAC8";
paths = (
{
closed = 1;
nodes = (
"265 130 LINE",
"409 151 LINE",
"410 110 LINE",
"73 88 LINE",
"78 -7 LINE",
"411 15 LINE",
"412 -45 LINE",
"457 -91 LINE",
"730 -103 LINE",
"735 -10 LINE",
"505 0 LINE",
"505 22 LINE",
"877 47 LINE",
"870 140 LINE",
"504 116 LINE",
"503 164 LINE",
"660 187 LINE",
"647 280 LINE",
"252 224 LINE"
);
},
{
closed = 1;
nodes = (
"273 380 LINE",
"584 399 LINE",
"628 438 LINE",
"655 597 LINE",
"603 652 LINE",
"224 612 LINE",
"184 552 LINE",
"225 414 LINE"
);
},
{
closed = 1;
nodes = (
"53 183 LINE",
"148 190 LINE",
"142 255 LINE",
"775 299 LINE",
"775 197 LINE",
"869 197 LINE",
"869 349 LINE",
"819 397 LINE",
"88 347 LINE",
"44 295 LINE"
);
},
{
closed = 1;
nodes = (
"80 614 LINE",
"738 688 LINE",
"728 782 LINE",
"393 744 LINE",
"329 823 LINE",
"257 763 LINE",
"282 732 LINE",
"70 708 LINE"
);
},
{
closed = 1;
nodes = (
"290 524 LINE",
"552 552 LINE",
"540 490 LINE",
"304 477 LINE"
);
}
);
width = 920;
}
);
note = uni4EB3;
unicode = 4EB3;
}
{
glyphname = uni4EB5;
layers = (
{
layerId = "A8B8C001-3175-4DE2-BFCE-CA439A51AAC8";
paths = (
{
closed = 1;
nodes = (
"890 333 LINE",
"855 420 LINE",
"737 373 LINE",
"759 500 LINE",
"714 555 LINE",
"593 557 LINE",
"605 605 LINE",
"514 627 LINE",
"497 558 LINE",
"313 561 LINE",
"310 604 LINE",
"217 597 LINE",
"219 563 LINE",
"93 565 LINE",
"92 470 LINE",
"226 468 LINE",
"229 429 LINE",
"119 408 LINE",
"137 315 LINE",
"236 334 LINE",
"238 314 LINE",
"90 275 LINE",
"114 184 LINE",
"299 233 LINE",
"334 282 LINE",
"328 352 LINE",
"389 364 LINE",
"372 457 LINE",
"321 447 LINE",
"320 467 LINE",
"474 465 LINE",
"468 439 LINE",
"437 453 LINE",
"399 367 LINE",
"445 347 LINE",
"435 305 LINE",
"527 283 LINE",
"533 309 LINE",
"588 285 LINE",
"625 372 LINE",
"556 401 LINE",
"571 464 LINE",
"657 463 LINE",
"629 305 LINE",
"693 254 LINE"
);
},
{
closed = 1;
nodes = (
"815 645 LINE",
"810 739 LINE",
"454 719 LINE",
"408 803 LINE",
"325 757 LINE",
"349 714 LINE",
"39 697 LINE",
"44 603 LINE"
);
},
{
closed = 1;
nodes = (
"425 148 LINE",
"393 237 LINE",
"29 103 LINE",
"62 14 LINE",
"183 58 LINE",
"192 -40 LINE",
"255 -80 LINE",
"499 12 LINE",
"467 99 LINE",
"280 30 LINE",
"275 92 LINE"
);
},
{
closed = 1;
nodes = (
"813 -17 LINE",
"710 86 LINE",
"814 150 LINE",
"764 230 LINE",
"642 155 LINE",
"540 258 LINE",
"473 192 LINE",
"745 -83 LINE"
);
}
);
width = 920;
}
);
note = uni4EB5;
unicode = 4EB5;
}
{
glyphname = uni4EBA;
layers = (
{
layerId = "A8B8C001-3175-4DE2-BFCE-CA439A51AAC8";
paths = (
{
closed = 1;
nodes = (
"804 -1 LINE",
"869 68 LINE",
"490 424 LINE",
"425 356 LINE"
);
},
{
closed = 1;
nodes = (
"131 -39 LINE",
"580 709 LINE",
"500 758 LINE",
"51 9 LINE"
);
}
);
width = 920;
}
);
note = uni4EBA;
unicode = 4EBA;
}
{
glyphname = uni4EBB;
layers = (
{
layerId = "A8B8C001-3175-4DE2-BFCE-CA439A51AAC8";
paths = (
{
closed = 1;
nodes = (
"542 -56 LINE",
"572 517 LINE",
"478 522 LINE",
"447 -53 LINE"
);
},
{
closed = 1;
nodes = (
"237 364 LINE",
"737 697 LINE",
"684 776 LINE",
"184 442 LINE"
);
}
);
width = 920;
}
);
note = uni4EBB;
unicode = 4EBB;
}
{
glyphname = uni4EBF;
layers = (
{
layerId = "A8B8C001-3175-4DE2-BFCE-CA439A51AAC8";
paths = (
{
closed = 1;
nodes = (
"856 12 LINE",
"902 265 LINE",
"809 281 LINE",
"771 70 LINE",
"468 89 LINE",
"849 637 LINE",
"813 711 LINE",
"372 729 LINE",
"368 634 LINE",
"723 620 LINE",
"342 75 LINE",
"378 0 LINE",
"807 -26 LINE"
);
},
{
closed = 1;
nodes = (
"337 716 LINE",
"263 775 LINE",
"18 464 LINE",
"93 405 LINE",
"139 463 LINE",
"187 -56 LINE",
"281 -49 LINE",
"223 571 LINE"
);
}
);
width = 920;
}
);
note = uni4EBF;
unicode = 4EBF;
}
{
glyphname = uni4EC0;
layers = (
{
layerId = "A8B8C001-3175-4DE2-BFCE-CA439A51AAC8";
paths = (
{
closed = 1;
nodes = (
"317 308 LINE",
"548 338 LINE",
"556 -35 LINE",
"650 -33 LINE",
"642 350 LINE",
"889 382 LINE",
"876 476 LINE",
"640 445 LINE",
"634 748 LINE",
"540 746 LINE",
"546 432 LINE",
"306 401 LINE"
);
},
{
closed = 1;
nodes = (
"79 473 LINE",
"170 526 LINE",
"181 -35 LINE",
"275 -33 LINE",
"262 579 LINE",
"424 673 LINE",
"377 755 LINE",
"31 555 LINE"
);
}
);
width = 920;
}
);
note = uni4EC0;
unicode = 4EC0;
}
{
glyphname = uni4EC1;
layers = (
{
layerId = "A8B8C001-3175-4DE2-BFCE-CA439A51AAC8";
paths = (
{
closed = 1;
nodes = (
"114 391 LINE",
"184 464 LINE",
"184 -32 LINE",
"277 -32 LINE",
"277 534 LINE",
"250 534 LINE",
"396 688 LINE",
"327 753 LINE",
"46 456 LINE"
);
},
{
closed = 1;
nodes = (
"870 30 LINE",
"874 124 LINE",
"302 140 LINE",
"300 46 LINE"
);
},
{
closed = 1;
nodes = (
"369 448 LINE",
"815 526 LINE",
"799 619 LINE",
"352 541 LINE"
);
}
);
width = 920;
}
);
note = uni4EC1;
unicode = 4EC1;
}
{
glyphname = uni4EC2;
layers = (
{
layerId = "A8B8C001-3175-4DE2-BFCE-CA439A51AAC8";
paths = (
{
closed = 1;
nodes = (
"395 -41 LINE",
"553 533 LINE",
"786 552 LINE",
"725 57 LINE",
"605 107 LINE",
"570 19 LINE",
"746 -53 LINE",
"811 -16 LINE",
"887 598 LINE",
"836 651 LINE",
"580 631 LINE",
"605 723 LINE",
"515 748 LINE",
"480 623 LINE",
"298 609 LINE",
"306 514 LINE",
"453 525 LINE",
"305 -16 LINE"
);
},
{
closed = 1;
nodes = (
"98 474 LINE",
"138 514 LINE",
"157 -64 LINE",
"252 -61 LINE",
"228 603 LINE",
"342 717 LINE",
"276 783 LINE",
"32 542 LINE"
);
}
);
width = 920;
}
);
note = uni4EC2;
unicode = 4EC2;
}
{
glyphname = uni4EC3;
layers = (
{
layerId = "A8B8C001-3175-4DE2-BFCE-CA439A51AAC8";
paths = (
{
closed = 1;
nodes = (
"350 585 LINE",
"612 598 LINE",
"612 41 LINE",
"398 82 LINE",
"381 -10 LINE",
"651 -61 LINE",
"707 -15 LINE",
"707 603 LINE",
"883 612 LINE",
"878 706 LINE",
"345 679 LINE"
);
},
{
closed = 1;
nodes = (
"96 510 LINE",
"159 560 LINE",
"150 -44 LINE",
"243 -45 LINE",
"255 630 LINE",
"247 630 LINE",
"342 706 LINE",
"283 780 LINE",
"37 584 LINE"
);
}
);
width = 920;
}
);
note = uni4EC3;
unicode = 4EC3;
}
{
glyphname = uni4EC4;
layers = (
{
layerId = "A8B8C001-3175-4DE2-BFCE-CA439A51AAC8";
paths = (
{
closed = 1;
nodes = (
"778 -25 LINE",
"835 49 LINE",
"549 269 LINE",
"491 194 LINE"
);
},
{
closed = 1;
nodes = (
"360 -38 LINE",
"600 541 LINE",
"513 577 LINE",
"273 -1 LINE"
);
},
{
closed = 1;
nodes = (
"179 -41 LINE",
"226 646 LINE",
"834 666 LINE",
"830 761 LINE",
"181 739 LINE",
"135 695 LINE",
"85 -35 LINE"
);
}
);
width = 920;
}
);
note = uni4EC4;
unicode = 4EC4;
}
{
glyphname = uni4EC5;
layers = (
{
layerId = "A8B8C001-3175-4DE2-BFCE-CA439A51AAC8";
paths = (
{
closed = 1;
nodes = (
"897 584 LINE",
"872 659 LINE",
"420 765 LINE",
"399 674 LINE",
"778 584 LINE",
"593 350 LINE",
"433 532 LINE",
"363 469 LINE",
"534 275 LINE",
"319 3 LINE",
"393 -53 LINE",
"597 205 LINE",
"790 -13 LINE",
"860 49 LINE",
"656 279 LINE"
);
},
{
closed = 1;
nodes = (
"364 714 LINE",
"290 773 LINE",
"24 432 LINE",
"99 373 LINE",
"151 440 LINE",
"183 -27 LINE",
"277 -21 LINE",
"239 537 LINE",
"225 536 LINE"
);
}
);
width = 920;
}
);
note = uni4EC5;
unicode = 4EC5;
}
{
glyphname = uni4EC6;
layers = (
{
layerId = "A8B8C001-3175-4DE2-BFCE-CA439A51AAC8";
paths = (
{
closed = 1;
nodes = (
"540 -41 LINE",
"634 -39 LINE",
"622 400 LINE",
"854 316 LINE",
"885 405 LINE",
"619 502 LINE",
"612 760 LINE",
"517 757 LINE"
);
},
{
closed = 1;
nodes = (
"89 460 LINE",
"198 533 LINE",
"171 -36 LINE",
"265 -41 LINE",
"296 598 LINE",
"412 676 LINE",
"360 755 LINE",
"36 537 LINE"
);
}
);
width = 920;
}
);
note = uni4EC6;
unicode = 4EC6;
}
{
glyphname = uni4EC7;
layers = (
{
layerId = "A8B8C001-3175-4DE2-BFCE-CA439A51AAC8";
paths = (
{
closed = 1;
nodes = (
"410 -32 LINE",
"551 482 LINE",
"722 500 LINE",
"669 69 LINE",
"695 21 LINE",
"845 -47 LINE",
"885 38 LINE",
"767 93 LINE",
"822 546 LINE",
"770 599 LINE",
"577 579 LINE",
"622 741 LINE",
"532 766 LINE",
"477 569 LINE",
"304 551 LINE",
"314 458 LINE",
"451 472 LINE",
"319 -7 LINE"
);
},
{
closed = 1;
nodes = (
"242 -25 LINE",
"299 450 LINE",
"249 503 LINE",
"194 500 LINE",
"368 660 LINE",
"304 729 LINE",
"34 481 LINE",
"68 399 LINE",
"199 405 LINE",
"148 -14 LINE"
);
}
);
width = 920;
}
);
note = uni4EC7;
unicode = 4EC7;
}
{
glyphname = uni4EC9;
layers = (
{
layerId = "A8B8C001-3175-4DE2-BFCE-CA439A51AAC8";
paths = (
{
closed = 1;
nodes = (
"867 -37 LINE",
"900 52 LINE",
"781 95 LINE",
"827 667 LINE",
"777 718 LINE",
"424 693 LINE",
"380 651 LINE",
"319 -25 LINE",
"412 -34 LINE",
"470 602 LINE",
"729 620 LINE",
"685 66 LINE",
"716 18 LINE"
);
},
{
closed = 1;
nodes = (
"235 -55 LINE",
"254 622 LINE",
"374 692 LINE",
"326 773 LINE",
"21 598 LINE",
"69 516 LINE",
"158 567 LINE",
"141 -53 LINE"
);
}
);
width = 920;
}
);
note = uni4EC9;
unicode = 4EC9;
}
{
glyphname = uni4ECA;
layers = (
{
layerId = "A8B8C001-3175-4DE2-BFCE-CA439A51AAC8";
paths = (
{
closed = 1;
nodes = (
"84 360 LINE",
"423 633 LINE",
"849 395 LINE",
"895 478 LINE",
"503 697 LINE",
"529 718 LINE",
"470 791 LINE",
"25 434 LINE"
);
},
{
closed = 1;
nodes = (
"436 -72 LINE",
"749 244 LINE",
"718 324 LINE",
"234 358 LINE",
"228 264 LINE",
"609 238 LINE",
"369 -6 LINE"
);
},
{
closed = 1;
nodes = (
"551 356 LINE",
"613 429 LINE",
"439 573 LINE",
"379 501 LINE"
);
}
);
width = 920;
}
);
note = uni4ECA;
unicode = 4ECA;
}
{
glyphname = uni4ECB;
layers = (
{
layerId = "A8B8C001-3175-4DE2-BFCE-CA439A51AAC8";
paths = (
{
closed = 1;
nodes = (
"630 -48 LINE",
"723 -43 LINE",
"692 450 LINE",
"597 445 LINE"
);
},
{
closed = 1;
nodes = (
"190 -45 LINE",
"332 105 LINE",
"346 132 LINE",
"382 424 LINE",
"288 437 LINE",
"253 159 LINE",
"121 19 LINE"
);
},
{
closed = 1;
nodes = (
"835 402 LINE",
"872 488 LINE",
"510 647 LINE",
"471 560 LINE"
);
},
{
closed = 1;
nodes = (
"113 318 LINE",
"496 702 LINE",
"428 768 LINE",
"47 384 LINE"
);
}
);
width = 920;
}
);
note = uni4ECB;
unicode = 4ECB;
}
{
glyphname = uni4ECD;
layers = (
{
layerId = "A8B8C001-3175-4DE2-BFCE-CA439A51AAC8";
paths = (
{
closed = 1;
nodes = (
"408 -24 LINE",
"512 285 LINE",
"513 295 LINE",
"548 654 LINE",
"708 644 LINE",
"602 441 LINE",
"634 372 LINE",
"777 346 LINE",
"738 109 LINE",
"594 45 LINE",
"632 -41 LINE",
"801 34 LINE",
"828 69 LINE",
"877 376 LINE",
"839 430 LINE",
"714 454 LINE",
"826 665 LINE",
"787 734 LINE",
"371 760 LINE",
"364 666 LINE",
"454 660 LINE",
"421 310 LINE",
"319 5 LINE"
);
},
{
closed = 1;
nodes = (
"111 449 LINE",
"186 527 LINE",
"167 -8 LINE",
"262 -11 LINE",
"281 551 LINE",
"212 554 LINE",
"332 679 LINE",
"264 745 LINE",
"43 514 LINE"
);
}
);
width = 920;
}
);
note = uni4ECD;
unicode = 4ECD;
}
{
glyphname = uni4ECE;
layers = (
{
layerId = "A8B8C001-3175-4DE2-BFCE-CA439A51AAC8";
paths = (
{
closed = 1;
nodes = (
"741 730 LINE",
"654 765 LINE",
"349 -10 LINE",
"436 -45 LINE",
"570 296 LINE",
"811 50 LINE",
"879 116 LINE",
"608 391 LINE"
);
},
{
closed = 1;
nodes = (
"357 733 LINE",
"267 761 LINE",
"41 48 LINE",
"131 20 LINE",
"220 300 LINE",
"359 162 LINE",
"425 230 LINE",
"252 402 LINE"
);
}
);
width = 920;
}
);
note = uni4ECE;
unicode = 4ECE;
}
{
glyphname = uni4ED1;
layers = (
{
layerId = "A8B8C001-3175-4DE2-BFCE-CA439A51AAC8";
paths = (
{
closed = 1;
nodes = (
"877 547 LINE",
"515 677 LINE",
"562 717 LINE",
"501 790 LINE",
"43 395 LINE",
"104 324 LINE",
"225 428 LINE",
"236 21 LINE",
"277 -24 LINE",
"708 -71 LINE",
"757 -41 LINE",
"862 229 LINE",
"773 262 LINE",
"682 25 LINE",
"328 65 LINE",
"325 156 LINE",
"704 316 LINE",
"668 402 LINE",
"323 256 LINE",
"317 505 LINE",
"314 505 LINE",
"434 607 LINE",
"844 460 LINE"
);
}
);
width = 920;
}
);
note = uni4ED1;
unicode = 4ED1;
}
{
glyphname = uni4ED3;
layers = (
{
layerId = "A8B8C001-3175-4DE2-BFCE-CA439A51AAC8";
paths = (
{
closed = 1;
nodes = (
"786 -26 LINE",
"822 157 LINE",
"730 176 LINE",
"701 33 LINE",
"277 61 LINE",
"292 342 LINE",
"627 364 LINE",
"606 228 LINE",
"432 269 LINE",
"410 178 LINE",
"635 124 LINE",
"692 163 LINE",
"730 408 LINE",
"680 462 LINE",
"245 433 LINE",
"201 389 LINE",
"180 19 LINE",
"225 -31 LINE",
"737 -64 LINE"
);
},
{
closed = 1;
nodes = (
"568 704 LINE",
"517 783 LINE",
"52 487 LINE",
"103 407 LINE",
"436 620 LINE",
"831 449 LINE",
"868 536 LINE",
"532 681 LINE"
);
}
);
width = 920;
}
);
note = uni4ED3;
unicode = 4ED3;
}
{
glyphname = uni4ED4;
layers = (
{
layerId = "A8B8C001-3175-4DE2-BFCE-CA439A51AAC8";
paths = (
{
closed = 1;
nodes = (
"307 204 LINE",
"560 239 LINE",
"570 87 LINE",
"451 10 LINE",
"502 -68 LINE",
"643 23 LINE",
"665 65 LINE",
"653 252 LINE",
"907 287 LINE",
"895 379 LINE",
"648 345 LINE",
"642 439 LINE",
"861 638 LINE",
"833 719 LINE",
"342 752 LINE",
"336 657 LINE",
"716 633 LINE",
"562 494 LINE",
"547 457 LINE",
"554 332 LINE",
"295 297 LINE"
);
},
{
closed = 1;
nodes = (
"90 435 LINE",
"152 527 LINE",
"165 -30 LINE",
"258 -27 LINE",
"247 544 LINE",
"162 542 LINE",
"293 735 LINE",
"216 788 LINE",
"12 488 LINE"
);
}
);
width = 920;
}
);
note = uni4ED4;
unicode = 4ED4;
}
{
glyphname = uni4ED5;
layers = (
{
layerId = "A8B8C001-3175-4DE2-BFCE-CA439A51AAC8";
paths = (
{
closed = 1;
nodes = (
"869 471 LINE",
"870 565 LINE",
"656 569 LINE",
"670 755 LINE",
"577 761 LINE",
"563 571 LINE",
"328 576 LINE",
"325 482 LINE",
"556 477 LINE",
"527 77 LINE",
"345 70 LINE",
"349 -25 LINE",
"840 -6 LINE",
"837 89 LINE",
"622 80 LINE",
"650 475 LINE"
);
},
{
closed = 1;
nodes = (
"115 469 LINE",
"165 520 LINE",
"199 -41 LINE",
"293 -36 LINE",
"259 535 LINE",
"176 530 LINE",
"328 684 LINE",
"260 750 LINE",
"49 535 LINE"
);
}
);
width = 920;
}
);
note = uni4ED5;
unicode = 4ED5;
}
{
glyphname = uni4ED6;
layers = (
{
layerId = "A8B8C001-3175-4DE2-BFCE-CA439A51AAC8";
paths = (
{
closed = 1;
nodes = (
"575 257 LINE",
"669 265 LINE",
"647 510 LINE",
"772 547 LINE",
"763 265 LINE",
"690 219 LINE",
"739 139 LINE",
"834 198 LINE",
"857 237 LINE",
"867 608 LINE",
"807 655 LINE",
"639 606 LINE",
"625 768 LINE",
"530 759 LINE",
"546 578 LINE",
"472 557 LINE",
"472 660 LINE",
"377 660 LINE",
"377 529 LINE",
"290 504 LINE",
"317 414 LINE",
"377 431 LINE",
"377 87 LINE",
"415 40 LINE",
"844 -48 LINE",
"863 44 LINE",
"472 124 LINE",
"472 459 LINE",
"554 483 LINE"
);
},
{
closed = 1;
nodes = (
"113 484 LINE",
"162 524 LINE",
"190 -40 LINE",
"285 -35 LINE",
"253 598 LINE",
"333 663 LINE",
"274 735 LINE",
"54 558 LINE"
);
}
);
width = 920;
}
);
note = uni4ED6;
unicode = 4ED6;
}
{
glyphname = uni4ED7;
layers = (
{
layerId = "A8B8C001-3175-4DE2-BFCE-CA439A51AAC8";
paths = (
{
closed = 1;
nodes = (
"888 553 LINE",
"892 647 LINE",
"759 652 LINE",
"765 765 LINE",
"670 768 LINE",
"664 655 LINE",
"337 668 LINE",
"333 575 LINE",
"659 562 LINE",
"653 452 LINE",
"542 312 LINE",
"432 403 LINE",
"372 330 LINE",
"483 238 LINE",
"301 8 LINE",
"375 -50 LINE",
"556 178 LINE",
"785 -10 LINE",
"845 62 LINE",
"615 252 LINE",
"737 406 LINE",
"747 432 LINE",
"754 558 LINE"
);
},
{
closed = 1;
nodes = (
"232 -37 LINE",
"246 637 LINE",
"336 687 LINE",
"290 770 LINE",
"27 622 LINE",
"73 540 LINE",
"150 583 LINE",
"138 -34 LINE"
);
}
);
width = 920;
}
);
note = uni4ED7;
unicode = 4ED7;
}
{
glyphname = uni4ED8;
layers = (
{
layerId = "A8B8C001-3175-4DE2-BFCE-CA439A51AAC8";
paths = (
{
closed = 1;
nodes = (
"341 493 LINE",
"695 513 LINE",
"682 62 LINE",
"522 66 LINE",
"520 -29 LINE",
"727 -34 LINE",
"775 12 LINE",
"790 518 LINE",
"889 524 LINE",
"884 619 LINE",
"793 614 LINE",
"797 749 LINE",
"702 752 LINE",
"698 608 LINE",
"336 588 LINE"
);
},
{
closed = 1;
nodes = (
"104 401 LINE",
"152 459 LINE",
"197 -14 LINE",
"292 -6 LINE",
"238 562 LINE",
"347 693 LINE",
"274 753 LINE",
"31 462 LINE"
);
},
{
closed = 1;
nodes = (
"557 111 LINE",
"636 162 LINE",
"469 419 LINE",
"389 367 LINE"
);
}
);
width = 920;
}
);
note = uni4ED8;
unicode = 4ED8;
}
{
glyphname = uni4ED9;
layers = (
{
layerId = "A8B8C001-3175-4DE2-BFCE-CA439A51AAC8";
paths = (
{
closed = 1;
nodes = (
"397 34 LINE",
"768 83 LINE",
"760 -25 LINE",
"853 -31 LINE",
"893 522 LINE",
"800 529 LINE",
"775 179 LINE",
"659 163 LINE",
"648 746 LINE",
"555 745 LINE",
"565 151 LINE",
"437 134 LINE",
"426 467 LINE",
"332 464 LINE",
"345 79 LINE"
);
},
{
closed = 1;
nodes = (
"93 432 LINE",
"171 510 LINE",
"200 -30 LINE",
"293 -25 LINE",
"260 598 LINE",
"346 684 LINE",
"280 751 LINE",
"27 499 LINE"
);
}
);
width = 920;
}
);
note = uni4ED9;
unicode = 4ED9;
}
{
glyphname = uni4EDD;
layers = (
{
layerId = "A8B8C001-3175-4DE2-BFCE-CA439A51AAC8";
paths = (
{
closed = 1;
nodes = (
"220 277 LINE",
"406 284 LINE",
"414 54 LINE",
"169 49 LINE",
"170 -44 LINE",
"785 -32 LINE",
"783 63 LINE",
"509 56 LINE",
"500 287 LINE",
"685 294 LINE",
"682 388 LINE",
"217 371 LINE"
);
},
{
closed = 1;
nodes = (
"130 309 LINE",
"412 587 LINE",
"802 308 LINE",
"857 386 LINE",
"480 654 LINE",
"523 696 LINE",
"457 763 LINE",
"64 377 LINE"
);
}
);
width = 920;
}
);
note = uni4EDD;
unicode = 4EDD;
}
{
glyphname = uni4EDE;
layers = (
{
layerId = "A8B8C001-3175-4DE2-BFCE-CA439A51AAC8";
paths = (
{
closed = 1;
nodes = (
"477 -42 LINE",
"651 617 LINE",
"801 605 LINE",
"773 85 LINE",
"644 115 LINE",
"623 24 LINE",
"807 -20 LINE",
"864 24 LINE",
"897 646 LINE",
"853 695 LINE",
"383 734 LINE",
"376 640 LINE",
"554 625 LINE",
"386 -19 LINE"
);
},
{
closed = 1;
nodes = (
"92 439 LINE",
"164 516 LINE",
"178 -31 LINE",
"272 -29 LINE",
"257 596 LINE",
"237 595 LINE",
"332 698 LINE",
"263 761 LINE",
"23 504 LINE"
);
},
{
closed = 1;
nodes = (
"426 241 LINE",
"486 515 LINE",
"393 536 LINE",
"333 261 LINE"
);
}
);
width = 920;
}
);
note = uni4EDE;
unicode = 4EDE;
}
{
glyphname = uni4EDF;
layers = (
{
layerId = "A8B8C001-3175-4DE2-BFCE-CA439A51AAC8";
paths = (
{
closed = 1;
nodes = (
"880 332 LINE",
"870 426 LINE",
"676 404 LINE",
"669 615 LINE",
"574 612 LINE",
"581 394 LINE",
"332 366 LINE",
"344 272 LINE",
"584 299 LINE",
"597 -61 LINE",
"692 -58 LINE",
"679 309 LINE"
);
},
{
closed = 1;
nodes = (
"320 732 LINE",
"237 780 LINE",
"41 446 LINE",
"122 399 LINE",
"188 511 LINE",
"150 -53 LINE",
"245 -58 LINE",
"289 586 LINE",
"235 589 LINE"
);
},
{
closed = 1;
nodes = (
"835 689 LINE",
"815 781 LINE",
"376 689 LINE",
"395 596 LINE"
);
}
);
width = 920;
}
);
note = uni4EDF;
unicode = 4EDF;
}
{
glyphname = uni4EE1;
layers = (
{
layerId = "A8B8C001-3175-4DE2-BFCE-CA439A51AAC8";
paths = (
{
closed = 1;
nodes = (
"849 -55 LINE",
"864 37 LINE",
"523 92 LINE",
"877 407 LINE",
"841 490 LINE",
"353 440 LINE",
"363 346 LINE",
"706 381 LINE",
"386 96 LINE",
"409 15 LINE"
);
},
{
closed = 1;
nodes = (
"114 463 LINE",
"155 510 LINE",
"178 -52 LINE",
"272 -48 LINE",
"246 592 LINE",
"226 591 LINE",
"331 711 LINE",
"259 773 LINE",
"43 526 LINE"
);
},
{
closed = 1;
nodes = (
"393 530 LINE",
"864 615 LINE",
"848 707 LINE",
"481 642 LINE",
"528 717 LINE",
"448 767 LINE",
"344 601 LINE"
);
}
);
width = 920;
}
);
note = uni4EE1;
unicode = 4EE1;
}
{
glyphname = uni4EE3;
layers = (
{
layerId = "A8B8C001-3175-4DE2-BFCE-CA439A51AAC8";
paths = (
{
closed = 1;
nodes = (
"327 399 LINE",
"497 427 LINE",
"514 129 LINE",
"539 90 LINE",
"815 -63 LINE",
"862 20 LINE",
"608 160 LINE",
"591 442 LINE",
"897 493 LINE",
"882 587 LINE",
"767 568 LINE",
"833 609 LINE",
"724 783 LINE",
"644 732 LINE",
"749 565 LINE",
"586 538 LINE",
"575 724 LINE",
"480 719 LINE",
"491 522 LINE",
"312 493 LINE"
);
},
{
closed = 1;
nodes = (
"90 488 LINE",
"168 564 LINE",
"150 -52 LINE",
"245 -56 LINE",
"265 628 LINE",
"234 628 LINE",
"310 703 LINE",
"244 770 LINE",
"24 555 LINE"
);
}
);
width = 920;
}
);
note = uni4EE3;
unicode = 4EE3;
}
{
glyphname = uni4EE4;
layers = (
{
layerId = "A8B8C001-3175-4DE2-BFCE-CA439A51AAC8";
paths = (
{
closed = 1;
nodes = (
"524 -71 LINE",
"576 9 LINE",
"526 40 LINE",
"739 259 LINE",
"704 339 LINE",
"189 334 LINE",
"191 240 LINE",
"592 244 LINE",
"444 91 LINE",
"292 186 LINE",
"242 106 LINE"
);
},
{
closed = 1;
nodes = (
"104 379 LINE",
"417 610 LINE",
"831 406 LINE",
"872 491 LINE",
"501 672 LINE",
"559 715 LINE",
"503 790 LINE",
"48 454 LINE"
);
},
{
closed = 1;
nodes = (
"507 355 LINE",
"568 426 LINE",
"406 566 LINE",
"344 495 LINE"
);
}
);
width = 920;
}
);
note = uni4EE4;
unicode = 4EE4;
}
{
glyphname = uni4EE5;
layers = (
{
layerId = "A8B8C001-3175-4DE2-BFCE-CA439A51AAC8";
paths = (
{
closed = 1;
nodes = (
"450 -40 LINE",
"593 274 LINE",
"786 32 LINE",
"860 91 LINE",
"637 370 LINE",
"796 718 LINE",
"710 758 LINE",
"364 -3 LINE"
);
},
{
closed = 1;
nodes = (
"140 -8 LINE",
"384 210 LINE",
"321 280 LINE",
"159 135 LINE",
"176 752 LINE",
"82 755 LINE",
"61 28 LINE"
);
},
{
closed = 1;
nodes = (
"416 436 LINE",
"502 475 LINE",
"384 738 LINE",
"297 700 LINE"
);
}
);
width = 920;
}
);
note = uni4EE5;
unicode = 4EE5;
}
{
glyphname = uni4EE8;
layers = (
{
layerId = "A8B8C001-3175-4DE2-BFCE-CA439A51AAC8";
paths = (
{
closed = 1;
nodes = (
"97 443 LINE",
"151 504 LINE",
"167 -48 LINE",
"262 -46 LINE",
"242 567 LINE",
"205 566 LINE",
"329 707 LINE",
"259 768 LINE",
"26 504 LINE"
);
},
{
closed = 1;
nodes = (
"319 -38 LINE",
"895 -3 LINE",
"889 90 LINE",
"312 55 LINE"
);
},
{
closed = 1;
nodes = (
"351 544 LINE",
"856 588 LINE",
"849 682 LINE",
"342 638 LINE"
);
},
{
closed = 1;
nodes = (
"767 299 LINE",
"772 393 LINE",
"421 414 LINE",
"415 319 LINE"
);
}
);
width = 920;
}
);
note = uni4EE8;
unicode = 4EE8;
}
{
glyphname = uni4EEA;
layers = (
{
layerId = "A8B8C001-3175-4DE2-BFCE-CA439A51AAC8";
paths = (
{
closed = 1;
nodes = (
"866 15 LINE",
"640 300 LINE",
"905 698 LINE",
"826 750 LINE",
"579 377 LINE",
"372 640 LINE",
"299 581 LINE",
"524 295 LINE",
"329 0 LINE",
"407 -52 LINE",
"585 217 LINE",
"792 -44 LINE"
);
},
{
closed = 1;
nodes = (
"294 728 LINE",
"211 773 LINE",
"16 409 LINE",
"99 364 LINE",
"152 462 LINE",
"140 -44 LINE",
"234 -46 LINE",
"247 553 LINE",
"201 554 LINE"
);
},
{
closed = 1;
nodes = (
"654 621 LINE",
"570 770 LINE",
"487 724 LINE",
"571 575 LINE"
);
}
);
width = 920;
}
);
note = uni4EEA;
unicode = 4EEA;
}
{
glyphname = uni4EEB;
layers = (
{
layerId = "A8B8C001-3175-4DE2-BFCE-CA439A51AAC8";
paths = (
{
closed = 1;
nodes = (
"361 -29 LINE",
"767 57 LINE",
"826 -47 LINE",
"908 -1 LINE",
"766 251 LINE",
"685 205 LINE",
"719 143 LINE",
"460 89 LINE",
"777 536 LINE",
"701 591 LINE",
"312 45 LINE"
);
},
{
closed = 1;
nodes = (
"85 435 LINE",
"174 547 LINE",
"160 -40 LINE",
"253 -42 LINE",
"270 600 LINE",
"218 601 LINE",
"301 705 LINE",
"227 764 LINE",
"12 494 LINE"
);
},
{
closed = 1;
nodes = (
"367 324 LINE",
"667 710 LINE",
"593 768 LINE",
"292 381 LINE"
);
}
);
width = 920;
}
);
note = uni4EEB;
unicode = 4EEB;
}
{
glyphname = uni4EEC;
layers = (
{
layerId = "A8B8C001-3175-4DE2-BFCE-CA439A51AAC8";
paths = (
{
closed = 1;
nodes = (
"861 -23 LINE",
"896 22 LINE",
"908 695 LINE",
"857 742 LINE",
"550 713 LINE",
"560 620 LINE",
"813 643 LINE",
"802 60 LINE",
"673 26 LINE",
"697 -65 LINE"
);
},
{
closed = 1;
nodes = (
"253 -40 LINE",
"215 610 LINE",
"308 723 LINE",
"236 783 LINE",
"12 512 LINE",
"86 452 LINE",
"127 502 LINE",
"160 -47 LINE"
);
},
{
closed = 1;
nodes = (
"431 -47 LINE",
"416 582 LINE",
"322 580 LINE",
"337 -49 LINE"
);
},
{
closed = 1;
nodes = (
"543 611 LINE",
"406 777 LINE",
"332 717 LINE",
"471 551 LINE"
);
}
);
width = 920;
}
);
note = uni4EEC;
unicode = 4EEC;
}
{
glyphname = uni4EF0;
layers = (
{
layerId = "A8B8C001-3175-4DE2-BFCE-CA439A51AAC8";
paths = (
{
closed = 1;
nodes = (
"678 -56 LINE",
"687 607 LINE",
"792 607 LINE",
"792 207 LINE",
"744 227 LINE",
"708 140 LINE",
"820 94 LINE",
"887 136 LINE",
"887 655 LINE",
"839 702 LINE",
"640 702 LINE",
"593 656 LINE",
"584 -55 LINE"
);
},
{
closed = 1;
nodes = (
"105 450 LINE",
"162 516 LINE",
"133 -15 LINE",
"228 -20 LINE",
"260 559 LINE",
"201 562 LINE",
"333 715 LINE",
"262 776 LINE",
"34 511 LINE"
);
},
{
closed = 1;
nodes = (
"405 81 LINE",
"575 166 LINE",
"533 251 LINE",
"425 196 LINE",
"395 532 LINE",
"547 602 LINE",
"508 687 LINE",
"325 604 LINE",
"298 557 LINE",
"338 119 LINE"
);
}
);
width = 920;
}
);
note = uni4EF0;
unicode = 4EF0;
}
{
glyphname = uni4EF2;
layers = (
{
layerId = "A8B8C001-3175-4DE2-BFCE-CA439A51AAC8";
paths = (
{
closed = 1;
nodes = (
"445 115 LINE",
"589 144 LINE",
"588 -46 LINE",
"683 -46 LINE",
"684 163 LINE",
"812 189 LINE",
"850 229 LINE",
"892 536 LINE",
"843 590 LINE",
"687 583 LINE",
"688 766 LINE",
"593 766 LINE",
"591 579 LINE",
"388 570 LINE",
"343 517 LINE",
"388 155 LINE"
);
},
{
closed = 1;
nodes = (
"101 411 LINE",
"176 504 LINE",
"227 -29 LINE",
"321 -20 LINE",
"268 530 LINE",
"190 521 LINE",
"336 702 LINE",
"263 761 LINE",
"27 470 LINE"
);
},
{
closed = 1;
nodes = (
"443 479 LINE",
"591 484 LINE",
"589 240 LINE",
"476 217 LINE"
);
},
{
closed = 1;
nodes = (
"791 492 LINE",
"761 275 LINE",
"685 259 LINE",
"686 488 LINE"
);
}
);
width = 920;
}
);
note = uni4EF2;
unicode = 4EF2;
}
{
glyphname = uni4EF3;
layers = (
{
layerId = "A8B8C001-3175-4DE2-BFCE-CA439A51AAC8";
paths = (
{
closed = 1;
nodes = (
"828 -38 LINE",
"860 49 LINE",
"674 119 LINE",
"705 402 LINE",
"905 497 LINE",
"864 582 LINE",
"718 512 LINE",
"740 707 LINE",
"646 718 LINE",
"576 93 LINE",
"606 43 LINE"
);
},
{
closed = 1;
nodes = (
"95 425 LINE",
"154 522 LINE",
"125 -33 LINE",
"219 -38 LINE",
"253 608 LINE",
"208 610 LINE",
"268 709 LINE",
"186 758 LINE",
"15 474 LINE"
);
},
{
closed = 1;
nodes = (
"400 25 LINE",
"569 168 LINE",
"508 240 LINE",
"415 160 LINE",
"409 416 LINE",
"565 433 LINE",
"555 527 LINE",
"407 510 LINE",
"404 668 LINE",
"309 665 LINE",
"323 59 LINE"
);
}
);
width = 920;
}
);
note = uni4EF3;
unicode = 4EF3;
}
{
glyphname = uni4EF5;
layers = (
{
layerId = "A8B8C001-3175-4DE2-BFCE-CA439A51AAC8";
paths = (
{
closed = 1;
nodes = (
"650 -59 LINE",
"654 264 LINE",
"907 284 LINE",
"899 378 LINE",
"656 359 LINE",
"658 559 LINE",
"857 542 LINE",
"865 636 LINE",
"496 669 LINE",
"529 738 LINE",
"444 778 LINE",
"310 493 LINE",
"395 453 LINE",
"453 577 LINE",
"565 567 LINE",
"561 352 LINE",
"315 333 LINE",
"323 239 LINE",
"560 257 LINE",
"555 -58 LINE"
);
},
{
closed = 1;
nodes = (
"98 387 LINE",
"133 455 LINE",
"185 -58 LINE",
"279 -49 LINE",
"217 563 LINE",
"186 559 LINE",
"262 708 LINE",
"178 752 LINE",
"14 431 LINE"
);
}
);
width = 920;
}
);
note = uni4EF5;
unicode = 4EF5;
}
{
glyphname = uni4EF6;
layers = (
{
layerId = "A8B8C001-3175-4DE2-BFCE-CA439A51AAC8";
paths = (
{
closed = 1;
nodes = (
"384 418 LINE",
"422 508 LINE",
"567 519 LINE",
"559 316 LINE",
"297 291 LINE",
"306 198 LINE",
"556 221 LINE",
"547 -39 LINE",
"642 -42 LINE",
"651 230 LINE",
"900 254 LINE",
"891 348 LINE",
"655 325 LINE",
"662 526 LINE",
"812 538 LINE",
"806 631 LINE",
"665 621 LINE",
"670 746 LINE",
"575 750 LINE",
"570 614 LINE",
"463 606 LINE",
"514 725 LINE",
"426 761 LINE",
"297 455 LINE"
);
},
{
closed = 1;
nodes = (
"89 406 LINE",
"156 476 LINE",
"167 -16 LINE",
"261 -15 LINE",
"251 511 LINE",
"190 510 LINE",
"359 685 LINE",
"291 750 LINE",
"21 471 LINE"
);
}
);
width = 920;
}
);
note = uni4EF6;
unicode = 4EF6;
}
{
glyphname = uni4EF7;
layers = (
{
layerId = "A8B8C001-3175-4DE2-BFCE-CA439A51AAC8";
paths = (
{
closed = 1;
nodes = (
"241 -64 LINE",
"231 568 LINE",
"317 646 LINE",
"255 716 LINE",
"27 510 LINE",
"90 440 LINE",
"138 484 LINE",
"147 -65 LINE"
);
},
{
closed = 1;
nodes = (
"893 503 LINE",
"646 673 LINE",
"691 707 LINE",
"635 783 LINE",
"265 505 LINE",
"321 430 LINE",
"566 613 LINE",
"840 426 LINE"
);
},
{
closed = 1;
nodes = (
"508 87 LINE",
"522 121 LINE",
"520 433 LINE",
"425 432 LINE",
"428 141 LINE",
"297 11 LINE",
"363 -55 LINE"
);
},
{
closed = 1;
nodes = (
"801 -53 LINE",
"752 456 LINE",
"658 447 LINE",
"707 -62 LINE"
);
}
);
width = 920;
}
);
note = uni4EF7;
unicode = 4EF7;
}
{
glyphname = uni4EFB;
layers = (
{
layerId = "A8B8C001-3175-4DE2-BFCE-CA439A51AAC8";
paths = (
{
closed = 1;
nodes = (
"396 578 LINE",
"585 618 LINE",
"582 415 LINE",
"341 428 LINE",
"336 334 LINE",
"581 321 LINE",
"577 61 LINE",
"353 56 LINE",
"356 -38 LINE",
"867 -26 LINE",
"865 68 LINE",
"672 63 LINE",
"675 316 LINE",
"878 306 LINE",
"883 399 LINE",
"677 410 LINE",
"680 639 LINE",
"830 671 LINE",
"810 763 LINE",
"376 671 LINE"
);
},
{
closed = 1;
nodes = (
"107 396 LINE",
"172 467 LINE",
"182 -44 LINE",
"276 -42 LINE",
"263 562 LINE",
"258 562 LINE",
"372 686 LINE",
"302 748 LINE",
"37 459 LINE"
);
}
);
width = 920;
}
);
note = uni4EFB;
unicode = 4EFB;
}
{
glyphname = uni4EFD;
layers = (
{
layerId = "A8B8C001-3175-4DE2-BFCE-CA439A51AAC8";
paths = (
{
closed = 1;
nodes = (
"395 -55 LINE",
"581 342 LINE",
"716 352 LINE",
"686 37 LINE",
"571 67 LINE",
"547 -25 LINE",
"716 -66 LINE",
"775 -26 LINE",
"816 400 LINE",
"765 451 LINE",
"358 421 LINE",
"366 326 LINE",
"472 334 LINE",
"308 -16 LINE"
);
},
{
closed = 1;
nodes = (
"80 482 LINE",
"157 548 LINE",
"132 -41 LINE",
"227 -45 LINE",
"252 571 LINE",
"187 574 LINE",
"351 714 LINE",
"288 786 LINE",
"17 554 LINE"
);
},
{
closed = 1;
nodes = (
"337 444 LINE",
"563 697 LINE",
"493 760 LINE",
"267 506 LINE"
);
},
{
closed = 1;
nodes = (
"848 469 LINE",
"902 547 LINE",
"658 712 LINE",
"605 634 LINE"
);
}
);
width = 920;
}
);
note = uni4EFD;
unicode = 4EFD;
}
{
glyphname = uni4EFF;
layers = (
{
layerId = "A8B8C001-3175-4DE2-BFCE-CA439A51AAC8";
paths = (
{
closed = 1;
nodes = (
"817 -51 LINE",
"845 368 LINE",
"793 418 LINE",
"543 401 LINE",
"572 538 LINE",
"877 565 LINE",
"868 660 LINE",
"673 642 LINE",
"606 783 LINE",
"521 742 LINE",
"573 633 LINE",
"332 612 LINE",
"341 517 LINE",
"473 529 LINE",
"380 100 LINE",
"295 -2 LINE",
"367 -63 LINE",
"460 48 LINE",
"470 68 LINE",
"522 305 LINE",
"746 319 LINE",
"722 -45 LINE"
);
},
{
closed = 1;
nodes = (
"102 457 LINE",
"169 513 LINE",
"182 -32 LINE",
"277 -30 LINE",
"262 590 LINE",
"373 682 LINE",
"313 755 LINE",
"42 530 LINE"
);
}
);
width = 920;
}
);
note = uni4EFF;
unicode = 4EFF;
}
{
glyphname = uni4F01;
layers = (
{
layerId = "A8B8C001-3175-4DE2-BFCE-CA439A51AAC8";
paths = (
{
closed = 1;
nodes = (
"870 364 LINE",
"596 364 LINE",
"608 483 LINE",
"515 493 LINE",
"469 33 LINE",
"324 29 LINE",
"312 372 LINE",
"217 368 LINE",
"229 26 LINE",
"73 21 LINE",
"76 -74 LINE",
"886 -48 LINE",
"883 47 LINE",
"564 36 LINE",
"587 269 LINE",
"870 269 LINE"
);
},
{
closed = 1;
nodes = (
"558 716 LINE",
"502 793 LINE",
"32 443 LINE",
"88 367 LINE",
"417 612 LINE",
"853 444 LINE",
"887 533 LINE",
"507 678 LINE"
);
}
);
width = 920;
}
);
note = uni4F01;
unicode = 4F01;
}
{
glyphname = uni4F09;
layers = (
{
layerId = "A8B8C001-3175-4DE2-BFCE-CA439A51AAC8";
paths = (
{
closed = 1;
nodes = (
"873 -46 LINE",
"889 46 LINE",
"774 67 LINE",
"782 386 LINE",
"738 434 LINE",
"445 456 LINE",
"395 417 LINE",
"313 -26 LINE",
"405 -44 LINE",
"480 359 LINE",
"687 344 LINE",
"679 30 LINE",
"717 -18 LINE"
);
},
{
closed = 1;
nodes = (
"83 491 LINE",
"167 549 LINE",
"150 -40 LINE",
"244 -43 LINE",
"262 585 LINE",
"219 586 LINE",
"364 687 LINE",
"310 765 LINE",
"29 569 LINE"
);
},
{
closed = 1;
nodes = (
"327 522 LINE",
"890 561 LINE",
"884 655 LINE",
"636 638 LINE",
"597 765 LINE",
"507 737 LINE",
"539 632 LINE",
"320 617 LINE"
);
}
);
width = 920;
}
);
note = uni4F09;
unicode = 4F09;
}
{
glyphname = uni4F0A;
layers = (
{
layerId = "A8B8C001-3175-4DE2-BFCE-CA439A51AAC8";
paths = (
{
closed = 1;
nodes = (
"889 412 LINE",
"892 507 LINE",
"835 509 LINE",
"847 687 LINE",
"801 737 LINE",
"376 742 LINE",
"374 648 LINE",
"516 647 LINE",
"512 520 LINE",
"329 527 LINE",
"326 433 LINE",
"508 426 LINE",
"503 279 LINE",
"369 270 LINE",
"376 176 LINE",
"472 182 LINE",
"337 1 LINE",
"412 -55 LINE",
"586 177 LINE",
"590 190 LINE",
"776 203 LINE",
"819 247 LINE",
"829 414 LINE"
);
},
{
closed = 1;
nodes = (
"104 405 LINE",
"163 486 LINE",
"186 -42 LINE",
"279 -38 LINE",
"254 551 LINE",
"209 548 LINE",
"333 717 LINE",
"257 773 LINE",
"28 460 LINE"
);
},
{
closed = 1;
nodes = (
"749 645 LINE",
"741 512 LINE",
"605 517 LINE",
"610 646 LINE"
);
},
{
closed = 1;
nodes = (
"597 286 LINE",
"602 422 LINE",
"735 417 LINE",
"728 295 LINE"
);
}
);
width = 920;
}
);
note = uni4F0A;
unicode = 4F0A;
}
{
glyphname = uni4F0D;
layers = (
{
layerId = "A8B8C001-3175-4DE2-BFCE-CA439A51AAC8";
paths = (
{
closed = 1;
nodes = (
"851 578 LINE",
"856 673 LINE",
"335 704 LINE",
"330 609 LINE",
"526 597 LINE",
"509 460 LINE",
"348 469 LINE",
"342 376 LINE",
"498 366 LINE",
"463 81 LINE",
"293 76 LINE",
"296 -19 LINE",
"902 2 LINE",
"898 96 LINE",
"784 92 LINE",
"828 391 LINE",
"785 444 LINE",
"604 454 LINE",
"621 592 LINE"
);
},
{
closed = 1;
nodes = (
"91 426 LINE",
"131 477 LINE",
"158 -54 LINE",
"252 -49 LINE",
"221 573 LINE",
"207 572 LINE",
"320 714 LINE",
"245 773 LINE",
"17 484 LINE"
);
},
{
closed = 1;
nodes = (
"728 353 LINE",
"689 89 LINE",
"559 84 LINE",
"593 361 LINE"
);
}
);
width = 920;
}
);
note = uni4F0D;
unicode = 4F0D;
}
{
glyphname = uni4F0E;
layers = (
{
layerId = "A8B8C001-3175-4DE2-BFCE-CA439A51AAC8";
paths = (
{
closed = 1;
nodes = (
"367 560 LINE",
"561 573 LINE",
"557 476 LINE",
"406 509 LINE",
"386 417 LINE",
"703 348 LINE",
"576 240 LINE",
"423 350 LINE",
"368 274 LINE",
"502 177 LINE",
"303 8 LINE",
"365 -63 LINE",
"581 121 LINE",
"822 -51 LINE",
"877 25 LINE",
"655 183 LINE",
"837 338 LINE",
"816 420 LINE",
"649 456 LINE",
"654 580 LINE",
"842 593 LINE",
"835 688 LINE",
"658 675 LINE",
"663 779 LINE",
"570 783 LINE",
"565 668 LINE",
"361 654 LINE"
);
},
{
closed = 1;
nodes = (
"227 -36 LINE",
"265 515 LINE",
"171 522 LINE",
"133 -30 LINE"
);
},
{
closed = 1;
nodes = (
"96 509 LINE",
"335 673 LINE",
"282 750 LINE",
"42 587 LINE"
);
}
);
width = 920;
}
);
note = uni4F0E;
unicode = 4F0E;
}
{
glyphname = uni4F0F;
layers = (
{
layerId = "A8B8C001-3175-4DE2-BFCE-CA439A51AAC8";
paths = (
{
closed = 1;
nodes = (
"335 360 LINE",
"457 380 LINE",
"335 -28 LINE",
"427 -55 LINE",
"511 229 LINE",
"817 -48 LINE",
"880 22 LINE",
"542 331 LINE",
"562 398 LINE",
"879 451 LINE",
"863 545 LINE",
"592 499 LINE",
"659 723 LINE",
"568 751 LINE",
"487 481 LINE",
"319 453 LINE"
);
},
{
closed = 1;
nodes = (
"114 351 LINE",
"166 420 LINE",
"199 -42 LINE",
"294 -35 LINE",
"254 535 LINE",
"252 535 LINE",
"390 717 LINE",
"314 775 LINE",
"39 408 LINE"
);
},
{
closed = 1;
nodes = (
"745 546 LINE",
"828 592 LINE",
"742 743 LINE",
"659 696 LINE"
);
}
);
width = 920;
}
);
note = uni4F0F;
unicode = 4F0F;
}
{
glyphname = uni4F10;
layers = (
{
layerId = "A8B8C001-3175-4DE2-BFCE-CA439A51AAC8";
paths = (
{
closed = 1;
nodes = (
"344 391 LINE",
"511 418 LINE",
"522 224 LINE",
"541 190 LINE",
"552 181 LINE",
"375 23 LINE",
"439 -47 LINE",
"628 121 LINE",
"826 -35 LINE",
"885 39 LINE",
"700 185 LINE",
"865 331 LINE",
"801 403 LINE",
"624 245 LINE",
"616 251 LINE",
"606 433 LINE",
"881 478 LINE",
"866 571 LINE",
"600 528 LINE",
"587 766 LINE",
"492 760 LINE",
"506 513 LINE",
"329 485 LINE"
);
},
{
closed = 1;
nodes = (
"109 375 LINE",
"179 459 LINE",
"189 -45 LINE",
"284 -44 LINE",
"272 570 LINE",
"270 570 LINE",
"361 679 LINE",
"287 739 LINE",
"36 436 LINE"
);
},
{
closed = 1;
nodes = (
"810 580 LINE",
"875 649 LINE",
"746 768 LINE",
"681 699 LINE"
);
}
);
width = 920;
}
);
note = uni4F10;
unicode = 4F10;
}
{
glyphname = uni4F11;
layers = (
{
layerId = "A8B8C001-3175-4DE2-BFCE-CA439A51AAC8";
paths = (
{
closed = 1;
nodes = (
"334 501 LINE",
"523 521 LINE",
"539 -51 LINE",
"634 -49 LINE",
"617 532 LINE",
"875 560 LINE",
"865 654 LINE",
"614 626 LINE",
"611 754 LINE",
"517 751 LINE",
"520 616 LINE",
"324 595 LINE"
);
},
{
closed = 1;
nodes = (
"114 376 LINE",
"160 444 LINE",
"132 -19 LINE",
"226 -25 LINE",
"261 527 LINE",
"219 530 LINE",
"347 716 LINE",
"270 770 LINE",
"36 430 LINE"
);
},
{
closed = 1;
nodes = (
"341 42 LINE",
"496 396 LINE",
"410 434 LINE",
"255 81 LINE"
);
},
{
closed = 1;
nodes = (
"797 22 LINE",
"885 56 LINE",
"761 371 LINE",
"674 336 LINE"
);
}
);
width = 920;
}
);
note = uni4F11;
unicode = 4F11;
}
{
glyphname = uni4F17;
layers = (
{
layerId = "A8B8C001-3175-4DE2-BFCE-CA439A51AAC8";
paths = (
{
closed = 1;
nodes = (
"501 724 LINE",
"437 793 LINE",
"52 438 LINE",
"116 369 LINE",
"390 621 LINE",
"796 408 LINE",
"840 492 LINE",
"463 689 LINE"
);
},
{
closed = 1;
nodes = (
"712 372 LINE",
"627 413 LINE",
"415 -33 LINE",
"500 -74 LINE",
"598 133 LINE",
"806 -52 LINE",
"868 18 LINE",
"640 221 LINE"
);
},
{
closed = 1;
nodes = (
"371 359 LINE",
"287 404 LINE",
"58 -18 LINE",
"142 -63 LINE",
"268 170 LINE",
"400 72 LINE",
"456 147 LINE",
"313 253 LINE"
);
}
);
width = 920;
}
);
note = uni4F17;
unicode = 4F17;
}
{
glyphname = uni4F18;
layers = (
{
layerId = "A8B8C001-3175-4DE2-BFCE-CA439A51AAC8";
paths = (
{
closed = 1;
nodes = (
"860 479 LINE",
"854 572 LINE",
"555 555 LINE",
"609 750 LINE",
"519 775 LINE",
"457 549 LINE",
"272 539 LINE",
"277 445 LINE",
"431 454 LINE",
"295 -41 LINE",
"386 -66 LINE",
"529 459 LINE"
);
},
{
closed = 1;
nodes = (
"350 710 LINE",
"289 782 LINE",
"11 549 LINE",
"71 476 LINE",
"135 529 LINE",
"106 -49 LINE",
"200 -54 LINE",
"233 612 LINE"
);
},
{
closed = 1;
nodes = (
"909 42 LINE",
"869 127 LINE",
"716 56 LINE",
"672 406 LINE",
"580 395 LINE",
"630 -20 LINE",
"697 -58 LINE"
);
},
{
closed = 1;
nodes = (
"822 632 LINE",
"740 785 LINE",
"657 740 LINE",
"740 587 LINE"
);
}
);
width = 920;
}
);
note = uni4F18;
unicode = 4F18;
}
{
glyphname = uni4F19;
layers = (
{
layerId = "A8B8C001-3175-4DE2-BFCE-CA439A51AAC8";
paths = (
{
closed = 1;
nodes = (
"400 -53 LINE",
"693 740 LINE",
"605 773 LINE",
"515 529 LINE",
"372 645 LINE",
"312 572 LINE",
"480 435 LINE",
"311 -21 LINE"
);
},
{
closed = 1;
nodes = (
"92 490 LINE",
"159 554 LINE",
"132 -33 LINE",
"227 -36 LINE",
"253 563 LINE",
"173 567 LINE",
"310 699 LINE",
"245 767 LINE",
"27 558 LINE"
);
},
{
closed = 1;
nodes = (
"818 -20 LINE",
"892 40 LINE",
"681 300 LINE",
"881 580 LINE",
"803 634 LINE",
"583 325 LINE",
"586 268 LINE"
);
}
);
width = 920;
}
);
note = uni4F19;
unicode = 4F19;
}
{
glyphname = uni4F1A;
layers = (
{
layerId = "A8B8C001-3175-4DE2-BFCE-CA439A51AAC8";
paths = (
{
closed = 1;
nodes = (
"760 250 LINE",
"753 344 LINE",
"73 288 LINE",
"80 194 LINE",
"271 210 LINE",
"127 12 LINE",
"174 -63 LINE",
"697 34 LINE",
"744 -38 LINE",
"823 13 LINE",
"694 212 LINE",
"615 160 LINE",
"641 120 LINE",
"273 52 LINE",
"396 220 LINE"
);
},
{
closed = 1;
nodes = (
"892 514 LINE",
"476 695 LINE",
"493 709 LINE",
"433 783 LINE",
"29 450 LINE",
"88 378 LINE",
"393 627 LINE",
"854 428 LINE"
);
},
{
closed = 1;
nodes = (
"630 399 LINE",
"625 494 LINE",
"243 472 LINE",
"248 377 LINE"
);
}
);
width = 920;
}
);
note = uni4F1A;
unicode = 4F1A;
}
{
glyphname = uni4F1B;
layers = (
{
layerId = "A8B8C001-3175-4DE2-BFCE-CA439A51AAC8";
paths = (
{
closed = 1;
nodes = (
"912 74 LINE",
"429 94 LINE",
"447 619 LINE",
"859 619 LINE",
"859 713 LINE",
"400 713 LINE",
"353 668 LINE",
"333 50 LINE",
"378 1 LINE",
"908 -21 LINE"
);
},
{
closed = 1;
nodes = (
"328 715 LINE",
"257 778 LINE",
"9 489 LINE",
"80 428 LINE",
"146 504 LINE",
"180 -57 LINE",
"275 -51 LINE",
"234 606 LINE"
);
},
{
closed = 1;
nodes = (
"869 533 LINE",
"793 588 LINE",
"675 427 LINE",
"575 543 LINE",
"504 481 LINE",
"618 349 LINE",
"484 166 LINE",
"560 111 LINE",
"681 276 LINE",
"762 183 LINE",
"834 245 LINE",
"738 355 LINE"
);
}
);
width = 920;
}
);
note = uni4F1B;
unicode = 4F1B;
}
{
glyphname = uni4F1E;
layers = (
{
layerId = "A8B8C001-3175-4DE2-BFCE-CA439A51AAC8";
paths = (
{
closed = 1;
nodes = (
"866 125 LINE",
"861 220 LINE",
"661 209 LINE",
"743 403 LINE",
"656 440 LINE",
"556 204 LINE",
"519 202 LINE",
"532 539 LINE",
"438 543 LINE",
"425 197 LINE",
"79 179 LINE",
"84 85 LINE",
"422 102 LINE",
"416 -69 LINE",
"509 -72 LINE",
"515 107 LINE"
);
},
{
closed = 1;
nodes = (
"557 718 LINE",
"499 793 LINE",
"3 410 LINE",
"61 335 LINE",
"447 633 LINE",
"867 370 LINE",
"917 449 LINE",
"527 695 LINE"
);
},
{
closed = 1;
nodes = (
"367 313 LINE",
"272 451 LINE",
"194 399 LINE",
"289 260 LINE"
);
}
);
width = 920;
}
);
note = uni4F1E;
unicode = 4F1E;
}
{
glyphname = uni4F1F;
layers = (
{
layerId = "A8B8C001-3175-4DE2-BFCE-CA439A51AAC8";
paths = (
{
closed = 1;
nodes = (
"865 10 LINE",
"889 225 LINE",
"839 277 LINE",
"624 264 LINE",
"630 368 LINE",
"852 383 LINE",
"846 478 LINE",
"636 463 LINE",
"642 570 LINE",
"849 575 LINE",
"847 668 LINE",
"648 663 LINE",
"655 778 LINE",
"561 785 LINE",
"553 661 LINE",
"340 656 LINE",
"342 562 LINE",
"547 567 LINE",
"541 457 LINE",
"366 445 LINE",
"372 351 LINE",
"535 362 LINE",
"529 258 LINE",
"321 246 LINE",
"326 152 LINE",
"523 164 LINE",
"510 -58 LINE",
"604 -64 LINE",
"618 169 LINE",
"789 180 LINE",
"777 76 LINE",
"689 103 LINE",
"661 12 LINE",
"805 -30 LINE"
);
},
{
closed = 1;
nodes = (
"291 -60 LINE",
"252 625 LINE",
"251 625 LINE",
"334 686 LINE",
"277 762 LINE",
"31 578 LINE",
"87 503 LINE",
"160 557 LINE",
"196 -65 LINE"
);
}
);
width = 920;
}
);
note = uni4F1F;
unicode = 4F1F;
}
{
glyphname = uni4F20;
layers = (
{
layerId = "A8B8C001-3175-4DE2-BFCE-CA439A51AAC8";
paths = (
{
closed = 1;
nodes = (
"808 242 LINE",
"765 308 LINE",
"489 313 LINE",
"519 397 LINE",
"865 426 LINE",
"858 519 LINE",
"554 494 LINE",
"590 593 LINE",
"778 593 LINE",
"778 687 LINE",
"624 687 LINE",
"648 752 LINE",
"559 783 LINE",
"524 687 LINE",
"373 687 LINE",
"373 593 LINE",
"490 593 LINE",
"451 486 LINE",
"292 473 LINE",
"299 379 LINE",
"416 388 LINE",
"378 283 LINE",
"422 221 LINE",
"694 214 LINE",
"636 79 LINE",
"434 132 LINE",
"410 41 LINE",
"814 -64 LINE",
"838 27 LINE",
"729 55 LINE"
);
},
{
closed = 1;
nodes = (
"267 431 LINE",
"239 481 LINE",
"164 514 LINE",
"292 696 LINE",
"214 749 LINE",
"54 523 LINE",
"73 453 LINE",
"168 409 LINE",
"94 -38 LINE",
"187 -53 LINE"
);
}
);
width = 920;
}
);
note = uni4F20;
unicode = 4F20;
}
{
glyphname = uni4F22;
layers = (
{
layerId = "A8B8C001-3175-4DE2-BFCE-CA439A51AAC8";
paths = (
{
closed = 1;
nodes = (
"884 319 LINE",
"885 414 LINE",
"773 415 LINE",
"750 637 LINE",
"656 627 LINE",
"678 416 LINE",
"426 418 LINE",
"476 558 LINE",
"388 589 LINE",
"316 388 LINE",
"360 324 LINE",
"688 321 LINE",
"714 85 LINE",
"536 27 LINE",
"566 -63 LINE",
"779 8 LINE",
"811 58 LINE",
"783 320 LINE"
);
},
{
closed = 1;
nodes = (
"111 454 LINE",
"158 519 LINE",
"145 -50 LINE",
"239 -52 LINE",
"254 597 LINE",
"215 598 LINE",
"289 700 LINE",
"213 755 LINE",
"35 509 LINE"
);
},
{
closed = 1;
nodes = (
"373 634 LINE",
"859 689 LINE",
"849 783 LINE",
"363 728 LINE"
);
},
{
closed = 1;
nodes = (
"354 -31 LINE",
"603 244 LINE",
"533 308 LINE",
"284 33 LINE"
);
}
);
width = 920;
}
);
note = uni4F22;
unicode = 4F22;
}
{
glyphname = uni4F24;
layers = (
{
layerId = "A8B8C001-3175-4DE2-BFCE-CA439A51AAC8";
paths = (
{
closed = 1;
nodes = (
"844 -19 LINE",
"887 386 LINE",
"835 438 LINE",
"637 418 LINE",
"669 490 LINE",
"583 528 LINE",
"530 408 LINE",
"355 391 LINE",
"365 298 LINE",
"486 310 LINE",
"337 -30 LINE",
"423 -67 LINE",
"594 320 LINE",
"788 339 LINE",
"757 46 LINE",
"614 83 LINE",
"590 -9 LINE",
"785 -59 LINE"
);
},
{
closed = 1;
nodes = (
"345 701 LINE",
"282 771 LINE",
"34 544 LINE",
"98 474 LINE",
"147 519 LINE",
"175 -55 LINE",
"269 -50 LINE",
"237 602 LINE"
);
},
{
closed = 1;
nodes = (
"877 560 LINE",
"873 654 LINE",
"494 641 LINE",
"559 731 LINE",
"483 786 LINE",
"363 618 LINE",
"403 544 LINE"
);
}
);
width = 920;
}
);
note = uni4F24;
unicode = 4F24;
}
{
glyphname = uni4F25;
layers = (
{
layerId = "A8B8C001-3175-4DE2-BFCE-CA439A51AAC8";
paths = (
{
closed = 1;
nodes = (
"865 415 LINE",
"848 509 LINE",
"480 447 LINE",
"496 722 LINE",
"401 728 LINE",
"384 431 LINE",
"305 418 LINE",
"320 324 LINE",
"378 333 LINE",
"362 48 LINE",
"397 -1 LINE",
"572 -43 LINE",
"595 48 LINE",
"458 82 LINE",
"474 349 LINE",
"587 368 LINE",
"813 -58 LINE",
"897 -16 LINE",
"684 385 LINE"
);
},
{
closed = 1;
nodes = (
"271 535 LINE",
"176 542 LINE",
"141 -33 LINE",
"235 -40 LINE"
);
},
{
closed = 1;
nodes = (
"327 714 LINE",
"257 778 LINE",
"22 520 LINE",
"91 457 LINE"
);
},
{
closed = 1;
nodes = (
"822 715 LINE",
"750 775 LINE",
"561 550 LINE",
"633 490 LINE"
);
}
);
width = 920;
}
);
note = uni4F25;
unicode = 4F25;
}
{
glyphname = uni4F26;
layers = (
{
layerId = "A8B8C001-3175-4DE2-BFCE-CA439A51AAC8";
paths = (
{
closed = 1;
nodes = (
"816 310 LINE",
"784 398 LINE",
"482 284 LINE",
"496 415 LINE",
"402 425 LINE",
"365 45 LINE",
"405 -7 LINE",
"840 -70 LINE",
"854 22 LINE",
"462 81 LINE",
"472 179 LINE"
);
},
{
closed = 1;
nodes = (
"331 727 LINE",
"261 790 LINE",
"16 517 LINE",
"87 455 LINE",
"139 513 LINE",
"156 -60 LINE",
"251 -58 LINE",
"231 578 LINE",
"196 577 LINE"
);
},
{
closed = 1;
nodes = (
"702 710 LINE",
"641 781 LINE",
"254 456 LINE",
"315 383 LINE",
"545 577 LINE",
"857 395 LINE",
"905 476 LINE",
"621 641 LINE"
);
}
);
width = 920;
}
);
note = uni4F26;
unicode = 4F26;
}
{
glyphname = uni4F27;
layers = (
{
layerId = "A8B8C001-3175-4DE2-BFCE-CA439A51AAC8";
paths = (
{
closed = 1;
nodes = (
"819 -40 LINE",
"863 -1 LINE",
"884 121 LINE",
"791 139 LINE",
"776 51 LINE",
"489 35 LINE",
"466 345 LINE",
"695 339 LINE",
"681 225 LINE",
"594 222 LINE",
"595 129 LINE",
"725 131 LINE",
"771 172 LINE",
"794 380 LINE",
"749 431 LINE",
"418 440 LINE",
"369 390 LINE",
"398 -19 LINE",
"448 -61 LINE"
);
},
{
closed = 1;
nodes = (
"660 712 LINE",
"595 780 LINE",
"261 462 LINE",
"326 394 LINE",
"550 607 LINE",
"863 445 LINE",
"905 529 LINE",
"623 676 LINE"
);
},
{
closed = 1;
nodes = (
"248 445 LINE",
"154 450 LINE",
"126 -56 LINE",
"220 -61 LINE"
);
},
{
closed = 1;
nodes = (
"331 695 LINE",
"256 752 LINE",
"15 437 LINE",
"90 380 LINE"
);
}
);
width = 920;
}
);
note = uni4F27;
unicode = 4F27;
}
{
glyphname = uni4F2A;
layers = (
{
layerId = "A8B8C001-3175-4DE2-BFCE-CA439A51AAC8";
paths = (
{
closed = 1;
nodes = (
"751 741 LINE",
"664 778 LINE",
"560 541 LINE",
"326 512 LINE",
"339 418 LINE",
"516 439 LINE",
"314 -23 LINE",
"401 -60 LINE",
"625 453 LINE",
"804 475 LINE",
"790 76 LINE",
"650 46 LINE",
"669 -47 LINE",
"846 -9 LINE",
"882 36 LINE",
"899 527 LINE",
"846 576 LINE",
"669 554 LINE"
);
},
{
closed = 1;
nodes = (
"265 -47 LINE",
"242 638 LINE",
"239 638 LINE",
"324 701 LINE",
"267 777 LINE",
"21 593 LINE",
"77 518 LINE",
"151 573 LINE",
"171 -49 LINE"
);
},
{
closed = 1;
nodes = (
"759 148 LINE",
"646 331 LINE",
"566 282 LINE",
"677 98 LINE"
);
},
{
closed = 1;
nodes = (
"524 607 LINE",
"437 750 LINE",
"356 701 LINE",
"442 558 LINE"
);
}
);
width = 920;
}
);
note = uni4F2A;
unicode = 4F2A;
}
{
glyphname = uni4F2B;
layers = (
{
layerId = "A8B8C001-3175-4DE2-BFCE-CA439A51AAC8";
paths = (
{
closed = 1;
nodes = (
"894 621 LINE",
"842 678 LINE",
"633 656 LINE",
"610 758 LINE",
"517 736 LINE",
"537 646 LINE",
"327 624 LINE",
"286 566 LINE",
"325 394 LINE",
"417 415 LINE",
"390 535 LINE",
"789 578 LINE",
"754 405 LINE",
"846 386 LINE"
);
},
{
closed = 1;
nodes = (
"252 506 LINE",
"157 514 LINE",
"114 -40 LINE",
"207 -47 LINE"
);
},
{
closed = 1;
nodes = (
"860 13 LINE",
"855 108 LINE",
"329 78 LINE",
"334 -16 LINE"
);
},
{
closed = 1;
nodes = (
"291 708 LINE",
"219 768 LINE",
"26 533 LINE",
"99 473 LINE"
);
}
);
width = 920;
}
);
note = uni4F2B;
unicode = 4F2B;
}
{
glyphname = uni4F2F;
layers = (
{
layerId = "A8B8C001-3175-4DE2-BFCE-CA439A51AAC8";
paths = (
{
closed = 1;
nodes = (
"318 224 LINE",
"346 228 LINE",
"360 -19 LINE",
"413 -64 LINE",
"837 -3 LINE",
"877 42 LINE",
"892 604 LINE",
"842 652 LINE",
"552 637 LINE",
"596 742 LINE",
"510 778 LINE",
"448 632 LINE",
"372 628 LINE",
"327 578 LINE",
"341 323 LINE",
"305 318 LINE"
);
},
{
closed = 1;
nodes = (
"425 536 LINE",
"797 556 LINE",
"785 84 LINE",
"451 37 LINE",
"440 242 LINE",
"673 277 LINE",
"660 371 LINE",
"435 337 LINE"
);
},
{
closed = 1;
nodes = (
"266 -57 LINE",
"266 424 LINE",
"222 472 LINE",
"147 477 LINE",
"301 736 LINE",
"220 783 LINE",
"27 459 LINE",
"65 388 LINE",
"171 381 LINE",
"171 -57 LINE"
);
}
);
width = 920;
}
);
note = uni4F2F;
unicode = 4F2F;
}
{
glyphname = uni4F30;
layers = (
{
layerId = "A8B8C001-3175-4DE2-BFCE-CA439A51AAC8";
paths = (
{
closed = 1;
nodes = (
"355 460 LINE",
"534 490 LINE",
"525 344 LINE",
"430 337 LINE",
"386 287 LINE",
"400 49 LINE",
"444 5 LINE",
"751 -23 LINE",
"802 21 LINE",
"830 311 LINE",
"779 362 LINE",
"621 351 LINE",
"630 506 LINE",
"870 547 LINE",
"854 641 LINE",
"636 604 LINE",
"644 749 LINE",
"549 755 LINE",
"539 588 LINE",
"339 554 LINE"
);
},
{
closed = 1;
nodes = (
"109 467 LINE",
"194 531 LINE",
"205 -36 LINE",
"300 -34 LINE",
"289 555 LINE",
"223 553 LINE",
"374 666 LINE",
"316 742 LINE",
"51 542 LINE"
);
},
{
closed = 1;
nodes = (
"492 96 LINE",
"484 246 LINE",
"730 264 LINE",
"712 76 LINE"
);
}
);
width = 920;
}
);
note = uni4F30;
unicode = 4F30;
}
{
glyphname = uni4F32;
layers = (
{
layerId = "A8B8C001-3175-4DE2-BFCE-CA439A51AAC8";
paths = (
{
closed = 1;
nodes = (
"431 -45 LINE",
"469 428 LINE",
"829 428 LINE",
"876 475 LINE",
"876 690 LINE",
"825 737 LINE",
"438 710 LINE",
"394 666 LINE",
"338 -38 LINE"
);
},
{
closed = 1;
nodes = (
"113 445 LINE",
"192 537 LINE",
"184 -50 LINE",
"279 -52 LINE",
"288 590 LINE",
"238 590 LINE",
"350 722 LINE",
"279 783 LINE",
"40 506 LINE"
);
},
{
closed = 1;
nodes = (
"856 -65 LINE",
"868 28 LINE",
"590 61 LINE",
"594 139 LINE",
"880 262 LINE",
"844 350 LINE",
"601 245 LINE",
"608 368 LINE",
"514 373 LINE",
"494 22 LINE",
"535 -28 LINE"
);
},
{
closed = 1;
nodes = (
"476 522 LINE",
"484 618 LINE",
"781 640 LINE",
"781 522 LINE"
);
}
);
width = 920;
}
);
note = uni4F32;
unicode = 4F32;
}
{
glyphname = uni4F34;
layers = (
{
layerId = "A8B8C001-3175-4DE2-BFCE-CA439A51AAC8";
paths = (
{
closed = 1;
nodes = (
"618 -50 LINE",
"618 107 LINE",
"885 95 LINE",
"888 190 LINE",
"618 201 LINE",
"618 411 LINE",
"803 411 LINE",
"803 505 LINE",
"738 505 LINE",
"841 677 LINE",
"760 726 LINE",
"628 505 LINE",
"618 505 LINE",
"618 770 LINE",
"523 770 LINE",
"523 505 LINE",
"356 505 LINE",
"356 411 LINE",
"523 411 LINE",
"523 205 LINE",
"298 215 LINE",
"295 121 LINE",
"523 111 LINE",
"523 -50 LINE"
);
},
{
closed = 1;
nodes = (
"248 -50 LINE",
"252 476 LINE",
"223 520 LINE",
"152 548 LINE",
"307 681 LINE",
"246 753 LINE",
"32 571 LINE",
"45 491 LINE",
"157 445 LINE",
"155 -49 LINE"
);
},
{
closed = 1;
nodes = (
"400 538 LINE",
"482 583 LINE",
"410 713 LINE",
"327 667 LINE"
);
}
);
width = 920;
}
);
note = uni4F34;
unicode = 4F34;
}
{
glyphname = uni4F36;
layers = (
{
layerId = "A8B8C001-3175-4DE2-BFCE-CA439A51AAC8";
paths = (
{
closed = 1;
nodes = (
"90 423 LINE",
"171 503 LINE",
"153 -29 LINE",
"247 -32 LINE",
"270 595 LINE",
"264 595 LINE",
"359 688 LINE",
"293 755 LINE",
"24 490 LINE"
);
},
{
closed = 1;
nodes = (
"390 389 LINE",
"456 588 LINE",
"709 655 LINE",
"808 401 LINE",
"895 436 LINE",
"782 729 LINE",
"727 758 LINE",
"491 696 LINE",
"509 748 LINE",
"420 778 LINE",
"300 419 LINE"
);
},
{
closed = 1;
nodes = (
"692 -57 LINE",
"742 23 LINE",
"671 66 LINE",
"822 283 LINE",
"790 356 LINE",
"442 409 LINE",
"428 315 LINE",
"702 275 LINE",
"591 116 LINE",
"467 193 LINE",
"418 113 LINE"
);
},
{
closed = 1;
nodes = (
"613 403 LINE",
"689 458 LINE",
"580 608 LINE",
"504 553 LINE"
);
}
);
width = 920;
}
);
note = uni4F36;
unicode = 4F36;
}
{
glyphname = uni4F38;
layers = (
{
layerId = "A8B8C001-3175-4DE2-BFCE-CA439A51AAC8";
paths = (
{
closed = 1;
nodes = (
"323 306 LINE",
"384 309 LINE",
"391 145 LINE",
"443 100 LINE",
"568 114 LINE",
"563 -53 LINE",
"657 -56 LINE",
"662 124 LINE",
"804 140 LINE",
"846 184 LINE",
"877 626 LINE",
"828 677 LINE",
"679 672 LINE",
"682 774 LINE",
"588 776 LINE",
"585 669 LINE",
"416 664 LINE",
"371 614 LINE",
"380 404 LINE",
"318 401 LINE"
);
},
{
closed = 1;
nodes = (
"109 427 LINE",
"183 501 LINE",
"204 -28 LINE",
"299 -24 LINE",
"276 535 LINE",
"214 532 LINE",
"376 694 LINE",
"309 760 LINE",
"43 495 LINE"
);
},
{
closed = 1;
nodes = (
"779 581 LINE",
"754 230 LINE",
"665 220 LINE",
"668 326 LINE",
"737 330 LINE",
"732 424 LINE",
"671 420 LINE",
"676 577 LINE"
);
},
{
closed = 1;
nodes = (
"467 571 LINE",
"582 574 LINE",
"577 415 LINE",
"474 409 LINE"
);
},
{
closed = 1;
nodes = (
"478 315 LINE",
"574 320 LINE",
"571 209 LINE",
"483 200 LINE"
);
}
);
width = 920;
}
);
note = uni4F38;
unicode = 4F38;
}
{
glyphname = uni4F3A;
layers = (
{
layerId = "A8B8C001-3175-4DE2-BFCE-CA439A51AAC8";
paths = (
{
closed = 1;
nodes = (
"689 -46 LINE",
"830 50 LINE",
"851 87 LINE",
"869 690 LINE",
"822 739 LINE",
"337 744 LINE",
"336 650 LINE",
"772 645 LINE",
"757 114 LINE",
"636 32 LINE"
);
},
{
closed = 1;
nodes = (
"419 82 LINE",
"627 97 LINE",
"671 139 LINE",
"700 382 LINE",
"652 435 LINE",
"384 432 LINE",
"337 380 LINE",
"367 124 LINE"
);
},
{
closed = 1;
nodes = (
"136 380 LINE",
"176 464 LINE",
"212 -39 LINE",
"306 -33 LINE",
"269 494 LINE",
"188 488 LINE",
"301 724 LINE",
"216 765 LINE",
"51 420 LINE"
);
},
{
closed = 1;
nodes = (
"685 495 LINE",
"685 589 LINE",
"347 589 LINE",
"347 495 LINE"
);
},
{
closed = 1;
nodes = (
"437 339 LINE",
"600 340 LINE",
"582 189 LINE",
"456 180 LINE"
);
}
);
width = 920;
}
);
note = uni4F3A;
unicode = 4F3A;
}
{
glyphname = uni4F3C;
layers = (
{
layerId = "A8B8C001-3175-4DE2-BFCE-CA439A51AAC8";
paths = (
{
closed = 1;
nodes = (
"823 -35 LINE",
"898 20 LINE",
"725 256 LINE",
"648 200 LINE"
);
},
{
closed = 1;
nodes = (
"525 -42 LINE",
"835 684 LINE",
"748 721 LINE",
"438 -6 LINE"
);
},
{
closed = 1;
nodes = (
"507 415 LINE",
"596 445 LINE",
"525 659 LINE",
"435 629 LINE"
);
},
{
closed = 1;
nodes = (
"363 66 LINE",
"513 175 LINE",
"458 251 LINE",
"390 201 LINE",
"422 680 LINE",
"328 688 LINE",
"288 108 LINE"
);
},
{
closed = 1;
nodes = (
"233 -52 LINE",
"266 424 LINE",
"215 475 LINE",
"136 469 LINE",
"236 739 LINE",
"147 771 LINE",
"22 434 LINE",
"68 371 LINE",
"167 378 LINE",
"140 -46 LINE"
);
}
);
width = 920;
}
);
note = uni4F3C;
unicode = 4F3C;
}
{
glyphname = uni4F3D;
layers = (
{
layerId = "A8B8C001-3175-4DE2-BFCE-CA439A51AAC8";
paths = (
{
closed = 1;
nodes = (
"696 1 LINE",
"834 28 LINE",
"873 71 LINE",
"897 640 LINE",
"853 689 LINE",
"653 703 LINE",
"603 653 LINE",
"641 44 LINE"
);
},
{
closed = 1;
nodes = (
"502 -57 LINE",
"571 -17 LINE",
"582 601 LINE",
"527 649 LINE",
"433 632 LINE",
"433 754 LINE",
"339 754 LINE",
"339 615 LINE",
"244 598 LINE",
"262 505 LINE",
"339 519 LINE",
"339 361 LINE",
"226 -24 LINE",
"316 -50 LINE",
"432 341 LINE",
"433 355 LINE",
"433 536 LINE",
"487 546 LINE",
"478 60 LINE",
"429 84 LINE",
"387 0 LINE"
);
},
{
closed = 1;
nodes = (
"87 529 LINE",
"136 574 LINE",
"116 -46 LINE",
"209 -49 LINE",
"232 619 LINE",
"188 621 LINE",
"284 708 LINE",
"222 778 LINE",
"23 599 LINE"
);
},
{
closed = 1;
nodes = (
"701 605 LINE",
"801 599 LINE",
"781 113 LINE",
"731 104 LINE"
);
}
);
width = 920;
}
);
note = uni4F3D;
unicode = 4F3D;
}
{
glyphname = uni4F43;
layers = (
{
layerId = "A8B8C001-3175-4DE2-BFCE-CA439A51AAC8";
paths = (
{
closed = 1;
nodes = (
"406 -49 LINE",
"853 -10 LINE",
"895 38 LINE",
"880 702 LINE",
"829 748 LINE",
"414 722 LINE",
"370 676 LINE",
"364 433 LINE",
"315 436 LINE",
"310 341 LINE",
"362 338 LINE",
"355 0 LINE"
);
},
{
closed = 1;
nodes = (
"100 365 LINE",
"162 446 LINE",
"179 -60 LINE",
"274 -58 LINE",
"256 503 LINE",
"205 502 LINE",
"374 722 LINE",
"298 780 LINE",
"25 422 LINE"
);
},
{
closed = 1;
nodes = (
"464 630 LINE",
"786 651 LINE",
"800 81 LINE",
"656 68 LINE",
"662 321 LINE",
"774 315 LINE",
"780 410 LINE",
"664 416 LINE",
"668 617 LINE",
"573 620 LINE",
"569 421 LINE",
"459 427 LINE"
);
},
{
closed = 1;
nodes = (
"457 332 LINE",
"567 326 LINE",
"561 60 LINE",
"451 50 LINE"
);
}
);
width = 920;
}
);
note = uni4F43;
unicode = 4F43;
}
{
glyphname = uni4F46;
layers = (
{
layerId = "A8B8C001-3175-4DE2-BFCE-CA439A51AAC8";
paths = (
{
closed = 1;
nodes = (
"375 160 LINE",
"815 180 LINE",
"861 226 LINE",
"870 655 LINE",
"816 703 LINE",
"356 643 LINE",
"315 594 LINE",
"318 469 LINE",
"287 471 LINE",
"282 376 LINE",
"320 374 LINE",
"325 206 LINE"
);
},
{
closed = 1;
nodes = (
"91 469 LINE",
"136 512 LINE",
"149 -57 LINE",
"244 -56 LINE",
"230 599 LINE",
"346 708 LINE",
"281 776 LINE",
"26 538 LINE"
);
},
{
closed = 1;
nodes = (
"411 554 LINE",
"774 601 LINE",
"766 273 LINE",
"419 256 LINE",
"416 370 LINE",
"722 358 LINE",
"726 453 LINE",
"413 465 LINE"
);
},
{
closed = 1;
nodes = (
"284 -57 LINE",
"894 -21 LINE",
"887 74 LINE",
"277 38 LINE"
);
}
);
width = 920;
}
);
note = uni4F46;
unicode = 4F46;
}
{
glyphname = uni4F4D;
layers = (
{
layerId = "A8B8C001-3175-4DE2-BFCE-CA439A51AAC8";
paths = (
{
closed = 1;
nodes = (
"77 422 LINE",
"154 480 LINE",
"209 -50 LINE",
"302 -40 LINE",
"241 545 LINE",
"384 652 LINE",
"327 728 LINE",
"21 497 LINE"
);
},
{
closed = 1;
nodes = (
"892 -29 LINE",
"895 66 LINE",
"739 70 LINE",
"859 427 LINE",
"769 457 LINE",
"640 73 LINE",
"357 82 LINE",
"354 -12 LINE"
);
},
{
closed = 1;
nodes = (
"361 511 LINE",
"900 581 LINE",
"887 675 LINE",
"646 643 LINE",
"601 770 LINE",
"512 737 LINE",
"550 631 LINE",
"350 605 LINE"
);
},
{
closed = 1;
nodes = (
"452 116 LINE",
"544 138 LINE",
"476 416 LINE",
"384 393 LINE"
);
}
);
width = 920;
}
);
note = uni4F4D;
unicode = 4F4D;
}
{
glyphname = uni4F4E;
layers = (
{
layerId = "A8B8C001-3175-4DE2-BFCE-CA439A51AAC8";
paths = (
{
closed = 1;
nodes = (
"372 -43 LINE",
"500 60 LINE",
"559 -28 LINE",
"638 23 LINE",
"550 156 LINE",
"480 167 LINE",
"393 95 LINE",
"400 300 LINE",
"614 331 LINE",
"649 122 LINE",
"665 93 LINE",
"829 -43 LINE",
"890 28 LINE",
"740 155 LINE",
"708 344 LINE",
"852 365 LINE",
"838 460 LINE",
"692 439 LINE",
"659 635 LINE",
"838 678 LINE",
"815 771 LINE",
"353 661 LINE",
"317 616 LINE",
"294 -5 LINE"
);
},
{
closed = 1;
nodes = (
"58 596 LINE",
"126 617 LINE",
"152 -60 LINE",
"247 -57 LINE",
"220 647 LINE",
"358 690 LINE",
"330 780 LINE",
"29 687 LINE"
);
},
{
closed = 1;
nodes = (
"409 576 LINE",
"566 613 LINE",
"598 425 LINE",
"403 397 LINE"
);
}
);
width = 920;
}
);
note = uni4F4E;
unicode = 4F4E;
}
{
glyphname = uni4F4F;
layers = (
{
layerId = "A8B8C001-3175-4DE2-BFCE-CA439A51AAC8";
paths = (
{
closed = 1;
nodes = (
"308 560 LINE",
"548 572 LINE",
"551 398 LINE",
"347 409 LINE",
"342 315 LINE",
"553 303 LINE",
"557 56 LINE",
"298 43 LINE",
"303 -52 LINE",
"902 -22 LINE",
"897 73 LINE",
"651 60 LINE",
"648 298 LINE",
"848 287 LINE",
"853 382 LINE",
"646 393 LINE",
"643 577 LINE",
"857 589 LINE",
"852 683 LINE",
"624 671 LINE",
"558 778 LINE",
"478 728 LINE",
"517 665 LINE",
"303 654 LINE"
);
},
{
closed = 1;
nodes = (
"84 462 LINE",
"133 511 LINE",
"158 -58 LINE",
"252 -55 LINE",
"223 601 LINE",
"321 699 LINE",
"253 765 LINE",
"18 528 LINE"
);
}
);
width = 920;
}
);
note = uni4F4F;
unicode = 4F4F;
}
{
glyphname = uni4F50;
layers = (
{
layerId = "A8B8C001-3175-4DE2-BFCE-CA439A51AAC8";
paths = (
{
closed = 1;
nodes = (
"320 495 LINE",
"438 508 LINE",
"306 139 LINE",
"395 108 LINE",
"543 519 LINE",
"857 553 LINE",
"847 647 LINE",
"578 618 LINE",
"622 739 LINE",
"533 772 LINE",
"473 606 LINE",
"310 589 LINE"
);
},
{
closed = 1;
nodes = (
"821 314 LINE",
"828 409 LINE",
"533 430 LINE",
"526 335 LINE",
"628 327 LINE",
"613 60 LINE",
"395 42 LINE",
"403 -53 LINE",
"888 -12 LINE",
"880 82 LINE",
"709 68 LINE",
"721 321 LINE"
);
},
{
closed = 1;
nodes = (
"101 427 LINE",
"171 502 LINE",
"168 -37 LINE",
"262 -37 LINE",
"266 542 LINE",
"208 542 LINE",
"347 690 LINE",
"278 755 LINE",
"32 492 LINE"
);
}
);
width = 920;
}
);
note = uni4F50;
unicode = 4F50;
}
{
glyphname = uni4F51;
layers = (
{
layerId = "A8B8C001-3175-4DE2-BFCE-CA439A51AAC8";
paths = (
{
closed = 1;
nodes = (
"291 507 LINE",
"401 517 LINE",
"240 241 LINE",
"321 193 LINE",
"376 288 LINE",
"415 -14 LINE",
"466 -54 LINE",
"768 -27 LINE",
"811 16 LINE",
"835 293 LINE",
"792 344 LINE",
"428 376 LINE",
"516 528 LINE",
"882 562 LINE",
"873 656 LINE",
"575 628 LINE",
"632 726 LINE",
"551 773 LINE",
"460 617 LINE",
"282 601 LINE"
);
},
{
closed = 1;
nodes = (
"73 569 LINE",
"142 597 LINE",
"116 -43 LINE",
"210 -47 LINE",
"239 635 LINE",
"322 669 LINE",
"286 757 LINE",
"37 657 LINE"
);
},
{
closed = 1;
nodes = (
"473 278 LINE",
"737 254 LINE",
"720 63 LINE",
"503 42 LINE"
);
}
);
width = 920;
}
);
note = uni4F51;
unicode = 4F51;
}
{
glyphname = uni4F53;
layers = (
{
layerId = "A8B8C001-3175-4DE2-BFCE-CA439A51AAC8";
paths = (
{
closed = 1;
nodes = (
"858 566 LINE",
"847 660 LINE",
"647 635 LINE",
"655 780 LINE",
"561 783 LINE",
"552 624 LINE",
"246 587 LINE",
"257 493 LINE",
"394 509 LINE",
"240 11 LINE",
"330 -18 LINE",
"497 522 LINE",
"547 528 LINE",
"531 225 LINE",
"413 205 LINE",
"430 112 LINE",
"526 128 LINE",
"516 -60 LINE",
"611 -65 LINE",
"622 144 LINE",
"703 158 LINE",
"688 251 LINE",
"627 241 LINE",
"642 539 LINE"
);
},
{
closed = 1;
nodes = (
"276 683 LINE",
"208 750 LINE",
"-8 532 LINE",
"60 466 LINE",
"104 511 LINE",
"118 -63 LINE",
"212 -60 LINE",
"197 604 LINE"
);
},
{
closed = 1;
nodes = (
"928 80 LINE",
"730 480 LINE",
"646 437 LINE",
"845 38 LINE"
);
}
);
width = 920;
}
);
note = uni4F53;
unicode = 4F53;
}
{
glyphname = uni4F55;
layers = (
{
layerId = "A8B8C001-3175-4DE2-BFCE-CA439A51AAC8";
paths = (
{
closed = 1;
nodes = (
"392 144 LINE",
"664 169 LINE",
"707 219 LINE",
"689 485 LINE",
"635 529 LINE",
"392 500 LINE",
"351 455 LINE",
"340 193 LINE"
);
},
{
closed = 1;
nodes = (
"390 634 LINE",
"721 646 LINE",
"750 113 LINE",
"607 61 LINE",
"639 -27 LINE",
"816 35 LINE",
"847 83 LINE",
"815 649 LINE",
"860 651 LINE",
"856 746 LINE",
"386 729 LINE"
);
},
{
closed = 1;
nodes = (
"269 38 LINE",
"290 406 LINE",
"255 455 LINE",
"182 474 LINE",
"334 650 LINE",
"261 711 LINE",
"61 478 LINE",
"85 401 LINE",
"192 373 LINE",
"174 44 LINE"
);
},
{
closed = 1;
nodes = (
"444 410 LINE",
"597 429 LINE",
"609 259 LINE",
"437 243 LINE"
);
}
);
width = 920;
}
);
note = uni4F55;
unicode = 4F55;
}
{
glyphname = uni4F57;
layers = (
{
layerId = "A8B8C001-3175-4DE2-BFCE-CA439A51AAC8";
paths = (
{
closed = 1;
nodes = (
"802 -53 LINE",
"809 40 LINE",
"514 64 LINE",
"527 212 LINE",
"817 342 LINE",
"778 428 LINE",
"537 319 LINE",
"553 488 LINE",
"458 497 LINE",
"417 25 LINE",
"459 -26 LINE"
);
},
{
closed = 1;
nodes = (
"112 412 LINE",
"186 523 LINE",
"199 -32 LINE",
"294 -30 LINE",
"279 555 LINE",
"207 553 LINE",
"317 717 LINE",
"238 769 LINE",
"33 464 LINE"
);
},
{
closed = 1;
nodes = (
"339 443 LINE",
"433 448 LINE",
"426 572 LINE",
"777 578 LINE",
"752 499 LINE",
"842 470 LINE",
"887 612 LINE",
"842 673 LINE",
"633 669 LINE",
"609 773 LINE",
"518 750 LINE",
"537 667 LINE",
"374 664 LINE",
"328 614 LINE"
);
}
);
width = 920;
}
);
note = uni4F57;
unicode = 4F57;
}
{
glyphname = uni4F58;
layers = (
{
layerId = "A8B8C001-3175-4DE2-BFCE-CA439A51AAC8";
paths = (
{
closed = 1;
nodes = (
"119 356 LINE",
"431 652 LINE",
"644 486 LINE",
"260 486 LINE",
"260 391 LINE",
"659 391 LINE",
"659 474 LINE",
"808 358 LINE",
"867 431 LINE",
"501 719 LINE",
"522 739 LINE",
"457 808 LINE",
"54 425 LINE"
);
},
{
closed = 1;
nodes = (
"707 246 LINE",
"707 340 LINE",
"214 340 LINE",
"214 246 LINE",
"414 246 LINE",
"417 28 LINE",
"360 53 LINE",
"324 -35 LINE",
"447 -87 LINE",
"513 -42 LINE",
"508 246 LINE"
);
},
{
closed = 1;
nodes = (
"713 -31 LINE",
"789 24 LINE",
"658 206 LINE",
"582 151 LINE"
);
},
{
closed = 1;
nodes = (
"244 -31 LINE",
"359 140 LINE",
"280 193 LINE",
"165 21 LINE"
);
}
);
width = 920;
}
);
note = uni4F58;
unicode = 4F58;
}
{
glyphname = uni4F59;
layers = (
{
layerId = "A8B8C001-3175-4DE2-BFCE-CA439A51AAC8";
paths = (
{
closed = 1;
nodes = (
"827 232 LINE",
"821 325 LINE",
"529 305 LINE",
"527 385 LINE",
"658 399 LINE",
"648 493 LINE",
"188 444 LINE",
"198 350 LINE",
"434 375 LINE",
"436 299 LINE",
"91 277 LINE",
"97 183 LINE",
"438 206 LINE",
"443 35 LINE",
"302 63 LINE",
"283 -30 LINE",
"483 -70 LINE",
"539 -22 LINE",
"532 212 LINE"
);
},
{
closed = 1;
nodes = (
"547 723 LINE",
"491 798 LINE",
"23 447 LINE",
"81 372 LINE",
"423 630 LINE",
"854 404 LINE",
"897 488 LINE",
"505 692 LINE"
);
},
{
closed = 1;
nodes = (
"857 -13 LINE",
"707 203 LINE",
"629 149 LINE",
"779 -67 LINE"
);
},
{
closed = 1;
nodes = (
"297 105 LINE",
"229 172 LINE",
"49 -12 LINE",
"117 -78 LINE"
);
}
);
width = 920;
}
);
note = uni4F59;
unicode = 4F59;
}
{
glyphname = uni4F5A;
layers = (
{
layerId = "A8B8C001-3175-4DE2-BFCE-CA439A51AAC8";
paths = (
{
closed = 1;
nodes = (
"305 267 LINE",
"426 272 LINE",
"298 -22 LINE",
"385 -59 LINE",
"530 276 LINE",
"860 289 LINE",
"856 383 LINE",
"572 371 LINE",
"643 536 LINE",
"821 532 LINE",
"822 627 LINE",
"684 629 LINE",
"732 741 LINE",
"646 778 LINE",
"582 631 LINE",
"453 634 LINE",
"471 698 LINE",
"381 724 LINE",
"346 602 LINE",
"390 542 LINE",
"542 538 LINE",
"467 367 LINE",
"301 361 LINE"
);
},
{
closed = 1;
nodes = (
"85 522 LINE",
"158 564 LINE",
"125 -34 LINE",
"220 -39 LINE",
"253 591 LINE",
"208 593 LINE",
"342 671 LINE",
"296 752 LINE",
"37 603 LINE"
);
},
{
closed = 1;
nodes = (
"825 -51 LINE",
"883 24 LINE",
"642 213 LINE",
"583 139 LINE"
);
}
);
width = 920;
}
);
note = uni4F5A;
unicode = 4F5A;
}
{
glyphname = uni4F5B;
layers = (
{
layerId = "A8B8C001-3175-4DE2-BFCE-CA439A51AAC8";
paths = (
{
closed = 1;
nodes = (
"379 -54 LINE",
"536 121 LINE",
"548 149 LINE",
"549 184 LINE",
"622 195 LINE",
"619 -37 LINE",
"714 -38 LINE",
"717 210 LINE",
"794 222 LINE",
"805 11 LINE",
"900 16 LINE",
"886 279 LINE",
"833 323 LINE",
"718 306 LINE",
"719 410 LINE",
"826 407 LINE",
"875 454 LINE",
"875 677 LINE",
"824 724 LINE",
"723 715 LINE",
"724 766 LINE",
"629 767 LINE",
"628 706 LINE",
"571 701 LINE",
"574 769 LINE",
"479 773 LINE",
"476 692 LINE",
"330 679 LINE",
"339 584 LINE",
"472 596 LINE",
"468 514 LINE",
"364 518 LINE",
"315 473 LINE",
"301 204 LINE",
"355 154 LINE",
"452 169 LINE",
"308 7 LINE"
);
},
{
closed = 1;
nodes = (
"66 524 LINE",
"145 568 LINE",
"111 -22 LINE",
"206 -27 LINE",
"244 622 LINE",
"241 622 LINE",
"319 666 LINE",
"273 748 LINE",
"20 607 LINE"
);
},
{
closed = 1;
nodes = (
"408 422 LINE",
"464 420 LINE",
"458 267 LINE",
"399 258 LINE"
);
},
{
closed = 1;
nodes = (
"559 416 LINE",
"624 414 LINE",
"623 292 LINE",
"553 281 LINE"
);
},
{
closed = 1;
nodes = (
"780 626 LINE",
"780 503 LINE",
"720 505 LINE",
"722 620 LINE"
);
},
{
closed = 1;
nodes = (
"567 605 LINE",
"627 611 LINE",
"625 508 LINE",
"563 510 LINE"
);
}
);
width = 920;
}
);
note = uni4F5B;
unicode = 4F5B;
}
{
glyphname = uni4F5C;
layers = (
{
layerId = "A8B8C001-3175-4DE2-BFCE-CA439A51AAC8";
paths = (
{
closed = 1;
nodes = (
"849 338 LINE",
"851 433 LINE",
"570 436 LINE",
"580 585 LINE",
"875 572 LINE",
"879 666 LINE",
"598 679 LINE",
"631 717 LINE",
"560 778 LINE",
"312 487 LINE",
"385 427 LINE",
"483 542 LINE",
"441 -53 LINE",
"536 -59 LINE",
"545 81 LINE",
"546 78 LINE",
"885 111 LINE",
"876 204 LINE",
"552 173 LINE",
"563 342 LINE"
);
},
{
closed = 1;
nodes = (
"102 447 LINE",
"181 527 LINE",
"211 -57 LINE",
"306 -52 LINE",
"271 617 LINE",
"350 697 LINE",
"282 763 LINE",
"36 513 LINE"
);
}
);
width = 920;
}
);
note = uni4F5C;
unicode = 4F5C;
}
{
glyphname = uni4F5D;
layers = (
{
layerId = "A8B8C001-3175-4DE2-BFCE-CA439A51AAC8";
paths = (
{
closed = 1;
nodes = (
"646 -59 LINE",
"831 -11 LINE",
"866 33 LINE",
"884 622 LINE",
"832 669 LINE",
"470 638 LINE",
"526 728 LINE",
"447 778 LINE",
"339 608 LINE",
"382 536 LINE",
"787 571 LINE",
"774 71 LINE",
"622 32 LINE"
);
},
{
closed = 1;
nodes = (
"432 62 LINE",
"634 106 LINE",
"671 146 LINE",
"702 399 LINE",
"657 452 LINE",
"397 462 LINE",
"349 411 LINE",
"376 104 LINE"
);
},
{
closed = 1;
nodes = (
"101 477 LINE",
"165 540 LINE",
"160 -37 LINE",
"254 -38 LINE",
"260 579 LINE",
"206 580 LINE",
"337 708 LINE",
"271 776 LINE",
"36 544 LINE"
);
},
{
closed = 1;
nodes = (
"447 366 LINE",
"602 359 LINE",
"581 191 LINE",
"465 166 LINE"
);
}
);
width = 920;
}
);
note = uni4F5D;
unicode = 4F5D;
}
{
glyphname = uni4F5E;
layers = (
{
layerId = "A8B8C001-3175-4DE2-BFCE-CA439A51AAC8";
paths = (
{
closed = 1;
nodes = (
"276 305 LINE",
"395 315 LINE",
"356 206 LINE",
"386 146 LINE",
"487 114 LINE",
"331 7 LINE",
"384 -70 LINE",
"601 79 LINE",
"817 11 LINE",
"845 101 LINE",
"699 146 LINE",
"810 222 LINE",
"756 300 LINE",
"585 182 LINE",
"461 221 LINE",
"498 325 LINE",
"884 360 LINE",
"875 453 LINE",
"533 423 LINE",
"546 460 LINE",
"457 492 LINE",
"429 414 LINE",
"267 400 LINE"
);
},
{
closed = 1;
nodes = (
"104 467 LINE",
"153 518 LINE",
"120 -35 LINE",
"215 -42 LINE",
"251 573 LINE",
"208 576 LINE",
"331 705 LINE",
"262 771 LINE",
"36 532 LINE"
);
},
{
closed = 1;
nodes = (
"337 520 LINE",
"867 535 LINE",
"865 628 LINE",
"335 615 LINE"
);
},
{
closed = 1;
nodes = (
"424 667 LINE",
"739 695 LINE",
"730 790 LINE",
"416 761 LINE"
);
}
);
width = 920;
}
);
note = uni4F5E;
unicode = 4F5E;
}
{
glyphname = uni4F5F;
layers = (
{
layerId = "A8B8C001-3175-4DE2-BFCE-CA439A51AAC8";
paths = (
{
closed = 1;
nodes = (
"294 103 LINE",
"554 313 LINE",
"859 175 LINE",
"899 260 LINE",
"636 380 LINE",
"795 509 LINE",
"775 591 LINE",
"512 653 LINE",
"564 736 LINE",
"485 786 LINE",
"397 646 LINE",
"426 575 LINE",
"660 521 LINE",
"540 423 LINE",
"366 503 LINE",
"327 416 LINE",
"458 357 LINE",
"234 175 LINE"
);
},
{
closed = 1;
nodes = (
"92 456 LINE",
"157 531 LINE",
"116 -37 LINE",
"210 -44 LINE",
"256 594 LINE",
"214 596 LINE",
"317 716 LINE",
"246 778 LINE",
"21 518 LINE"
);
},
{
closed = 1;
nodes = (
"710 -67 LINE",
"744 20 LINE",
"425 145 LINE",
"390 56 LINE"
);
},
{
closed = 1;
nodes = (
"651 81 LINE",
"701 161 LINE",
"532 266 LINE",
"482 186 LINE"
);
}
);
width = 920;
}
);
note = uni4F5F;
unicode = 4F5F;
}
{
glyphname = uni4F60;
layers = (
{
layerId = "A8B8C001-3175-4DE2-BFCE-CA439A51AAC8";
paths = (
{
closed = 1;
nodes = (
"104 425 LINE",
"154 493 LINE",
"129 -34 LINE",
"224 -37 LINE",
"251 543 LINE",
"193 546 LINE",
"314 709 LINE",
"238 765 LINE",
"28 481 LINE"
);
},
{
closed = 1;
nodes = (
"851 433 LINE",
"878 613 LINE",
"831 666 LINE",
"443 656 LINE",
"484 723 LINE",
"403 771 LINE",
"318 631 LINE",
"359 560 LINE",
"777 571 LINE",
"757 448 LINE"
);
},
{
closed = 1;
nodes = (
"441 -52 LINE",
"629 23 LINE",
"659 71 LINE",
"618 491 LINE",
"524 483 LINE",
"562 98 LINE",
"406 36 LINE"
);
},
{
closed = 1;
nodes = (
"327 93 LINE",
"492 326 LINE",
"416 380 LINE",
"251 146 LINE"
);
},
{
closed = 1;
nodes = (
"811 80 LINE",
"892 130 LINE",
"757 348 LINE",
"677 298 LINE"
);
}
);
width = 920;
}
);
note = uni4F60;
unicode = 4F60;
}
{
glyphname = uni4F63;
layers = (
{
layerId = "A8B8C001-3175-4DE2-BFCE-CA439A51AAC8";
paths = (
{
closed = 1;
nodes = (
"771 234 LINE",
"760 328 LINE",
"652 315 LINE",
"657 419 LINE",
"785 433 LINE",
"797 54 LINE",
"720 84 LINE",
"686 -2 LINE",
"831 -57 LINE",
"895 -12 LINE",
"871 698 LINE",
"824 743 LINE",
"399 743 LINE",
"351 698 LINE",
"322 -55 LINE",
"416 -58 LINE",
"426 194 LINE",
"554 209 LINE",
"544 -36 LINE",
"637 -40 LINE",
"648 220 LINE"
);
},
{
closed = 1;
nodes = (
"339 722 LINE",
"264 778 LINE",
"26 465 LINE",
"101 408 LINE",
"150 472 LINE",
"150 -56 LINE",
"244 -56 LINE",
"244 560 LINE",
"216 560 LINE"
);
},
{
closed = 1;
nodes = (
"444 649 LINE",
"573 649 LINE",
"567 504 LINE",
"438 491 LINE"
);
},
{
closed = 1;
nodes = (
"779 649 LINE",
"782 526 LINE",
"661 514 LINE",
"667 649 LINE"
);
},
{
closed = 1;
nodes = (
"434 395 LINE",
"563 409 LINE",
"558 305 LINE",
"430 290 LINE"
);
}
);
width = 920;
}
);
note = uni4F63;
unicode = 4F63;
}
{
glyphname = uni4F64;
layers = (
{
layerId = "A8B8C001-3175-4DE2-BFCE-CA439A51AAC8";
paths = (
{
closed = 1;
nodes = (
"827 -40 LINE",
"890 30 LINE",
"780 129 LINE",
"807 424 LINE",
"768 474 LINE",
"506 516 LINE",
"518 622 LINE",
"855 627 LINE",
"853 722 LINE",
"344 714 LINE",
"345 620 LINE",
"423 621 LINE",
"353 5 LINE",
"413 -46 LINE",
"607 11 LINE",
"580 101 LINE",
"454 65 LINE",
"476 261 LINE",
"598 189 LINE",
"645 269 LINE",
"488 364 LINE",
"495 422 LINE",
"709 389 LINE",
"684 114 LINE",
"700 74 LINE"
);
},
{
closed = 1;
nodes = (
"104 419 LINE",
"148 476 LINE",
"170 -43 LINE",
"264 -39 LINE",
"238 580 LINE",
"228 579 LINE",
"328 709 LINE",
"254 766 LINE",
"29 476 LINE"
);
}
);
width = 920;
}
);
note = uni4F64;
unicode = 4F64;
}
{
glyphname = uni4F65;
layers = (
{
layerId = "A8B8C001-3175-4DE2-BFCE-CA439A51AAC8";
paths = (
{
closed = 1;
nodes = (
"488 39 LINE",
"437 297 LINE",
"345 280 LINE",
"393 34 LINE",
"302 31 LINE",
"203 246 LINE",
"117 206 LINE",
"200 27 LINE",
"76 22 LINE",
"80 -71 LINE",
"820 -41 LINE",
"816 52 LINE",
"484 38 LINE"
);
},
{
closed = 1;
nodes = (
"526 721 LINE",
"461 790 LINE",
"37 390 LINE",
"101 322 LINE",
"411 613 LINE",
"840 391 LINE",
"883 476 LINE",
"484 681 LINE"
);
},
{
closed = 1;
nodes = (
"656 369 LINE",
"645 462 LINE",
"217 415 LINE",
"227 321 LINE"
);
},
{
closed = 1;
nodes = (
"806 266 LINE",
"722 311 LINE",
"611 104 LINE",
"695 60 LINE"
);
}
);
width = 920;
}
);
note = uni4F65;
unicode = 4F65;
}
{
glyphname = uni4F67;
layers = (
{
layerId = "A8B8C001-3175-4DE2-BFCE-CA439A51AAC8";
paths = (
{
closed = 1;
nodes = (
"278 357 LINE",
"905 364 LINE",
"904 459 LINE",
"629 456 LINE",
"619 586 LINE",
"819 604 LINE",
"811 697 LINE",
"612 681 LINE",
"605 785 LINE",
"511 777 LINE",
"534 455 LINE",
"276 452 LINE"
);
},
{
closed = 1;
nodes = (
"83 465 LINE",
"159 543 LINE",
"173 -64 LINE",
"266 -63 LINE",
"253 600 LINE",
"214 599 LINE",
"321 709 LINE",
"254 775 LINE",
"15 531 LINE"
);
},
{
closed = 1;
nodes = (
"605 -66 LINE",
"634 339 LINE",
"540 345 LINE",
"511 -60 LINE"
);
},
{
closed = 1;
nodes = (
"809 39 LINE",
"863 117 LINE",
"678 244 LINE",
"624 166 LINE"
);
}
);
width = 920;
}
);
note = uni4F67;
unicode = 4F67;
}
{
glyphname = uni4F69;
layers = (
{
layerId = "A8B8C001-3175-4DE2-BFCE-CA439A51AAC8";
paths = (
{
closed = 1;
nodes = (
"812 -28 LINE",
"905 18 LINE",
"862 102 LINE",
"837 89 LINE",
"827 717 LINE",
"777 763 LINE",
"335 738 LINE",
"291 694 LINE",
"242 11 LINE",
"336 4 LINE",
"382 647 LINE",
"734 666 LINE",
"744 13 LINE"
);
},
{
closed = 1;
nodes = (
"601 -28 LINE",
"608 325 LINE",
"636 322 LINE",
"627 68 LINE",
"721 64 LINE",
"732 362 LINE",
"690 411 LINE",
"609 420 LINE",
"611 508 LINE",
"685 516 LINE",
"675 609 LINE",
"424 583 LINE",
"434 489 LINE",
"518 498 LINE",
"516 430 LINE",
"444 439 LINE",
"391 393 LINE",
"391 79 LINE",
"486 79 LINE",
"486 339 LINE",
"514 336 LINE",
"507 -27 LINE"
);
},
{
closed = 1;
nodes = (
"85 496 LINE",
"125 537 LINE",
"94 -39 LINE",
"187 -44 LINE",
"222 611 LINE",
"196 612 LINE",
"276 696 LINE",
"209 761 LINE",
"16 561 LINE"
);
}
);
width = 920;
}
);
note = uni4F69;
unicode = 4F69;
}
{
glyphname = uni4F6C;
layers = (
{
layerId = "A8B8C001-3175-4DE2-BFCE-CA439A51AAC8";
paths = (
{
closed = 1;
nodes = (
"366 581 LINE",
"500 608 LINE",
"500 460 LINE",
"297 452 LINE",
"301 359 LINE",
"489 366 LINE",
"267 161 LINE",
"331 92 LINE",
"416 170 LINE",
"405 -10 LINE",
"452 -59 LINE",
"836 -60 LINE",
"837 34 LINE",
"502 34 LINE",
"515 262 LINE",
"634 372 LINE",
"894 382 LINE",
"890 476 LINE",
"740 470 LINE",
"855 576 LINE",
"791 646 LINE",
"595 464 LINE",
"595 627 LINE",
"760 661 LINE",
"740 754 LINE",
"595 724 LINE",
"595 790 LINE",
"500 790 LINE",
"500 705 LINE",
"347 674 LINE"
);
},
{
closed = 1;
nodes = (
"101 377 LINE",
"158 453 LINE",
"145 -70 LINE",
"240 -71 LINE",
"254 532 LINE",
"218 533 LINE",
"337 692 LINE",
"261 749 LINE",
"26 434 LINE"
);
},
{
closed = 1;
nodes = (
"572 81 LINE",
"836 205 LINE",
"796 291 LINE",
"532 166 LINE"
);
}
);
width = 920;
}
);
note = uni4F6C;
unicode = 4F6C;
}
{
glyphname = uni4F6F;
layers = (
{
layerId = "A8B8C001-3175-4DE2-BFCE-CA439A51AAC8";
paths = (
{
closed = 1;
nodes = (
"615 -60 LINE",
"621 64 LINE",
"894 58 LINE",
"897 152 LINE",
"626 158 LINE",
"633 296 LINE",
"827 312 LINE",
"819 406 LINE",
"638 391 LINE",
"644 497 LINE",
"892 520 LINE",
"884 613 LINE",
"731 599 LINE",
"808 716 LINE",
"729 767 LINE",
"612 588 LINE",
"324 562 LINE",
"333 468 LINE",
"550 488 LINE",
"544 383 LINE",
"369 368 LINE",
"377 275 LINE",
"539 288 LINE",
"532 161 LINE",
"300 167 LINE",
"299 72 LINE",
"527 66 LINE",
"520 -55 LINE"
);
},
{
closed = 1;
nodes = (
"82 503 LINE",
"174 574 LINE",
"174 -57 LINE",
"269 -57 LINE",
"269 647 LINE",
"324 690 LINE",
"267 765 LINE",
"24 578 LINE"
);
},
{
closed = 1;
nodes = (
"465 595 LINE",
"539 653 LINE",
"437 780 LINE",
"364 721 LINE"
);
}
);
width = 920;
}
);
note = uni4F6F;
unicode = 4F6F;
}
{
glyphname = uni4F70;
layers = (
{
layerId = "A8B8C001-3175-4DE2-BFCE-CA439A51AAC8";
paths = (
{
closed = 1;
nodes = (
"328 197 LINE",
"352 201 LINE",
"356 0 LINE",
"406 -47 LINE",
"822 -14 LINE",
"866 30 LINE",
"893 498 LINE",
"848 548 LINE",
"576 555 LINE",
"654 664 LINE",
"901 657 LINE",
"903 751 LINE",
"336 767 LINE",
"333 673 LINE",
"540 667 LINE",
"446 537 LINE",
"483 462 LINE",
"797 456 LINE",
"773 77 LINE",
"448 51 LINE",
"445 219 LINE",
"748 275 LINE",
"731 367 LINE",
"444 314 LINE",
"441 498 LINE",
"346 496 LINE",
"350 297 LINE",
"312 290 LINE"
);
},
{
closed = 1;
nodes = (
"228 -50 LINE",
"271 506 LINE",
"228 556 LINE",
"145 563 LINE",
"257 711 LINE",
"182 768 LINE",
"17 553 LINE",
"51 477 LINE",
"173 466 LINE",
"135 -44 LINE"
);
}
);
width = 920;
}
);
note = uni4F70;
unicode = 4F70;
}
{
glyphname = uni4F73;
layers = (
{
layerId = "A8B8C001-3175-4DE2-BFCE-CA439A51AAC8";
paths = (
{
closed = 1;
nodes = (
"334 186 LINE",
"519 197 LINE",
"510 79 LINE",
"290 89 LINE",
"285 -5 LINE",
"889 -32 LINE",
"894 63 LINE",
"604 75 LINE",
"614 202 LINE",
"811 214 LINE",
"806 308 LINE",
"621 297 LINE",
"625 343 LINE",
"531 350 LINE",
"526 291 LINE",
"329 280 LINE"
);
},
{
closed = 1;
nodes = (
"362 548 LINE",
"533 551 LINE",
"530 479 LINE",
"321 466 LINE",
"326 371 LINE",
"864 406 LINE",
"857 500 LINE",
"624 485 LINE",
"627 553 LINE",
"827 558 LINE",
"825 651 LINE",
"632 647 LINE",
"637 748 LINE",
"542 753 LINE",
"537 645 LINE",
"361 641 LINE"
);
},
{
closed = 1;
nodes = (
"204 -27 LINE",
"239 619 LINE",
"319 656 LINE",
"280 741 LINE",
"26 626 LINE",
"66 540 LINE",
"142 575 LINE",
"110 -22 LINE"
);
}
);
width = 920;
}
);
note = uni4F73;
unicode = 4F73;
}
{
glyphname = uni4F74;
layers = (
{
layerId = "A8B8C001-3175-4DE2-BFCE-CA439A51AAC8";
paths = (
{
closed = 1;
nodes = (
"785 -43 LINE",
"787 61 LINE",
"872 74 LINE",
"857 166 LINE",
"789 155 LINE",
"796 441 LINE",
"867 447 LINE",
"859 541 LINE",
"798 536 LINE",
"801 637 LINE",
"885 636 LINE",
"887 730 LINE",
"333 737 LINE",
"332 642 LINE",
"408 641 LINE",
"413 97 LINE",
"308 81 LINE",
"322 -11 LINE",
"692 46 LINE",
"690 -40 LINE"
);
},
{
closed = 1;
nodes = (
"108 494 LINE",
"160 558 LINE",
"160 -66 LINE",
"255 -66 LINE",
"255 615 LINE",
"206 615 LINE",
"297 726 LINE",
"224 786 LINE",
"34 554 LINE"
);
},
{
closed = 1;
nodes = (
"543 422 LINE",
"701 434 LINE",
"699 337 LINE",
"505 322 LINE",
"502 640 LINE",
"706 638 LINE",
"703 529 LINE",
"535 516 LINE"
);
},
{
closed = 1;
nodes = (
"506 227 LINE",
"697 242 LINE",
"694 141 LINE",
"507 112 LINE"
);
}
);
width = 920;
}
);
note = uni4F74;
unicode = 4F74;
}
{
glyphname = uni4F76;
layers = (
{
layerId = "A8B8C001-3175-4DE2-BFCE-CA439A51AAC8";
paths = (
{
closed = 1;
nodes = (
"462 -47 LINE",
"769 -42 LINE",
"815 -2 LINE",
"852 259 LINE",
"801 313 LINE",
"416 276 LINE",
"375 221 LINE",
"415 -9 LINE"
);
},
{
closed = 1;
nodes = (
"339 546 LINE",
"560 563 LINE",
"564 449 LINE",
"396 456 LINE",
"392 363 LINE",
"809 345 LINE",
"812 440 LINE",
"660 446 LINE",
"654 571 LINE",
"885 589 LINE",
"877 683 LINE",
"650 665 LINE",
"646 758 LINE",
"552 753 LINE",
"556 658 LINE",
"331 641 LINE"
);
},
{
closed = 1;
nodes = (
"104 449 LINE",
"180 526 LINE",
"165 -41 LINE",
"260 -44 LINE",
"275 563 LINE",
"216 563 LINE",
"351 701 LINE",
"284 768 LINE",
"36 514 LINE"
);
},
{
closed = 1;
nodes = (
"476 188 LINE",
"750 213 LINE",
"727 50 LINE",
"501 48 LINE"
);
}
);
width = 920;
}
);
note = uni4F76;
unicode = 4F76;
}
{
glyphname = uni4F7B;
layers = (
{
layerId = "A8B8C001-3175-4DE2-BFCE-CA439A51AAC8";
paths = (
{
closed = 1;
nodes = (
"848 -52 LINE",
"879 36 LINE",
"698 99 LINE",
"699 324 LINE",
"823 211 LINE",
"887 281 LINE",
"717 438 LINE",
"871 566 LINE",
"809 639 LINE",
"701 547 LINE",
"703 766 LINE",
"608 766 LINE",
"603 66 LINE",
"636 21 LINE"
);
},
{
closed = 1;
nodes = (
"297 196 LINE",
"415 242 LINE",
"418 184 LINE",
"294 8 LINE",
"371 -46 LINE",
"504 144 LINE",
"513 173 LINE",
"488 759 LINE",
"394 755 LINE",
"403 545 LINE",
"326 575 LINE",
"292 488 LINE",
"407 441 LINE",
"411 342 LINE",
"263 284 LINE"
);
},
{
closed = 1;
nodes = (
"101 480 LINE",
"144 525 LINE",
"126 -54 LINE",
"221 -57 LINE",
"241 570 LINE",
"190 572 LINE",
"326 713 LINE",
"258 778 LINE",
"33 546 LINE"
);
}
);
width = 920;
}
);
note = uni4F7B;
unicode = 4F7B;
}
{
glyphname = uni4F7C;
layers = (
{
layerId = "A8B8C001-3175-4DE2-BFCE-CA439A51AAC8";
paths = (
{
closed = 1;
nodes = (
"394 262 LINE",
"437 321 LINE",
"543 226 LINE",
"324 13 LINE",
"389 -54 LINE",
"613 164 LINE",
"829 -28 LINE",
"892 42 LINE",
"681 230 LINE",
"804 349 LINE",
"839 309 LINE",
"910 371 LINE",
"754 552 LINE",
"682 489 LINE",
"742 420 LINE",
"611 292 LINE",
"493 398 LINE",
"540 462 LINE",
"465 518 LINE",
"317 318 LINE"
);
},
{
closed = 1;
nodes = (
"80 426 LINE",
"155 503 LINE",
"129 -49 LINE",
"222 -54 LINE",
"251 539 LINE",
"192 542 LINE",
"329 683 LINE",
"260 748 LINE",
"11 492 LINE"
);
},
{
closed = 1;
nodes = (
"340 552 LINE",
"864 604 LINE",
"855 698 LINE",
"617 674 LINE",
"565 773 LINE",
"481 729 LINE",
"515 664 LINE",
"330 646 LINE"
);
}
);
width = 920;
}
);
note = uni4F7C;
unicode = 4F7C;
}
{
glyphname = uni4F7E;
layers = (
{
layerId = "A8B8C001-3175-4DE2-BFCE-CA439A51AAC8";
paths = (
{
closed = 1;
nodes = (
"358 276 LINE",
"374 277 LINE",
"374 -44 LINE",
"469 -44 LINE",
"468 125 LINE",
"701 147 LINE",
"706 58 LINE",
"613 31 LINE",
"640 -59 LINE",
"769 -21 LINE",
"803 27 LINE",
"779 514 LINE",
"731 559 LINE",
"420 554 LINE",
"374 507 LINE",
"374 370 LINE",
"353 369 LINE"
);
},
{
closed = 1;
nodes = (
"76 448 LINE",
"140 521 LINE",
"161 -59 LINE",
"255 -57 LINE",
"233 574 LINE",
"186 572 LINE",
"289 688 LINE",
"218 751 LINE",
"5 511 LINE"
);
},
{
closed = 1;
nodes = (
"643 292 LINE",
"638 386 LINE",
"468 376 LINE",
"468 461 LINE",
"686 464 LINE",
"697 241 LINE",
"468 219 LINE",
"468 282 LINE"
);
},
{
closed = 1;
nodes = (
"855 498 LINE",
"915 572 LINE",
"656 778 LINE",
"598 704 LINE"
);
},
{
closed = 1;
nodes = (
"335 511 LINE",
"566 692 LINE",
"509 766 LINE",
"278 586 LINE"
);
}
);
width = 920;
}
);
note = uni4F7E;
unicode = 4F7E;
}
{
glyphname = uni4F7F;
layers = (
{
layerId = "A8B8C001-3175-4DE2-BFCE-CA439A51AAC8";
paths = (
{
closed = 1;
nodes = (
"791 278 LINE",
"836 313 LINE",
"880 476 LINE",
"838 535 LINE",
"693 543 LINE",
"695 587 LINE",
"865 586 LINE",
"866 680 LINE",
"700 682 LINE",
"704 746 LINE",
"610 753 LINE",
"606 683 LINE",
"359 686 LINE",
"358 591 LINE",
"600 588 LINE",
"598 549 LINE",
"411 560 LINE",
"363 505 LINE",
"393 318 LINE",
"439 278 LINE",
"583 278 LINE",
"581 240 LINE",
"529 197 LINE",
"383 256 LINE",
"348 169 LINE",
"445 130 LINE",
"336 41 LINE",
"395 -32 LINE",
"546 89 LINE",
"841 -29 LINE",
"876 59 LINE",
"630 157 LINE",
"658 179 LINE",
"675 214 LINE",
"678 278 LINE"
);
},
{
closed = 1;
nodes = (
"109 433 LINE",
"193 521 LINE",
"169 -20 LINE",
"263 -25 LINE",
"290 550 LINE",
"224 553 LINE",
"330 665 LINE",
"261 730 LINE",
"40 498 LINE"
);
},
{
closed = 1;
nodes = (
"479 371 LINE",
"465 463 LINE",
"593 455 LINE",
"588 371 LINE"
);
},
{
closed = 1;
nodes = (
"774 444 LINE",
"755 371 LINE",
"683 371 LINE",
"688 449 LINE"
);
}
);
width = 920;
}
);
note = uni4F7F;
unicode = 4F7F;
}
{
glyphname = uni4F83;
layers = (
{
layerId = "A8B8C001-3175-4DE2-BFCE-CA439A51AAC8";
paths = (
{
closed = 1;
nodes = (
"439 381 LINE",
"757 391 LINE",
"803 435 LINE",
"828 705 LINE",
"778 757 LINE",
"399 729 LINE",
"355 675 LINE",
"390 421 LINE"
);
},
{
closed = 1;
nodes = (
"98 431 LINE",
"168 541 LINE",
"159 -41 LINE",
"253 -43 LINE",
"264 614 LINE",
"214 615 LINE",
"288 731 LINE",
"209 781 LINE",
"19 482 LINE"
);
},
{
closed = 1;
nodes = (
"455 639 LINE",
"729 659 LINE",
"713 485 LINE",
"478 476 LINE"
);
},
{
closed = 1;
nodes = (
"872 -36 LINE",
"902 52 LINE",
"799 86 LINE",
"809 340 LINE",
"715 344 LINE",
"703 55 LINE",
"735 9 LINE"
);
},
{
closed = 1;
nodes = (
"370 -61 LINE",
"457 45 LINE",
"467 72 LINE",
"478 337 LINE",
"384 341 LINE",
"374 92 LINE",
"298 -3 LINE"
);
},
{
closed = 1;
nodes = (
"627 -31 LINE",
"643 340 LINE",
"548 344 LINE",
"532 -28 LINE"
);
}
);
width = 920;
}
);
note = uni4F83;
unicode = 4F83;
}
{
glyphname = uni4F84;
layers = (
{
layerId = "A8B8C001-3175-4DE2-BFCE-CA439A51AAC8";
paths = (
{
closed = 1;
nodes = (
"315 625 LINE",
"408 628 LINE",
"330 431 LINE",
"382 368 LINE",
"527 395 LINE",
"520 288 LINE",
"362 293 LINE",
"360 198 LINE",
"514 193 LINE",
"504 56 LINE",
"306 45 LINE",
"311 -49 LINE",
"887 -15 LINE",
"881 79 LINE",
"599 62 LINE",
"607 191 LINE",
"791 186 LINE",
"793 281 LINE",
"614 286 LINE",
"622 413 LINE",
"737 435 LINE",
"787 355 LINE",
"867 404 LINE",
"753 589 LINE",
"673 540 LINE",
"685 520 LINE",
"448 475 LINE",
"511 631 LINE",
"828 641 LINE",
"826 736 LINE",
"312 720 LINE"
);
},
{
closed = 1;
nodes = (
"228 -52 LINE",
"258 494 LINE",
"165 499 LINE",
"135 -47 LINE"
);
},
{
closed = 1;
nodes = (
"108 474 LINE",
"281 718 LINE",
"203 773 LINE",
"32 529 LINE"
);
}
);
width = 920;
}
);
note = uni4F84;
unicode = 4F84;
}
{
glyphname = uni4F88;
layers = (
{
layerId = "A8B8C001-3175-4DE2-BFCE-CA439A51AAC8";
paths = (
{
closed = 1;
nodes = (
"366 -71 LINE",
"875 120 LINE",
"887 201 LINE",
"727 324 LINE",
"818 379 LINE",
"770 460 LINE",
"441 262 LINE",
"490 181 LINE",
"642 273 LINE",
"763 179 LINE",
"574 108 LINE",
"520 172 LINE",
"448 111 LINE",
"481 73 LINE",
"333 17 LINE"
);
},
{
closed = 1;
nodes = (
"380 264 LINE",
"802 530 LINE",
"795 614 LINE",
"594 697 LINE",
"620 719 LINE",
"560 790 LINE",
"327 592 LINE",
"388 521 LINE",
"514 628 LINE",
"675 561 LINE",
"579 500 LINE",
"536 556 LINE",
"462 499 LINE",
"500 450 LINE",
"330 342 LINE"
);
},
{
closed = 1;
nodes = (
"253 -30 LINE",
"277 422 LINE",
"215 470 LINE",
"186 460 LINE",
"301 636 LINE",
"222 687 LINE",
"32 397 LINE",
"87 327 LINE",
"180 359 LINE",
"158 -25 LINE"
);
}
);
width = 920;
}
);
note = uni4F88;
unicode = 4F88;
}
{
glyphname = uni4F89;
layers = (
{
layerId = "A8B8C001-3175-4DE2-BFCE-CA439A51AAC8";
paths = (
{
closed = 1;
nodes = (
"842 381 LINE",
"907 450 LINE",
"757 591 LINE",
"876 600 LINE",
"868 695 LINE",
"614 675 LINE",
"660 730 LINE",
"588 790 LINE",
"483 664 LINE",
"296 650 LINE",
"303 556 LINE",
"399 563 LINE",
"263 401 LINE",
"336 341 LINE",
"461 491 LINE",
"463 412 LINE",
"692 419 LINE",
"688 512 LINE",
"474 506 LINE",
"529 573 LINE",
"738 589 LINE",
"685 531 LINE"
);
},
{
closed = 1;
nodes = (
"333 222 LINE",
"463 234 LINE",
"390 141 LINE",
"425 65 LINE",
"682 54 LINE",
"641 -29 LINE",
"725 -71 LINE",
"798 76 LINE",
"758 144 LINE",
"520 155 LINE",
"591 246 LINE",
"842 269 LINE",
"833 364 LINE",
"325 316 LINE"
);
},
{
closed = 1;
nodes = (
"90 390 LINE",
"148 478 LINE",
"155 -38 LINE",
"250 -36 LINE",
"241 597 LINE",
"227 597 LINE",
"313 726 LINE",
"236 777 LINE",
"12 442 LINE"
);
}
);
width = 920;
}
);
note = uni4F89;
unicode = 4F89;
}
{
glyphname = uni4F8B;
layers = (
{
layerId = "A8B8C001-3175-4DE2-BFCE-CA439A51AAC8";
paths = (
{
closed = 1;
nodes = (
"446 -46 LINE",
"657 402 LINE",
"636 464 LINE",
"470 552 LINE",
"496 622 LINE",
"646 606 LINE",
"656 700 LINE",
"336 734 LINE",
"326 640 LINE",
"398 632 LINE",
"252 235 LINE",
"341 202 LINE",
"437 462 LINE",
"552 401 LINE",
"511 314 LINE",
"437 349 LINE",
"398 262 LINE",
"471 228 LINE",
"361 -6 LINE"
);
},
{
closed = 1;
nodes = (
"103 427 LINE",
"148 490 LINE",
"135 -6 LINE",
"228 -10 LINE",
"245 575 LINE",
"210 575 LINE",
"307 711 LINE",
"231 766 LINE",
"27 482 LINE"
);
},
{
closed = 1;
nodes = (
"662 -40 LINE",
"861 26 LINE",
"893 71 LINE",
"893 739 LINE",
"800 739 LINE",
"800 105 LINE",
"633 49 LINE"
);
},
{
closed = 1;
nodes = (
"758 139 LINE",
"777 615 LINE",
"682 619 LINE",
"663 142 LINE"
);
}
);
width = 920;
}
);
note = uni4F8B;
unicode = 4F8B;
}
{
glyphname = uni4F8D;
layers = (
{
layerId = "A8B8C001-3175-4DE2-BFCE-CA439A51AAC8";
paths = (
{
closed = 1;
nodes = (
"800 595 LINE",
"805 690 LINE",
"646 698 LINE",
"646 783 LINE",
"551 783 LINE",
"551 702 LINE",
"406 710 LINE",
"401 616 LINE",
"551 608 LINE",
"551 515 LINE",
"315 525 LINE",
"311 431 LINE",
"890 407 LINE",
"894 502 LINE",
"646 512 LINE",
"646 603 LINE"
);
},
{
closed = 1;
nodes = (
"89 448 LINE",
"147 499 LINE",
"154 -60 LINE",
"249 -59 LINE",
"240 581 LINE",
"345 673 LINE",
"282 745 LINE",
"26 520 LINE"
);
},
{
closed = 1;
nodes = (
"847 232 LINE",
"847 326 LINE",
"757 326 LINE",
"749 407 LINE",
"655 397 LINE",
"662 326 LINE",
"337 326 LINE",
"337 232 LINE",
"672 232 LINE",
"687 97 LINE",
"587 3 LINE",
"652 -65 LINE",
"769 43 LINE",
"784 83 LINE",
"768 232 LINE"
);
},
{
closed = 1;
nodes = (
"474 -20 LINE",
"560 17 LINE",
"471 217 LINE",
"385 178 LINE"
);
}
);
width = 920;
}
);
note = uni4F8D;
unicode = 4F8D;
}
{
glyphname = uni4F8F;
layers = (
{
layerId = "A8B8C001-3175-4DE2-BFCE-CA439A51AAC8";
paths = (
{
closed = 1;
nodes = (
"380 -31 LINE",
"539 258 LINE",
"530 -29 LINE",
"623 -33 LINE",
"635 319 LINE",
"873 331 LINE",
"868 425 LINE",
"638 413 LINE",
"642 522 LINE",
"830 519 LINE",
"831 614 LINE",
"645 616 LINE",
"651 772 LINE",
"556 776 LINE",
"551 618 LINE",
"430 620 LINE",
"467 702 LINE",
"381 741 LINE",
"313 594 LINE",
"356 527 LINE",
"548 524 LINE",
"544 409 LINE",
"303 397 LINE",
"307 302 LINE",
"460 310 LINE",
"297 14 LINE"
);
},
{
closed = 1;
nodes = (
"88 467 LINE",
"144 532 LINE",
"163 -56 LINE",
"257 -53 LINE",
"237 587 LINE",
"191 586 LINE",
"298 710 LINE",
"226 771 LINE",
"17 529 LINE"
);
},
{
closed = 1;
nodes = (
"830 1 LINE",
"903 60 LINE",
"741 261 LINE",
"667 202 LINE"
);
}
);
width = 920;
}
);
note = uni4F8F;
unicode = 4F8F;
}
{
glyphname = uni4F91;
layers = (
{
layerId = "A8B8C001-3175-4DE2-BFCE-CA439A51AAC8";
paths = (
{
closed = 1;
nodes = (
"501 110 LINE",
"747 127 LINE",
"747 88 LINE",
"599 13 LINE",
"642 -70 LINE",
"816 18 LINE",
"841 60 LINE",
"841 134 LINE",
"879 137 LINE",
"873 231 LINE",
"841 228 LINE",
"841 476 LINE",
"793 523 LINE",
"473 518 LINE",
"495 573 LINE",
"902 601 LINE",
"894 695 LINE",
"534 670 LINE",
"569 755 LINE",
"482 790 LINE",
"430 662 LINE",
"294 653 LINE",
"301 560 LINE",
"391 566 LINE",
"259 241 LINE",
"347 206 LINE",
"375 275 LINE",
"389 -68 LINE",
"483 -64 LINE",
"469 266 LINE",
"708 288 LINE",
"699 382 LINE",
"465 359 LINE",
"463 425 LINE",
"747 428 LINE",
"747 221 LINE",
"493 203 LINE"
);
},
{
closed = 1;
nodes = (
"88 481 LINE",
"139 539 LINE",
"114 -29 LINE",
"208 -33 LINE",
"237 607 LINE",
"201 608 LINE",
"304 723 LINE",
"234 786 LINE",
"18 543 LINE"
);
}
);
width = 920;
}
);
note = uni4F91;
unicode = 4F91;
}
{
glyphname = uni4F94;
layers = (
{
layerId = "A8B8C001-3175-4DE2-BFCE-CA439A51AAC8";
paths = (
{
closed = 1;
nodes = (
"349 291 LINE",
"538 310 LINE",
"528 158 LINE",
"276 136 LINE",
"284 42 LINE",
"521 63 LINE",
"514 -43 LINE",
"609 -49 LINE",
"617 72 LINE",
"907 98 LINE",
"898 192 LINE",
"623 167 LINE",
"633 320 LINE",
"832 341 LINE",
"822 435 LINE",
"639 416 LINE",
"644 485 LINE",
"551 491 LINE",
"545 406 LINE",
"409 392 LINE",
"429 457 LINE",
"338 485 LINE",
"299 351 LINE"
);
},
{
closed = 1;
nodes = (
"79 482 LINE",
"126 528 LINE",
"133 -50 LINE",
"227 -49 LINE",
"221 590 LINE",
"190 589 LINE",
"298 693 LINE",
"233 761 LINE",
"13 550 LINE"
);
},
{
closed = 1;
nodes = (
"371 520 LINE",
"807 542 LINE",
"847 611 LINE",
"779 742 LINE",
"696 700 LINE",
"729 633 LINE",
"432 617 LINE",
"468 743 LINE",
"377 770 LINE",
"323 580 LINE"
);
}
);
width = 920;
}
);
note = uni4F94;
unicode = 4F94;
}
{
glyphname = uni4F97;
layers = (
{
layerId = "A8B8C001-3175-4DE2-BFCE-CA439A51AAC8";
paths = (
{
closed = 1;
nodes = (
"844 -47 LINE",
"894 -2 LINE",
"910 714 LINE",
"860 763 LINE",
"401 745 LINE",
"355 699 LINE",
"338 -33 LINE",
"433 -36 LINE",
"449 653 LINE",
"814 665 LINE",
"800 49 LINE",
"676 57 LINE",
"670 -37 LINE"
);
},
{
closed = 1;
nodes = (
"84 408 LINE",
"162 507 LINE",
"204 -58 LINE",
"299 -52 LINE",
"255 544 LINE",
"187 539 LINE",
"328 719 LINE",
"253 778 LINE",
"10 467 LINE"
);
},
{
closed = 1;
nodes = (
"544 110 LINE",
"733 139 LINE",
"773 193 LINE",
"743 400 LINE",
"698 442 LINE",
"521 448 LINE",
"473 397 LINE",
"490 154 LINE"
);
},
{
closed = 1;
nodes = (
"754 493 LINE",
"764 588 LINE",
"498 614 LINE",
"488 519 LINE"
);
},
{
closed = 1;
nodes = (
"571 350 LINE",
"655 348 LINE",
"671 225 LINE",
"581 212 LINE"
);
}
);
width = 920;
}
);
note = uni4F97;
unicode = 4F97;
}
{
glyphname = uni4F9B;
layers = (
{
layerId = "A8B8C001-3175-4DE2-BFCE-CA439A51AAC8";
paths = (
{
closed = 1;
nodes = (
"403 -60 LINE",
"525 234 LINE",
"892 262 LINE",
"885 356 LINE",
"727 344 LINE",
"731 549 LINE",
"830 565 LINE",
"815 658 LINE",
"734 645 LINE",
"736 738 LINE",
"641 741 LINE",
"638 630 LINE",
"485 607 LINE",
"485 733 LINE",
"390 733 LINE",
"390 592 LINE",
"320 581 LINE",
"335 487 LINE",
"390 495 LINE",
"390 319 LINE",
"270 310 LINE",
"277 215 LINE",
"419 226 LINE",
"316 -24 LINE"
);
},
{
closed = 1;
nodes = (
"98 443 LINE",
"139 490 LINE",
"118 -40 LINE",
"213 -44 LINE",
"239 605 LINE",
"337 717 LINE",
"266 780 LINE",
"27 506 LINE"
);
},
{
closed = 1;
nodes = (
"485 510 LINE",
"636 534 LINE",
"632 337 LINE",
"485 326 LINE"
);
},
{
closed = 1;
nodes = (
"767 -17 LINE",
"836 48 LINE",
"693 197 LINE",
"625 131 LINE"
);
}
);
width = 920;
}
);
note = uni4F9B;
unicode = 4F9B;
}
{
glyphname = uni4F9D;
layers = (
{
layerId = "A8B8C001-3175-4DE2-BFCE-CA439A51AAC8";
paths = (
{
closed = 1;
nodes = (
"344 557 LINE",
"470 566 LINE",
"294 219 LINE",
"377 176 LINE",
"419 259 LINE",
"402 -3 LINE",
"470 -48 LINE",
"686 52 LINE",
"646 137 LINE",
"502 71 LINE",
"519 334 LINE",
"459 338 LINE",
"579 574 LINE",
"885 596 LINE",
"877 690 LINE",
"650 673 LINE",
"617 781 LINE",
"527 752 LINE",
"554 666 LINE",
"336 651 LINE"
);
},
{
closed = 1;
nodes = (
"95 406 LINE",
"153 470 LINE",
"182 -61 LINE",
"277 -55 LINE",
"246 500 LINE",
"177 496 LINE",
"359 696 LINE",
"289 759 LINE",
"26 470 LINE"
);
},
{
closed = 1;
nodes = (
"807 -36 LINE",
"895 0 LINE",
"780 283 LINE",
"889 397 LINE",
"820 462 LINE",
"741 379 LINE",
"691 505 LINE",
"604 470 LINE"
);
}
);
width = 920;
}
);
note = uni4F9D;
unicode = 4F9D;
}
{
glyphname = uni4FA0;
layers = (
{
layerId = "A8B8C001-3175-4DE2-BFCE-CA439A51AAC8";
paths = (
{
closed = 1;
nodes = (
"882 232 LINE",
"871 325 LINE",
"584 288 LINE",
"682 575 LINE",
"825 587 LINE",
"817 680 LINE",
"715 672 LINE",
"740 744 LINE",
"650 774 LINE",
"613 664 LINE",
"358 644 LINE",
"366 550 LINE",
"580 567 LINE",
"517 382 LINE",
"463 525 LINE",
"375 492 LINE",
"447 302 LINE",
"496 320 LINE",
"481 275 LINE",
"318 255 LINE",
"331 163 LINE",
"448 177 LINE",
"375 -38 LINE",
"463 -68 LINE",
"551 190 LINE"
);
},
{
closed = 1;
nodes = (
"338 735 LINE",
"260 788 LINE",
"32 452 LINE",
"110 398 LINE",
"196 526 LINE",
"182 -38 LINE",
"276 -41 LINE",
"292 573 LINE",
"229 574 LINE"
);
},
{
closed = 1;
nodes = (
"888 19 LINE",
"697 205 LINE",
"631 138 LINE",
"823 -47 LINE"
);
},
{
closed = 1;
nodes = (
"850 532 LINE",
"766 574 LINE",
"653 354 LINE",
"737 310 LINE"
);
}
);
width = 920;
}
);
note = uni4FA0;
unicode = 4FA0;
}
{
glyphname = uni4FA3;
layers = (
{
layerId = "A8B8C001-3175-4DE2-BFCE-CA439A51AAC8";
paths = (
{
closed = 1;
nodes = (
"811 -40 LINE",
"854 2 LINE",
"882 290 LINE",
"834 341 LINE",
"383 341 LINE",
"337 292 LINE",
"354 -20 LINE",
"404 -65 LINE"
);
},
{
closed = 1;
nodes = (
"783 407 LINE",
"828 450 LINE",
"856 723 LINE",
"809 775 LINE",
"442 775 LINE",
"394 725 LINE",
"414 433 LINE",
"464 390 LINE"
);
},
{
closed = 1;
nodes = (
"334 728 LINE",
"258 783 LINE",
"38 476 LINE",
"114 421 LINE",
"151 473 LINE",
"204 -45 LINE",
"298 -37 LINE",
"235 589 LINE"
);
},
{
closed = 1;
nodes = (
"783 247 LINE",
"764 51 LINE",
"446 32 LINE",
"433 247 LINE"
);
},
{
closed = 1;
nodes = (
"757 681 LINE",
"738 500 LINE",
"506 486 LINE",
"492 681 LINE"
);
}
);
width = 920;
}
);
note = uni4FA3;
unicode = 4FA3;
}
{
glyphname = uni4FA5;
layers = (
{
layerId = "A8B8C001-3175-4DE2-BFCE-CA439A51AAC8";
paths = (
{
closed = 1;
nodes = (
"827 478 LINE",
"791 564 LINE",
"671 515 LINE",
"630 571 LINE",
"793 593 LINE",
"781 687 LINE",
"567 658 LINE",
"490 764 LINE",
"413 708 LINE",
"460 643 LINE",
"303 622 LINE",
"317 528 LINE",
"524 556 LINE",
"581 478 LINE",
"355 386 LINE",
"391 298 LINE",
"638 400 LINE",
"707 306 LINE",
"763 289 LINE",
"938 361 LINE",
"903 448 LINE",
"761 391 LINE",
"727 437 LINE"
);
},
{
closed = 1;
nodes = (
"873 188 LINE",
"868 283 LINE",
"272 254 LINE",
"276 159 LINE",
"426 166 LINE",
"315 -27 LINE",
"397 -74 LINE",
"538 172 LINE",
"611 175 LINE",
"583 14 LINE",
"625 -41 LINE",
"901 -71 LINE",
"911 22 LINE",
"685 48 LINE",
"708 180 LINE"
);
},
{
closed = 1;
nodes = (
"346 731 LINE",
"275 793 LINE",
"-18 462 LINE",
"53 401 LINE",
"133 491 LINE",
"161 -71 LINE",
"255 -67 LINE",
"226 534 LINE",
"168 531 LINE"
);
}
);
width = 920;
}
);
note = uni4FA5;
unicode = 4FA5;
}
{
glyphname = uni4FA6;
layers = (
{
layerId = "A8B8C001-3175-4DE2-BFCE-CA439A51AAC8";
paths = (
{
closed = 1;
nodes = (
"805 654 LINE",
"795 747 LINE",
"614 728 LINE",
"615 799 LINE",
"521 800 LINE",
"517 550 LINE",
"381 559 LINE",
"331 506 LINE",
"373 172 LINE",
"467 185 LINE",
"431 461 LINE",
"781 440 LINE",
"728 187 LINE",
"821 169 LINE",
"883 474 LINE",
"841 531 LINE",
"611 545 LINE",
"612 633 LINE"
);
},
{
closed = 1;
nodes = (
"353 694 LINE",
"290 762 LINE",
"37 524 LINE",
"102 455 LINE",
"155 506 LINE",
"178 -63 LINE",
"273 -59 LINE",
"246 592 LINE"
);
},
{
closed = 1;
nodes = (
"677 387 LINE",
"592 427 LINE",
"373 -41 LINE",
"460 -81 LINE"
);
},
{
closed = 1;
nodes = (
"850 -10 LINE",
"690 146 LINE",
"623 79 LINE",
"783 -78 LINE"
);
}
);
width = 920;
}
);
note = uni4FA6;
unicode = 4FA6;
}
{
glyphname = uni4FA7;
layers = (
{
layerId = "A8B8C001-3175-4DE2-BFCE-CA439A51AAC8";
paths = (
{
closed = 1;
nodes = (
"516 470 LINE",
"426 497 LINE",
"368 296 LINE",
"375 575 LINE",
"543 595 LINE",
"530 228 LINE",
"623 225 LINE",
"640 647 LINE",
"587 695 LINE",
"323 665 LINE",
"281 619 LINE",
"273 288 LINE",
"365 285 LINE",
"275 -27 LINE",
"365 -53 LINE",
"413 114 LINE",
"533 15 LINE",
"593 89 LINE",
"442 214 LINE"
);
},
{
closed = 1;
nodes = (
"298 725 LINE",
"217 773 LINE",
"22 442 LINE",
"103 394 LINE",
"140 458 LINE",
"143 -41 LINE",
"237 -40 LINE",
"235 588 LINE",
"217 588 LINE"
);
},
{
closed = 1;
nodes = (
"871 43 LINE",
"897 88 LINE",
"873 750 LINE",
"780 748 LINE",
"802 115 LINE",
"647 42 LINE",
"687 -43 LINE"
);
},
{
closed = 1;
nodes = (
"766 603 LINE",
"672 608 LINE",
"643 155 LINE",
"737 149 LINE"
);
}
);
width = 920;
}
);
note = uni4FA7;
unicode = 4FA7;
}
{
glyphname = uni4FA8;
layers = (
{
layerId = "A8B8C001-3175-4DE2-BFCE-CA439A51AAC8";
paths = (
{
closed = 1;
nodes = (
"893 494 LINE",
"880 588 LINE",
"563 546 LINE",
"634 648 LINE",
"840 674 LINE",
"828 768 LINE",
"348 707 LINE",
"360 613 LINE",
"508 632 LINE",
"437 529 LINE",
"275 508 LINE",
"288 414 LINE",
"364 424 LINE",
"270 287 LINE",
"348 233 LINE",
"491 441 LINE",
"688 467 LINE",
"825 287 LINE",
"900 343 LINE",
"796 481 LINE"
);
},
{
closed = 1;
nodes = (
"316 711 LINE",
"246 773 LINE",
"20 516 LINE",
"90 453 LINE",
"129 498 LINE",
"116 -46 LINE",
"210 -48 LINE",
"227 610 LINE"
);
},
{
closed = 1;
nodes = (
"519 52 LINE",
"540 89 LINE",
"549 331 LINE",
"454 334 LINE",
"446 117 LINE",
"304 23 LINE",
"355 -54 LINE"
);
},
{
closed = 1;
nodes = (
"809 -11 LINE",
"773 342 LINE",
"679 333 LINE",
"715 -21 LINE"
);
}
);
width = 920;
}
);
note = uni4FA8;
unicode = 4FA8;
}
{
glyphname = uni4FA9;
layers = (
{
layerId = "A8B8C001-3175-4DE2-BFCE-CA439A51AAC8";
paths = (
{
closed = 1;
nodes = (
"841 233 LINE",
"840 328 LINE",
"274 316 LINE",
"276 222 LINE",
"442 225 LINE",
"304 16 LINE",
"351 -54 LINE",
"747 19 LINE",
"779 -38 LINE",
"861 7 LINE",
"750 212 LINE",
"666 167 LINE",
"700 105 LINE",
"444 57 LINE",
"556 227 LINE"
);
},
{
closed = 1;
nodes = (
"243 -47 LINE",
"209 605 LINE",
"330 686 LINE",
"278 764 LINE",
"15 588 LINE",
"68 511 LINE",
"118 544 LINE",
"149 -52 LINE"
);
},
{
closed = 1;
nodes = (
"650 702 LINE",
"589 773 LINE",
"235 461 LINE",
"298 389 LINE",
"546 610 LINE",
"855 416 LINE",
"905 494 LINE",
"620 675 LINE"
);
},
{
closed = 1;
nodes = (
"713 389 LINE",
"705 483 LINE",
"429 461 LINE",
"436 366 LINE"
);
}
);
width = 920;
}
);
note = uni4FA9;
unicode = 4FA9;
}
{
glyphname = uni4FAA;
layers = (
{
layerId = "A8B8C001-3175-4DE2-BFCE-CA439A51AAC8";
paths = (
{
closed = 1;
nodes = (
"753 -38 LINE",
"741 298 LINE",
"831 247 LINE",
"878 328 LINE",
"642 463 LINE",
"825 580 LINE",
"809 605 LINE",
"902 603 LINE",
"903 697 LINE",
"630 704 LINE",
"611 773 LINE",
"520 748 LINE",
"531 706 LINE",
"301 712 LINE",
"298 617 LINE",
"696 608 LINE",
"551 516 LINE",
"415 595 LINE",
"368 513 LINE",
"462 459 LINE",
"312 363 LINE",
"362 285 LINE",
"410 316 LINE",
"431 138 LINE",
"288 16 LINE",
"350 -55 LINE",
"511 83 LINE",
"527 125 LINE",
"499 372 LINE",
"553 406 LINE",
"645 353 LINE",
"658 -42 LINE"
);
},
{
closed = 1;
nodes = (
"282 482 LINE",
"190 497 LINE",
"106 -32 LINE",
"198 -47 LINE"
);
},
{
closed = 1;
nodes = (
"287 705 LINE",
"213 765 LINE",
"17 520 LINE",
"91 460 LINE"
);
}
);
width = 920;
}
);
note = uni4FAA;
unicode = 4FAA;
}
{
glyphname = uni4FAC;
layers = (
{
layerId = "A8B8C001-3175-4DE2-BFCE-CA439A51AAC8";
paths = (
{
closed = 1;
nodes = (
"888 301 LINE",
"823 370 LINE",
"738 290 LINE",
"621 557 LINE",
"788 575 LINE",
"760 495 LINE",
"850 465 LINE",
"900 615 LINE",
"850 676 LINE",
"656 656 LINE",
"703 733 LINE",
"623 781 LINE",
"539 644 LINE",
"372 626 LINE",
"368 671 LINE",
"274 661 LINE",
"298 433 LINE",
"392 443 LINE",
"382 532 LINE",
"477 542 LINE",
"257 183 LINE",
"338 133 LINE",
"390 219 LINE",
"422 -35 LINE",
"502 -62 LINE",
"706 130 LINE",
"788 -55 LINE",
"874 -17 LINE",
"779 198 LINE"
);
},
{
closed = 1;
nodes = (
"284 485 LINE",
"190 500 LINE",
"107 -29 LINE",
"200 -44 LINE"
);
},
{
closed = 1;
nodes = (
"470 350 LINE",
"550 483 LINE",
"665 222 LINE",
"504 70 LINE"
);
},
{
closed = 1;
nodes = (
"289 709 LINE",
"215 768 LINE",
"19 523 LINE",
"92 464 LINE"
);
},
{
closed = 1;
nodes = (
"594 555 LINE",
"599 555 LINE",
"593 552 LINE"
);
}
);
width = 920;
}
);
note = uni4FAC;
unicode = 4FAC;
}
{
glyphname = uni4FAE;
layers = (
{
layerId = "A8B8C001-3175-4DE2-BFCE-CA439A51AAC8";
paths = (
{
closed = 1;
nodes = (
"294 200 LINE",
"372 201 LINE",
"337 22 LINE",
"387 -34 LINE",
"695 -10 LINE",
"691 -55 LINE",
"786 -61 LINE",
"790 -3 LINE",
"880 4 LINE",
"872 97 LINE",
"796 92 LINE",
"804 208 LINE",
"876 209 LINE",
"875 302 LINE",
"810 301 LINE",
"821 457 LINE",
"777 507 LINE",
"480 526 LINE",
"430 489 LINE",
"391 295 LINE",
"292 294 LINE"
);
},
{
closed = 1;
nodes = (
"106 425 LINE",
"148 464 LINE",
"175 -3 LINE",
"270 2 LINE",
"242 490 LINE",
"171 486 LINE",
"311 617 LINE",
"246 686 LINE",
"41 494 LINE"
);
},
{
closed = 1;
nodes = (
"395 487 LINE",
"457 576 LINE",
"841 576 LINE",
"841 670 LINE",
"522 670 LINE",
"561 726 LINE",
"484 780 LINE",
"317 541 LINE"
);
},
{
closed = 1;
nodes = (
"504 137 LINE",
"536 72 LINE",
"442 65 LINE",
"469 202 LINE",
"709 206 LINE",
"701 85 LINE",
"637 80 LINE",
"589 179 LINE"
);
},
{
closed = 1;
nodes = (
"515 430 LINE",
"724 416 LINE",
"716 300 LINE",
"651 299 LINE",
"629 400 LINE",
"537 380 LINE",
"556 298 LINE",
"488 297 LINE"
);
}
);
width = 920;
}
);
note = uni4FAE;
unicode = 4FAE;
}
{
glyphname = uni4FAF;
layers = (
{
layerId = "A8B8C001-3175-4DE2-BFCE-CA439A51AAC8";
paths = (
{
closed = 1;
nodes = (
"383 276 LINE",
"520 291 LINE",
"474 207 LINE",
"318 184 LINE",
"332 91 LINE",
"416 103 LINE",
"365 12 LINE",
"448 -34 LINE",
"534 121 LINE",
"596 130 LINE",
"748 -32 LINE",
"818 33 LINE",
"710 147 LINE",
"811 162 LINE",
"797 256 LINE",
"593 225 LINE",
"636 303 LINE",
"781 319 LINE",
"771 413 LINE",
"460 379 LINE",
"472 404 LINE",
"387 447 LINE",
"336 344 LINE"
);
},
{
closed = 1;
nodes = (
"835 456 LINE",
"837 551 LINE",
"725 553 LINE",
"778 653 LINE",
"741 723 LINE",
"415 751 LINE",
"406 656 LINE",
"661 634 LINE",
"618 556 LINE",
"326 563 LINE",
"323 468 LINE"
);
},
{
closed = 1;
nodes = (
"266 -29 LINE",
"298 481 LINE",
"271 527 LINE",
"198 558 LINE",
"330 686 LINE",
"263 753 LINE",
"82 578 LINE",
"96 501 LINE",
"202 453 LINE",
"171 -23 LINE"
);
}
);
width = 920;
}
);
note = uni4FAF;
unicode = 4FAF;
}
{
glyphname = uni4FB5;
layers = (
{
layerId = "A8B8C001-3175-4DE2-BFCE-CA439A51AAC8";
paths = (
{
closed = 1;
nodes = (
"359 541 LINE",
"710 562 LINE",
"712 542 LINE",
"298 519 LINE",
"303 425 LINE",
"766 451 LINE",
"811 502 LINE",
"788 729 LINE",
"742 771 LINE",
"317 771 LINE",
"317 676 LINE",
"699 676 LINE",
"701 656 LINE",
"353 635 LINE"
);
},
{
closed = 1;
nodes = (
"322 -50 LINE",
"516 46 LINE",
"806 -51 LINE",
"834 39 LINE",
"635 105 LINE",
"764 169 LINE",
"748 257 LINE",
"403 295 LINE",
"393 201 LINE",
"577 181 LINE",
"508 147 LINE",
"396 185 LINE",
"366 96 LINE",
"389 88 LINE",
"281 35 LINE"
);
},
{
closed = 1;
nodes = (
"94 480 LINE",
"147 525 LINE",
"113 -11 LINE",
"207 -18 LINE",
"244 585 LINE",
"218 586 LINE",
"299 656 LINE",
"238 727 LINE",
"33 551 LINE"
);
},
{
closed = 1;
nodes = (
"867 199 LINE",
"887 365 LINE",
"838 417 LINE",
"284 394 LINE",
"239 344 LINE",
"249 211 LINE",
"343 217 LINE",
"337 302 LINE",
"787 321 LINE",
"773 209 LINE"
);
}
);
width = 920;
}
);
note = uni4FB5;
unicode = 4FB5;
}
{
glyphname = uni4FBF;
layers = (
{
layerId = "A8B8C001-3175-4DE2-BFCE-CA439A51AAC8";
paths = (
{
closed = 1;
nodes = (
"351 -48 LINE",
"515 87 LINE",
"856 -47 LINE",
"890 41 LINE",
"598 156 LINE",
"604 161 LINE",
"620 194 LINE",
"622 242 LINE",
"781 234 LINE",
"830 273 LINE",
"886 584 LINE",
"839 641 LINE",
"643 634 LINE",
"645 674 LINE",
"864 674 LINE",
"864 768 LINE",
"321 768 LINE",
"321 674 LINE",
"550 674 LINE",
"548 631 LINE",
"374 626 LINE",
"327 579 LINE",
"327 301 LINE",
"372 254 LINE",
"528 246 LINE",
"527 221 LINE",
"497 196 LINE",
"356 252 LINE",
"322 163 LINE",
"414 127 LINE",
"291 24 LINE"
);
},
{
closed = 1;
nodes = (
"196 -49 LINE",
"264 449 LINE",
"216 503 LINE",
"157 503 LINE",
"294 711 LINE",
"215 762 LINE",
"31 482 LINE",
"71 409 LINE",
"162 409 LINE",
"104 -37 LINE"
);
},
{
closed = 1;
nodes = (
"784 544 LINE",
"773 484 LINE",
"635 491 LINE",
"638 539 LINE"
);
},
{
closed = 1;
nodes = (
"627 336 LINE",
"630 397 LINE",
"756 392 LINE",
"745 331 LINE"
);
},
{
closed = 1;
nodes = (
"422 346 LINE",
"422 407 LINE",
"536 402 LINE",
"533 341 LINE"
);
},
{
closed = 1;
nodes = (
"422 533 LINE",
"543 536 LINE",
"541 495 LINE",
"422 501 LINE"
);
}
);
width = 920;
}
);
note = uni4FBF;
unicode = 4FBF;
}
{
glyphname = uni4FC3;
layers = (
{
layerId = "A8B8C001-3175-4DE2-BFCE-CA439A51AAC8";
paths = (
{
closed = 1;
nodes = (
"407 387 LINE",
"806 412 LINE",
"851 461 LINE",
"839 719 LINE",
"791 764 LINE",
"382 760 LINE",
"336 710 LINE",
"357 431 LINE"
);
},
{
closed = 1;
nodes = (
"192 -38 LINE",
"279 445 LINE",
"235 501 LINE",
"147 506 LINE",
"294 736 LINE",
"214 786 LINE",
"26 490 LINE",
"62 417 LINE",
"176 410 LINE",
"99 -21 LINE"
);
},
{
closed = 1;
nodes = (
"342 -66 LINE",
"407 96 LINE",
"549 -31 LINE",
"585 -44 LINE",
"895 -16 LINE",
"887 77 LINE",
"597 52 LINE",
"445 190 LINE",
"506 340 LINE",
"419 375 LINE",
"255 -31 LINE"
);
},
{
closed = 1;
nodes = (
"434 666 LINE",
"747 669 LINE",
"755 504 LINE",
"447 484 LINE"
);
},
{
closed = 1;
nodes = (
"671 135 LINE",
"840 144 LINE",
"835 237 LINE",
"717 231 LINE",
"719 364 LINE",
"625 365 LINE",
"622 182 LINE"
);
}
);
width = 920;
}
);
note = uni4FC3;
unicode = 4FC3;
}
{
glyphname = uni4FC4;
layers = (
{
layerId = "A8B8C001-3175-4DE2-BFCE-CA439A51AAC8";
paths = (
{
closed = 1;
nodes = (
"291 407 LINE",
"413 416 LINE",
"390 222 LINE",
"244 177 LINE",
"273 87 LINE",
"378 120 LINE",
"358 -46 LINE",
"451 -58 LINE",
"476 150 LINE",
"590 186 LINE",
"563 276 LINE",
"488 253 LINE",
"509 423 LINE",
"646 433 LINE",
"678 229 LINE",
"528 101 LINE",
"590 29 LINE",
"695 119 LINE",
"724 -65 LINE",
"819 -51 LINE",
"781 192 LINE",
"900 294 LINE",
"838 366 LINE",
"763 302 LINE",
"741 440 LINE",
"890 452 LINE",
"883 547 LINE",
"726 535 LINE",
"690 769 LINE",
"596 754 LINE",
"631 528 LINE",
"520 520 LINE",
"531 606 LINE",
"438 619 LINE",
"425 513 LINE",
"374 509 LINE",
"481 694 LINE",
"399 741 LINE",
"246 477 LINE"
);
},
{
closed = 1;
nodes = (
"201 -66 LINE",
"235 476 LINE",
"183 526 LINE",
"149 522 LINE",
"271 739 LINE",
"189 785 LINE",
"20 490 LINE",
"66 420 LINE",
"136 426 LINE",
"106 -61 LINE"
);
},
{
closed = 1;
nodes = (
"799 555 LINE",
"881 602 LINE",
"793 756 LINE",
"711 709 LINE"
);
}
);
width = 920;
}
);
note = uni4FC4;
unicode = 4FC4;
}
{
glyphname = uni4FC5;
layers = (
{
layerId = "A8B8C001-3175-4DE2-BFCE-CA439A51AAC8";
paths = (
{
closed = 1;
nodes = (
"334 511 LINE",
"535 528 LINE",
"547 302 LINE",
"269 108 LINE",
"323 30 LINE",
"553 192 LINE",
"559 78 LINE",
"450 20 LINE",
"494 -62 LINE",
"629 9 LINE",
"654 53 LINE",
"644 247 LINE",
"827 23 LINE",
"900 83 LINE",
"735 285 LINE",
"835 424 LINE",
"758 479 LINE",
"673 360 LINE",
"636 406 LINE",
"629 536 LINE",
"893 558 LINE",
"885 651 LINE",
"820 645 LINE",
"762 783 LINE",
"675 746 LINE",
"721 637 LINE",
"624 629 LINE",
"618 758 LINE",
"523 753 LINE",
"530 621 LINE",
"327 605 LINE"
);
},
{
closed = 1;
nodes = (
"92 483 LINE",
"156 558 LINE",
"138 -32 LINE",
"233 -35 LINE",
"252 618 LINE",
"208 619 LINE",
"272 695 LINE",
"200 756 LINE",
"19 544 LINE"
);
},
{
closed = 1;
nodes = (
"489 304 LINE",
"527 390 LINE",
"343 470 LINE",
"305 384 LINE"
);
}
);
width = 920;
}
);
note = uni4FC5;
unicode = 4FC5;
}
{
glyphname = uni4FCA;
layers = (
{
layerId = "A8B8C001-3175-4DE2-BFCE-CA439A51AAC8";
paths = (
{
closed = 1;
nodes = (
"371 -64 LINE",
"563 54 LINE",
"792 -43 LINE",
"830 43 LINE",
"662 115 LINE",
"805 203 LINE",
"786 291 LINE",
"530 323 LINE",
"567 372 LINE",
"492 429 LINE",
"406 316 LINE",
"437 241 LINE",
"642 214 LINE",
"556 161 LINE",
"406 226 LINE",
"369 138 LINE",
"457 100 LINE",
"322 17 LINE"
);
},
{
closed = 1;
nodes = (
"94 443 LINE",
"163 504 LINE",
"140 -29 LINE",
"234 -33 LINE",
"259 546 LINE",
"212 547 LINE",
"341 662 LINE",
"279 732 LINE",
"31 514 LINE"
);
},
{
closed = 1;
nodes = (
"385 539 LINE",
"758 541 LINE",
"781 502 LINE",
"862 548 LINE",
"770 712 LINE",
"687 664 LINE",
"704 634 LINE",
"484 634 LINE",
"556 724 LINE",
"482 783 LINE",
"349 616 LINE"
);
},
{
closed = 1;
nodes = (
"832 287 LINE",
"889 363 LINE",
"677 516 LINE",
"622 439 LINE"
);
},
{
closed = 1;
nodes = (
"351 298 LINE",
"489 473 LINE",
"414 532 LINE",
"277 356 LINE"
);
}
);
width = 920;
}
);
note = uni4FCA;
unicode = 4FCA;
}
{
glyphname = uni4FCE;
layers = (
{
layerId = "A8B8C001-3175-4DE2-BFCE-CA439A51AAC8";
paths = (
{
closed = 1;
nodes = (
"338 -35 LINE",
"887 -24 LINE",
"885 71 LINE",
"787 68 LINE",
"811 706 LINE",
"763 755 LINE",
"471 755 LINE",
"423 706 LINE",
"451 60 LINE",
"336 58 LINE"
);
},
{
closed = 1;
nodes = (
"147 -18 LINE",
"208 164 LINE",
"346 76 LINE",
"397 156 LINE",
"240 257 LINE",
"282 381 LINE",
"193 411 LINE",
"58 12 LINE"
);
},
{
closed = 1;
nodes = (
"115 373 LINE",
"198 527 LINE",
"373 422 LINE",
"422 503 LINE",
"243 610 LINE",
"288 695 LINE",
"206 738 LINE",
"32 418 LINE"
);
},
{
closed = 1;
nodes = (
"715 661 LINE",
"709 527 LINE",
"526 515 LINE",
"520 661 LINE"
);
},
{
closed = 1;
nodes = (
"539 212 LINE",
"697 212 LINE",
"692 66 LINE",
"546 63 LINE"
);
},
{
closed = 1;
nodes = (
"530 420 LINE",
"706 432 LINE",
"701 307 LINE",
"535 307 LINE"
);
}
);
width = 920;
}
);
note = uni4FCE;
unicode = 4FCE;
}
{
glyphname = uni4FCF;
layers = (
{
layerId = "A8B8C001-3175-4DE2-BFCE-CA439A51AAC8";
paths = (
{
closed = 1;
nodes = (
"328 263 LINE",
"376 268 LINE",
"383 -42 LINE",
"478 -40 LINE",
"474 119 LINE",
"748 119 LINE",
"748 214 LINE",
"471 214 LINE",
"470 277 LINE",
"731 304 LINE",
"721 398 LINE",
"467 372 LINE",
"466 442 LINE",
"777 462 LINE",
"772 98 LINE",
"643 52 LINE",
"675 -37 LINE",
"835 20 LINE",
"866 64 LINE",
"871 510 LINE",
"821 558 LINE",
"787 556 LINE",
"873 715 LINE",
"791 760 LINE",
"678 549 LINE",
"660 548 LINE",
"672 778 LINE",
"578 783 LINE",
"565 542 LINE",
"415 533 LINE",
"371 484 LINE",
"374 362 LINE",
"318 357 LINE"
);
},
{
closed = 1;
nodes = (
"128 348 LINE",
"177 431 LINE",
"218 -63 LINE",
"312 -56 LINE",
"261 569 LINE",
"257 568 LINE",
"345 719 LINE",
"263 767 LINE",
"47 395 LINE"
);
},
{
closed = 1;
nodes = (
"458 547 LINE",
"537 600 LINE",
"441 742 LINE",
"363 688 LINE"
);
}
);
width = 920;
}
);
note = uni4FCF;
unicode = 4FCF;
}
{
glyphname = uni4FD0;
layers = (
{
layerId = "A8B8C001-3175-4DE2-BFCE-CA439A51AAC8";
paths = (
{
closed = 1;
nodes = (
"345 636 LINE",
"426 649 LINE",
"428 545 LINE",
"300 538 LINE",
"305 444 LINE",
"430 451 LINE",
"441 -54 LINE",
"535 -52 LINE",
"528 251 LINE",
"625 226 LINE",
"648 317 LINE",
"526 350 LINE",
"523 456 LINE",
"628 462 LINE",
"623 556 LINE",
"521 550 LINE",
"519 664 LINE",
"608 679 LINE",
"593 773 LINE",
"330 729 LINE"
);
},
{
closed = 1;
nodes = (
"103 436 LINE",
"154 508 LINE",
"140 6 LINE",
"233 2 LINE",
"250 583 LINE",
"208 584 LINE",
"303 719 LINE",
"226 773 LINE",
"27 489 LINE"
);
},
{
closed = 1;
nodes = (
"686 -24 LINE",
"860 37 LINE",
"892 83 LINE",
"880 758 LINE",
"785 756 LINE",
"797 114 LINE",
"655 64 LINE"
);
},
{
closed = 1;
nodes = (
"675 133 LINE",
"770 137 LINE",
"751 629 LINE",
"656 626 LINE"
);
},
{
closed = 1;
nodes = (
"348 3 LINE",
"420 334 LINE",
"327 353 LINE",
"256 23 LINE"
);
}
);
width = 920;
}
);
note = uni4FD0;
unicode = 4FD0;
}
